# Blender 5.0.1
# www.blender.org
mtllib Barrel.mtl
o Cylinder.002
v -0.000000 1.179557 0.705269
v -0.137592 1.179557 0.691717
v -0.269895 1.179557 0.651584
v -0.391827 1.179557 0.586410
v -0.498701 1.179557 0.498701
v -0.586410 1.179557 0.391827
v -0.651584 1.179557 0.269895
v -0.691718 1.179557 0.137591
v -0.705269 1.179557 0.000000
v -0.691718 1.179557 -0.137591
v -0.651584 1.179558 -0.269894
v -0.586410 1.179558 -0.391826
v -0.498701 1.179558 -0.498700
v -0.391827 1.179558 -0.586409
v -0.269895 1.179558 -0.651583
v -0.137592 1.179558 -0.691717
v -0.000000 1.179558 -0.705268
v 0.137591 1.179558 -0.691717
v 0.269894 1.179558 -0.651583
v 0.391826 1.179558 -0.586409
v 0.498700 1.179558 -0.498700
v 0.586409 1.179558 -0.391826
v 0.651583 1.179558 -0.269894
v 0.691717 1.179558 -0.137591
v 0.705268 1.179558 0.000000
v 0.691717 1.179558 0.137591
v 0.651583 1.179558 0.269895
v 0.586409 1.179558 0.391827
v 0.498700 1.179558 0.498701
v 0.391826 1.179558 0.586410
v 0.269894 1.179558 0.651584
v 0.137591 1.179558 0.691717
v -0.195090 -0.000000 0.980785
v -0.980785 -0.000000 0.195090
v -0.980785 -0.000000 -0.195090
v -0.831470 -0.000000 -0.555570
v -0.707107 -0.000000 -0.707107
v -0.555570 0.000000 -0.831470
v -0.382683 0.000000 -0.923880
v -0.000000 0.689684 0.942243
v -0.183823 0.689684 0.924138
v -0.360581 0.689684 0.870519
v -0.523482 0.689684 0.783447
v -0.666267 0.689684 0.666267
v -0.783447 0.689684 0.523482
v -0.870519 0.689684 0.360581
v -0.924138 0.689684 0.183823
v -0.942243 0.689684 0.000000
v -0.924138 0.689684 -0.183822
v -0.870519 0.689684 -0.360581
v -0.783447 0.689684 -0.523482
v -0.666267 0.689684 -0.666266
v -0.523482 0.689685 -0.783446
v -0.360581 0.689685 -0.870519
v -0.183823 0.689685 -0.924138
v -0.000000 0.689685 -0.942243
v 0.183822 0.689685 -0.924138
v 0.360580 0.689685 -0.870519
v 0.523482 0.689685 -0.783446
v 0.666266 0.689685 -0.666266
v 0.783446 0.689685 -0.523482
v 0.870519 0.689685 -0.360581
v 0.924138 0.689685 -0.183822
v 0.942243 0.689685 0.000000
v 0.924138 0.689685 0.183823
v 0.870519 0.689685 0.360581
v 0.783446 0.689685 0.523482
v 0.666266 0.689685 0.666267
v 0.523482 0.689684 0.783447
v 0.360580 0.689684 0.870519
v 0.183822 0.689684 0.924138
v -0.186640 0.517263 0.938300
v -0.366107 0.517263 0.883859
v -0.531504 0.517263 0.795452
v -0.676477 0.517263 0.676477
v -0.795452 0.517263 0.531504
v -0.883859 0.517263 0.366107
v -0.938300 0.517263 0.186640
v -0.956682 0.517263 0.000000
v -0.938300 0.517263 -0.186639
v -0.883859 0.517263 -0.366106
v -0.795452 0.517263 -0.531504
v -0.676477 0.517263 -0.676476
v -0.531504 0.517263 -0.795452
v -0.366107 0.517263 -0.883859
v -0.186640 0.517264 -0.938300
v -0.000000 0.517264 -0.956682
v 0.186639 0.517264 -0.938300
v 0.366106 0.517264 -0.883859
v 0.531504 0.517264 -0.795452
v 0.676476 0.517264 -0.676476
v 0.795452 0.517264 -0.531504
v 0.883859 0.517264 -0.366106
v 0.938300 0.517264 -0.186639
v 0.956682 0.517264 0.000000
v 0.938300 0.517264 0.186640
v 0.883859 0.517264 0.366107
v 0.795452 0.517263 0.531504
v 0.676476 0.517263 0.676477
v 0.531504 0.517263 0.795452
v 0.366106 0.517263 0.883859
v 0.186639 0.517263 0.938300
v -0.000000 0.517263 0.956682
v -0.000000 0.697443 1.027045
v -0.200367 0.697443 1.007311
v -0.393033 0.697443 0.948866
v -0.570596 0.697443 0.853957
v -0.726231 0.697443 0.726231
v -0.853957 0.697443 0.570596
v -0.948866 0.697443 0.393033
v -1.007311 0.697443 0.200367
v -1.027045 0.697443 0.000000
v -1.007311 0.697443 -0.200366
v -0.948866 0.697443 -0.393033
v -0.853957 0.697443 -0.570595
v -0.726231 0.697443 -0.726230
v -0.570596 0.697443 -0.853956
v -0.393033 0.697444 -0.948865
v -0.200367 0.697444 -1.007310
v -0.000000 0.697444 -1.027045
v 0.200366 0.697444 -1.007310
v 0.393033 0.697444 -0.948865
v 0.570595 0.697444 -0.853956
v 0.726230 0.697444 -0.726230
v 0.853956 0.697444 -0.570595
v 0.948865 0.697444 -0.393033
v 1.007310 0.697444 -0.200366
v 1.027045 0.697444 0.000000
v 1.007310 0.697444 0.200367
v 0.948865 0.697444 0.393033
v 0.853956 0.697444 0.570596
v 0.726230 0.697443 0.726231
v 0.570595 0.697443 0.853957
v 0.393033 0.697443 0.948866
v 0.200366 0.697443 1.007311
v -0.203437 0.509504 1.022747
v -0.399056 0.509504 0.963407
v -0.579340 0.509504 0.867043
v -0.737360 0.509504 0.737360
v -0.867043 0.509504 0.579340
v -0.963407 0.509504 0.399056
v -1.022747 0.509504 0.203437
v -1.042784 0.509504 0.000000
v -1.022747 0.509504 -0.203437
v -0.963407 0.509504 -0.399056
v -0.867043 0.509504 -0.579339
v -0.737360 0.509504 -0.737359
v -0.579340 0.509504 -0.867043
v -0.399056 0.509505 -0.963406
v -0.203437 0.509505 -1.022747
v -0.000000 0.509505 -1.042783
v 0.203437 0.509505 -1.022747
v 0.399056 0.509505 -0.963406
v 0.579339 0.509505 -0.867043
v 0.737359 0.509505 -0.737359
v 0.867043 0.509505 -0.579339
v 0.963406 0.509505 -0.399056
v 1.022747 0.509505 -0.203437
v 1.042783 0.509505 0.000000
v 1.022747 0.509505 0.203437
v 0.963406 0.509505 0.399056
v 0.867043 0.509505 0.579340
v 0.737359 0.509504 0.737360
v 0.579339 0.509504 0.867043
v 0.399056 0.509504 0.963407
v 0.203437 0.509504 1.022747
v -0.000000 0.509504 1.042784
v 0.195090 -0.000000 0.980785
v 0.382683 -0.000000 0.923880
v 0.831470 0.000000 0.555570
v 0.923880 0.000000 0.382683
v 0.980785 0.000000 0.195090
v 1.000000 0.000000 0.000000
v 0.980785 0.000000 -0.195090
v 0.831470 0.000001 -0.555570
v 0.707107 0.000001 -0.707107
v -0.831470 -0.000001 0.555570
v -0.000000 1.179557 0.805753
v -0.157195 1.179557 0.790270
v -0.308349 1.179557 0.744419
v -0.447652 1.179557 0.669959
v -0.569753 1.179557 0.569753
v -0.669959 1.179557 0.447652
v -0.744419 1.179557 0.308349
v -0.790271 1.179557 0.157195
v -0.805753 1.179557 0.000000
v -0.790271 1.179557 -0.157194
v -0.744419 1.179557 -0.308348
v -0.669959 1.179558 -0.447652
v -0.569753 1.179558 -0.569753
v -0.447652 1.179558 -0.669958
v -0.308349 1.179558 -0.744418
v -0.157195 1.179558 -0.790270
v -0.000000 1.179558 -0.805752
v 0.157194 1.179558 -0.790270
v 0.308348 1.179558 -0.744418
v 0.447652 1.179558 -0.669958
v 0.569753 1.179558 -0.569753
v 0.669958 1.179558 -0.447652
v 0.744418 1.179558 -0.308348
v 0.790270 1.179558 -0.157194
v 0.805752 1.179558 0.000000
v 0.790270 1.179558 0.157195
v 0.744418 1.179558 0.308349
v 0.669958 1.179558 0.447652
v 0.569753 1.179558 0.569753
v 0.447652 1.179558 0.669959
v 0.308348 1.179558 0.744419
v 0.157194 1.179557 0.790270
v -0.000000 1.095464 0.705269
v -0.137592 1.095464 0.691717
v -0.269895 1.095464 0.651584
v -0.391827 1.095464 0.586410
v -0.498701 1.095464 0.498701
v -0.586410 1.095464 0.391827
v -0.651584 1.095464 0.269895
v -0.691718 1.095464 0.137591
v -0.705269 1.095464 0.000000
v -0.691718 1.095464 -0.137591
v -0.651584 1.095465 -0.269894
v -0.586410 1.095465 -0.391826
v -0.498701 1.095465 -0.498700
v -0.391827 1.095465 -0.586409
v -0.269895 1.095465 -0.651583
v -0.137592 1.095465 -0.691717
v -0.000000 1.095465 -0.705268
v 0.137591 1.095465 -0.691717
v 0.269894 1.095465 -0.651583
v 0.391826 1.095465 -0.586409
v 0.498700 1.095465 -0.498700
v 0.586409 1.095465 -0.391826
v 0.651583 1.095465 -0.269894
v 0.691717 1.095465 -0.137591
v 0.705268 1.095465 0.000000
v 0.691717 1.095465 0.137591
v 0.651583 1.095465 0.269895
v 0.586409 1.095465 0.391827
v 0.498700 1.095465 0.498701
v 0.391826 1.095465 0.586410
v 0.269894 1.095465 0.651584
v 0.137591 1.095465 0.691717
v -0.195090 0.000000 -0.980785
v -0.923880 -0.000000 -0.382683
v -1.000000 -0.000000 -0.000000
v -0.923880 -0.000000 0.382683
v -0.707107 -0.000001 0.707107
v -0.555570 -0.000000 0.831470
v -0.382683 -0.000000 0.923880
v 0.195090 0.000000 -0.980785
v 0.382683 0.000000 -0.923880
v 0.555570 0.000000 -0.831470
v 0.923880 0.000000 -0.382683
v 0.707107 0.000000 0.707107
v 0.555570 -0.000000 0.831470
v 0.000000 -0.000000 1.000000
v -0.000000 0.000000 -1.000000
v 0.000000 -1.179558 0.705268
v -0.137591 -1.179558 0.691717
v -0.269894 -1.179558 0.651583
v -0.391826 -1.179558 0.586409
v -0.498700 -1.179558 0.498700
v -0.586409 -1.179558 0.391826
v -0.651583 -1.179558 0.269894
v -0.691717 -1.179558 0.137591
v -0.705268 -1.179558 -0.000000
v -0.691717 -1.179558 -0.137591
v -0.651583 -1.179558 -0.269895
v -0.586409 -1.179558 -0.391827
v -0.498700 -1.179558 -0.498701
v -0.391826 -1.179558 -0.586410
v -0.269894 -1.179558 -0.651584
v -0.137591 -1.179558 -0.691717
v 0.000000 -1.179557 -0.705269
v 0.137592 -1.179557 -0.691717
v 0.269895 -1.179557 -0.651584
v 0.391827 -1.179557 -0.586410
v 0.498701 -1.179557 -0.498701
v 0.586410 -1.179557 -0.391827
v 0.651584 -1.179557 -0.269895
v 0.691718 -1.179557 -0.137591
v 0.705269 -1.179557 -0.000000
v 0.691718 -1.179557 0.137591
v 0.651584 -1.179558 0.269894
v 0.586410 -1.179558 0.391826
v 0.498701 -1.179558 0.498700
v 0.391827 -1.179558 0.586409
v 0.269895 -1.179558 0.651583
v 0.137592 -1.179558 0.691717
v 0.000000 -0.689685 0.942243
v -0.183822 -0.689685 0.924138
v -0.360580 -0.689685 0.870519
v -0.523482 -0.689685 0.783446
v -0.666266 -0.689685 0.666266
v -0.783446 -0.689685 0.523482
v -0.870519 -0.689685 0.360581
v -0.924138 -0.689685 0.183822
v -0.942243 -0.689685 -0.000000
v -0.924138 -0.689685 -0.183823
v -0.870519 -0.689685 -0.360581
v -0.783446 -0.689685 -0.523482
v -0.666266 -0.689685 -0.666267
v -0.523482 -0.689684 -0.783447
v -0.360580 -0.689684 -0.870519
v -0.183822 -0.689684 -0.924138
v 0.000000 -0.689684 -0.942243
v 0.183823 -0.689684 -0.924138
v 0.360581 -0.689684 -0.870519
v 0.523482 -0.689684 -0.783447
v 0.666267 -0.689684 -0.666267
v 0.783447 -0.689684 -0.523482
v 0.870519 -0.689684 -0.360581
v 0.924138 -0.689684 -0.183823
v 0.942243 -0.689684 -0.000000
v 0.924138 -0.689684 0.183822
v 0.870519 -0.689684 0.360581
v 0.783447 -0.689684 0.523482
v 0.666267 -0.689684 0.666266
v 0.523482 -0.689685 0.783446
v 0.360581 -0.689685 0.870519
v 0.183823 -0.689685 0.924138
v -0.186639 -0.517264 0.938300
v -0.366106 -0.517264 0.883859
v -0.531504 -0.517264 0.795452
v -0.676476 -0.517264 0.676476
v -0.795452 -0.517264 0.531504
v -0.883859 -0.517264 0.366106
v -0.938300 -0.517264 0.186639
v -0.956682 -0.517264 -0.000000
v -0.938300 -0.517264 -0.186640
v -0.883859 -0.517264 -0.366107
v -0.795452 -0.517263 -0.531504
v -0.676476 -0.517263 -0.676477
v -0.531504 -0.517263 -0.795452
v -0.366106 -0.517263 -0.883859
v -0.186639 -0.517263 -0.938300
v 0.000000 -0.517263 -0.956682
v 0.186640 -0.517263 -0.938300
v 0.366107 -0.517263 -0.883859
v 0.531504 -0.517263 -0.795452
v 0.676477 -0.517263 -0.676477
v 0.795452 -0.517263 -0.531504
v 0.883859 -0.517263 -0.366107
v 0.938300 -0.517263 -0.186640
v 0.956682 -0.517263 -0.000000
v 0.938300 -0.517263 0.186639
v 0.883859 -0.517263 0.366106
v 0.795452 -0.517263 0.531504
v 0.676477 -0.517263 0.676476
v 0.531504 -0.517263 0.795452
v 0.366107 -0.517263 0.883859
v 0.186640 -0.517264 0.938300
v 0.000000 -0.517264 0.956682
v 0.000000 -0.697444 1.027045
v -0.200366 -0.697444 1.007310
v -0.393033 -0.697444 0.948865
v -0.570595 -0.697444 0.853956
v -0.726230 -0.697444 0.726230
v -0.853956 -0.697444 0.570595
v -0.948865 -0.697444 0.393033
v -1.007310 -0.697444 0.200366
v -1.027045 -0.697444 -0.000000
v -1.007310 -0.697444 -0.200367
v -0.948865 -0.697444 -0.393033
v -0.853956 -0.697444 -0.570596
v -0.726230 -0.697443 -0.726231
v -0.570595 -0.697443 -0.853957
v -0.393033 -0.697443 -0.948866
v -0.200366 -0.697443 -1.007311
v 0.000000 -0.697443 -1.027045
v 0.200367 -0.697443 -1.007311
v 0.393033 -0.697443 -0.948866
v 0.570596 -0.697443 -0.853957
v 0.726231 -0.697443 -0.726231
v 0.853957 -0.697443 -0.570596
v 0.948866 -0.697443 -0.393033
v 1.007311 -0.697443 -0.200367
v 1.027045 -0.697443 -0.000000
v 1.007311 -0.697443 0.200366
v 0.948866 -0.697443 0.393033
v 0.853957 -0.697443 0.570595
v 0.726231 -0.697443 0.726230
v 0.570596 -0.697443 0.853956
v 0.393033 -0.697444 0.948865
v 0.200367 -0.697444 1.007310
v -0.203437 -0.509505 1.022747
v -0.399056 -0.509505 0.963406
v -0.579339 -0.509505 0.867043
v -0.737359 -0.509505 0.737359
v -0.867043 -0.509505 0.579339
v -0.963406 -0.509505 0.399056
v -1.022747 -0.509505 0.203437
v -1.042783 -0.509505 -0.000000
v -1.022747 -0.509505 -0.203437
v -0.963406 -0.509505 -0.399056
v -0.867043 -0.509505 -0.579340
v -0.737359 -0.509504 -0.737360
v -0.579339 -0.509504 -0.867043
v -0.399056 -0.509504 -0.963407
v -0.203437 -0.509504 -1.022747
v 0.000000 -0.509504 -1.042784
v 0.203437 -0.509504 -1.022747
v 0.399056 -0.509504 -0.963407
v 0.579340 -0.509504 -0.867043
v 0.737360 -0.509504 -0.737360
v 0.867043 -0.509504 -0.579340
v 0.963407 -0.509504 -0.399056
v 1.022747 -0.509504 -0.203437
v 1.042784 -0.509504 -0.000000
v 1.022747 -0.509504 0.203437
v 0.963407 -0.509504 0.399056
v 0.867043 -0.509504 0.579339
v 0.737360 -0.509504 0.737359
v 0.579340 -0.509504 0.867043
v 0.399056 -0.509505 0.963406
v 0.203437 -0.509505 1.022747
v 0.000000 -0.509505 1.042783
v 0.000000 -1.179558 0.805752
v -0.157194 -1.179558 0.790270
v -0.308348 -1.179558 0.744418
v -0.447652 -1.179558 0.669958
v -0.569753 -1.179558 0.569753
v -0.669958 -1.179558 0.447652
v -0.744418 -1.179558 0.308348
v -0.790270 -1.179558 0.157194
v -0.805752 -1.179558 -0.000000
v -0.790270 -1.179558 -0.157195
v -0.744418 -1.179558 -0.308349
v -0.669958 -1.179558 -0.447652
v -0.569753 -1.179558 -0.569753
v -0.447652 -1.179558 -0.669959
v -0.308348 -1.179558 -0.744419
v -0.157194 -1.179557 -0.790270
v 0.000000 -1.179557 -0.805753
v 0.157195 -1.179557 -0.790270
v 0.308349 -1.179557 -0.744419
v 0.447652 -1.179557 -0.669959
v 0.569753 -1.179557 -0.569753
v 0.669959 -1.179557 -0.447652
v 0.744419 -1.179557 -0.308349
v 0.790271 -1.179557 -0.157195
v 0.805753 -1.179557 -0.000000
v 0.790271 -1.179557 0.157194
v 0.744419 -1.179557 0.308348
v 0.669959 -1.179558 0.447652
v 0.569753 -1.179558 0.569753
v 0.447652 -1.179558 0.669958
v 0.308349 -1.179558 0.744418
v 0.157195 -1.179558 0.790270
v 0.000000 -1.095465 0.705268
v -0.137591 -1.095465 0.691717
v -0.269894 -1.095465 0.651583
v -0.391826 -1.095465 0.586409
v -0.498700 -1.095465 0.498700
v -0.586409 -1.095465 0.391826
v -0.651583 -1.095465 0.269894
v -0.691717 -1.095465 0.137591
v -0.705268 -1.095465 -0.000000
v -0.691717 -1.095465 -0.137591
v -0.651583 -1.095465 -0.269895
v -0.586409 -1.095465 -0.391827
v -0.498700 -1.095465 -0.498701
v -0.391826 -1.095465 -0.586410
v -0.269894 -1.095465 -0.651584
v -0.137591 -1.095465 -0.691717
v 0.000000 -1.095464 -0.705269
v 0.137591 -1.095464 -0.691717
v 0.269895 -1.095464 -0.651584
v 0.391827 -1.095464 -0.586410
v 0.498701 -1.095464 -0.498701
v 0.586410 -1.095464 -0.391827
v 0.651584 -1.095464 -0.269895
v 0.691717 -1.095464 -0.137591
v 0.705269 -1.095464 -0.000000
v 0.691717 -1.095464 0.137591
v 0.651584 -1.095465 0.269894
v 0.586410 -1.095465 0.391826
v 0.498701 -1.095465 0.498700
v 0.391827 -1.095465 0.586409
v 0.269895 -1.095465 0.651583
v 0.137591 -1.095465 0.691717
vn -0.0945 0.2672 0.9590
vn -0.2797 0.2672 0.9221
vn -0.4543 0.2672 0.8499
vn -0.6113 0.2672 0.7449
vn -0.7449 0.2672 0.6113
vn -0.8499 0.2672 0.4543
vn -0.9221 0.2672 0.2797
vn -0.9590 0.2672 0.0945
vn -0.9590 0.2672 -0.0945
vn -0.9221 0.2672 -0.2797
vn -0.8499 0.2672 -0.4543
vn -0.7449 0.2672 -0.6113
vn -0.6113 0.2672 -0.7449
vn -0.4543 0.2672 -0.8499
vn -0.2797 0.2672 -0.9221
vn -0.0945 0.2672 -0.9590
vn 0.0945 0.2672 -0.9590
vn 0.2797 0.2672 -0.9221
vn 0.4543 0.2672 -0.8499
vn 0.6113 0.2672 -0.7449
vn 0.7449 0.2672 -0.6113
vn 0.8499 0.2672 -0.4543
vn 0.9221 0.2672 -0.2797
vn 0.9590 0.2672 -0.0945
vn 0.9590 0.2672 0.0945
vn 0.9221 0.2672 0.2797
vn 0.8499 0.2672 0.4543
vn 0.7449 0.2672 0.6113
vn 0.6113 0.2672 0.7449
vn 0.4543 0.2672 0.8499
vn 0.2903 -0.0000 -0.9569
vn 0.2797 0.2672 0.9221
vn 0.0945 0.2672 0.9590
vn -0.0708 0.9958 -0.0581
vn 0.0266 0.9958 -0.0876
vn 0.0897 -0.9959 -0.0088
vn -0.0581 0.9958 -0.0708
vn 0.0432 0.9958 -0.0807
vn 0.0863 -0.9959 -0.0262
vn -0.0432 0.9958 -0.0807
vn 0.0581 0.9958 -0.0708
vn 0.0088 -0.9959 -0.0897
vn 0.0795 -0.9959 -0.0425
vn -0.0266 0.9958 -0.0876
vn 0.0708 0.9958 -0.0581
vn -0.0088 -0.9959 -0.0897
vn 0.0697 -0.9959 -0.0572
vn -0.0090 0.9958 -0.0911
vn 0.0807 0.9958 -0.0432
vn -0.0262 -0.9959 -0.0863
vn 0.0572 -0.9959 -0.0697
vn 0.0876 0.9958 -0.0266
vn -0.0425 -0.9959 -0.0795
vn 0.0425 -0.9959 -0.0795
vn 0.0911 0.9958 -0.0090
vn -0.0572 -0.9959 -0.0697
vn 0.0262 -0.9959 -0.0863
vn 0.0911 0.9958 0.0090
vn -0.0697 -0.9959 -0.0572
vn 0.0876 0.9958 0.0266
vn -0.0795 -0.9959 -0.0425
vn 0.0807 0.9958 0.0432
vn -0.0863 -0.9959 -0.0262
vn 0.0708 0.9958 0.0581
vn -0.0897 -0.9959 -0.0088
vn -0.2893 0.0831 0.9536
vn -0.4698 0.0831 0.8789
vn -0.6322 0.0831 0.7703
vn -0.7703 0.0831 0.6322
vn -0.8789 0.0831 0.4698
vn -0.9536 0.0831 0.2893
vn -0.9917 0.0831 0.0977
vn -0.9917 0.0831 -0.0977
vn -0.9536 0.0831 -0.2893
vn -0.8789 0.0831 -0.4698
vn -0.7703 0.0831 -0.6322
vn -0.6322 0.0831 -0.7703
vn -0.4698 0.0831 -0.8789
vn -0.2893 0.0831 -0.9536
vn -0.0977 0.0831 -0.9917
vn 0.0977 0.0831 -0.9917
vn 0.2893 0.0831 -0.9536
vn 0.4698 0.0831 -0.8789
vn 0.6322 0.0831 -0.7703
vn 0.7703 0.0831 -0.6322
vn 0.8789 0.0831 -0.4698
vn 0.9536 0.0831 -0.2893
vn 0.9917 0.0831 -0.0977
vn 0.9917 0.0831 0.0977
vn 0.9536 0.0831 0.2893
vn 0.8789 0.0831 0.4698
vn 0.7703 0.0831 0.6322
vn 0.6322 0.0831 0.7703
vn 0.4698 0.0831 0.8789
vn 0.2893 0.0831 0.9536
vn 0.0977 0.0831 0.9917
vn -0.0977 0.0831 0.9917
vn 0.0897 -0.9959 0.0088
vn 0.0090 0.9958 -0.0911
vn -0.0807 0.9958 -0.0432
vn 0.0863 -0.9959 0.0262
vn -0.0876 0.9958 -0.0266
vn 0.0795 -0.9959 0.0425
vn -0.0911 0.9958 -0.0090
vn 0.0697 -0.9959 0.0572
vn 0.0572 -0.9959 0.0697
vn -0.0911 0.9958 0.0090
vn 0.0425 -0.9959 0.0795
vn -0.0876 0.9958 0.0266
vn 0.0262 -0.9959 0.0863
vn -0.0807 0.9958 0.0432
vn -0.0708 0.9958 0.0581
vn 0.0088 -0.9959 0.0897
vn -0.0581 0.9958 0.0708
vn -0.0088 -0.9959 0.0897
vn -0.0432 0.9958 0.0807
vn -0.0262 -0.9959 0.0863
vn -0.0266 0.9958 0.0876
vn -0.0425 -0.9959 0.0795
vn -0.0090 0.9958 0.0911
vn -0.0572 -0.9959 0.0697
vn -0.0697 -0.9959 0.0572
vn 0.0090 0.9958 0.0911
vn -0.0795 -0.9959 0.0425
vn 0.0266 0.9958 0.0876
vn -0.0863 -0.9959 0.0262
vn 0.0432 0.9958 0.0807
vn -0.0897 -0.9959 0.0088
vn 0.0581 0.9958 0.0708
vn -0.0000 1.0000 -0.0000
vn -0.6344 -0.0000 -0.7730
vn 0.0980 -0.0000 0.9952
vn 0.4714 -0.0000 -0.8819
vn -0.4714 -0.0000 -0.8819
vn -0.0980 -0.0000 0.9952
vn 0.6344 -0.0000 -0.7730
vn -0.0980 -0.0000 -0.9952
vn -0.2903 -0.0000 0.9569
vn 0.7730 -0.0000 -0.6344
vn -0.2903 -0.0000 -0.9569
vn -0.4714 -0.0000 0.8819
vn 0.8819 -0.0000 -0.4714
vn -0.6344 -0.0000 0.7730
vn 0.9569 -0.0000 -0.2903
vn -0.7730 -0.0000 0.6344
vn 0.9952 -0.0000 -0.0980
vn -0.8819 -0.0000 0.4714
vn 0.9952 -0.0000 0.0980
vn -0.9569 -0.0000 0.2903
vn 0.9569 -0.0000 0.2903
vn -0.9952 -0.0000 0.0980
vn 0.8819 -0.0000 0.4714
vn -0.9952 -0.0000 -0.0980
vn 0.7730 -0.0000 0.6344
vn -0.9569 -0.0000 -0.2903
vn 0.6344 -0.0000 0.7730
vn -0.8819 -0.0000 -0.4714
vn 0.4714 -0.0000 0.8819
vn 0.0980 -0.0000 -0.9952
vn -0.7730 -0.0000 -0.6344
vn 0.2903 -0.0000 0.9569
vn -0.0945 -0.2672 0.9590
vn -0.2797 -0.2672 0.9221
vn -0.4543 -0.2672 0.8499
vn -0.6113 -0.2672 0.7449
vn -0.7449 -0.2672 0.6113
vn -0.8499 -0.2672 0.4543
vn -0.9221 -0.2672 0.2797
vn -0.9590 -0.2672 0.0945
vn -0.9590 -0.2672 -0.0945
vn -0.9221 -0.2672 -0.2797
vn -0.8499 -0.2672 -0.4543
vn -0.7449 -0.2672 -0.6113
vn -0.6113 -0.2672 -0.7449
vn -0.4543 -0.2672 -0.8499
vn -0.2797 -0.2672 -0.9221
vn -0.0945 -0.2672 -0.9590
vn 0.0945 -0.2672 -0.9590
vn 0.2797 -0.2672 -0.9221
vn 0.4543 -0.2672 -0.8499
vn 0.6113 -0.2672 -0.7449
vn 0.7449 -0.2672 -0.6113
vn 0.8499 -0.2672 -0.4543
vn 0.9221 -0.2672 -0.2797
vn 0.9590 -0.2672 -0.0945
vn 0.9590 -0.2672 0.0945
vn 0.9221 -0.2672 0.2797
vn 0.8499 -0.2672 0.4543
vn 0.7449 -0.2672 0.6113
vn 0.6113 -0.2672 0.7449
vn 0.4543 -0.2672 0.8499
vn 0.2797 -0.2672 0.9221
vn 0.0945 -0.2672 0.9590
vn -0.0708 -0.9958 -0.0581
vn 0.0266 -0.9958 -0.0876
vn 0.0897 0.9959 -0.0088
vn -0.0581 -0.9958 -0.0708
vn 0.0432 -0.9958 -0.0807
vn 0.0863 0.9959 -0.0262
vn -0.0432 -0.9958 -0.0807
vn 0.0581 -0.9958 -0.0708
vn 0.0088 0.9959 -0.0897
vn 0.0795 0.9959 -0.0425
vn -0.0266 -0.9958 -0.0876
vn 0.0708 -0.9958 -0.0581
vn -0.0088 0.9959 -0.0897
vn 0.0697 0.9959 -0.0572
vn -0.0090 -0.9958 -0.0911
vn 0.0807 -0.9958 -0.0432
vn -0.0262 0.9959 -0.0863
vn 0.0572 0.9959 -0.0697
vn 0.0876 -0.9958 -0.0266
vn -0.0425 0.9959 -0.0795
vn 0.0425 0.9959 -0.0795
vn 0.0911 -0.9958 -0.0090
vn -0.0572 0.9959 -0.0697
vn 0.0262 0.9959 -0.0863
vn 0.0911 -0.9958 0.0090
vn -0.0697 0.9959 -0.0572
vn 0.0876 -0.9958 0.0266
vn -0.0795 0.9959 -0.0425
vn 0.0807 -0.9958 0.0432
vn -0.0863 0.9959 -0.0262
vn 0.0708 -0.9958 0.0581
vn -0.0897 0.9959 -0.0088
vn -0.2893 -0.0831 0.9536
vn -0.4698 -0.0831 0.8789
vn -0.6322 -0.0831 0.7703
vn -0.7703 -0.0831 0.6322
vn -0.8789 -0.0831 0.4698
vn -0.9536 -0.0831 0.2893
vn -0.9917 -0.0831 0.0977
vn -0.9917 -0.0831 -0.0977
vn -0.9536 -0.0831 -0.2893
vn -0.8789 -0.0831 -0.4698
vn -0.7703 -0.0831 -0.6322
vn -0.6322 -0.0831 -0.7703
vn -0.4698 -0.0831 -0.8789
vn -0.2893 -0.0831 -0.9536
vn -0.0977 -0.0831 -0.9917
vn 0.0977 -0.0831 -0.9917
vn 0.2893 -0.0831 -0.9536
vn 0.4698 -0.0831 -0.8789
vn 0.6322 -0.0831 -0.7703
vn 0.7703 -0.0831 -0.6322
vn 0.8789 -0.0831 -0.4698
vn 0.9536 -0.0831 -0.2893
vn 0.9917 -0.0831 -0.0977
vn 0.9917 -0.0831 0.0977
vn 0.9536 -0.0831 0.2893
vn 0.8789 -0.0831 0.4698
vn 0.7703 -0.0831 0.6322
vn 0.6322 -0.0831 0.7703
vn 0.4698 -0.0831 0.8789
vn 0.2893 -0.0831 0.9536
vn 0.0977 -0.0831 0.9917
vn -0.0977 -0.0831 0.9917
vn 0.0897 0.9959 0.0088
vn 0.0090 -0.9958 -0.0911
vn -0.0807 -0.9958 -0.0432
vn 0.0863 0.9959 0.0262
vn -0.0876 -0.9958 -0.0266
vn 0.0795 0.9959 0.0425
vn -0.0911 -0.9958 -0.0090
vn 0.0697 0.9959 0.0572
vn 0.0572 0.9959 0.0697
vn -0.0911 -0.9958 0.0090
vn 0.0425 0.9959 0.0795
vn -0.0876 -0.9958 0.0266
vn 0.0262 0.9959 0.0863
vn -0.0807 -0.9958 0.0432
vn -0.0708 -0.9958 0.0581
vn 0.0088 0.9959 0.0897
vn -0.0581 -0.9958 0.0708
vn -0.0088 0.9959 0.0897
vn -0.0432 -0.9958 0.0807
vn -0.0262 0.9959 0.0863
vn -0.0266 -0.9958 0.0876
vn -0.0425 0.9959 0.0795
vn -0.0090 -0.9958 0.0911
vn -0.0572 0.9959 0.0697
vn -0.0697 0.9959 0.0572
vn 0.0090 -0.9958 0.0911
vn -0.0795 0.9959 0.0425
vn 0.0266 -0.9958 0.0876
vn -0.0863 0.9959 0.0262
vn 0.0432 -0.9958 0.0807
vn -0.0897 0.9959 0.0088
vn 0.0581 -0.9958 0.0708
vn -0.0000 -1.0000 -0.0000
vt 1.000000 0.875000
vt 1.000000 1.000000
vt 0.968750 1.000000
vt 0.968750 0.875000
vt 0.937500 1.000000
vt 0.937500 0.875000
vt 0.906250 1.000000
vt 0.906250 0.875000
vt 0.875000 1.000000
vt 0.875000 0.875000
vt 0.843750 1.000000
vt 0.843750 0.875000
vt 0.812500 1.000000
vt 0.812500 0.875000
vt 0.781250 1.000000
vt 0.781250 0.875000
vt 0.750000 1.000000
vt 0.750000 0.875000
vt 0.718750 1.000000
vt 0.718750 0.875000
vt 0.687500 1.000000
vt 0.687500 0.875000
vt 0.656250 1.000000
vt 0.656250 0.875000
vt 0.625000 1.000000
vt 0.625000 0.875000
vt 0.593750 1.000000
vt 0.593750 0.875000
vt 0.562500 1.000000
vt 0.562500 0.875000
vt 0.531250 1.000000
vt 0.531250 0.875000
vt 0.500000 1.000000
vt 0.500000 0.875000
vt 0.468750 1.000000
vt 0.468750 0.875000
vt 0.437500 1.000000
vt 0.437500 0.875000
vt 0.406250 1.000000
vt 0.406250 0.875000
vt 0.375000 1.000000
vt 0.375000 0.875000
vt 0.343750 1.000000
vt 0.343750 0.875000
vt 0.312500 1.000000
vt 0.312500 0.875000
vt 0.281250 1.000000
vt 0.281250 0.875000
vt 0.250000 1.000000
vt 0.250000 0.875000
vt 0.218750 1.000000
vt 0.218750 0.875000
vt 0.187500 1.000000
vt 0.187500 0.875000
vt 0.156250 1.000000
vt 0.156250 0.875000
vt 0.125000 1.000000
vt 0.125000 0.875000
vt 0.093750 1.000000
vt 0.093750 0.875000
vt 0.062500 1.000000
vt 0.062500 0.875000
vt 0.330390 0.444079
vt 0.290983 0.456034
vt 0.031250 1.000000
vt 0.031250 0.875000
vt 0.000000 1.000000
vt 0.000000 0.875000
vt 0.750000 0.843750
vt 0.781250 0.843750
vt 0.812500 0.843750
vt 0.968750 0.843750
vt 1.000000 0.843750
vt 0.843750 0.843750
vt 0.000000 0.843750
vt 0.031250 0.843750
vt 0.875000 0.843750
vt 0.062500 0.843750
vt 0.906250 0.843750
vt 0.093750 0.843750
vt 0.937500 0.843750
vt 0.125000 0.843750
vt 0.156250 0.843750
vt 0.187500 0.843750
vt 0.218750 0.843750
vt 0.250000 0.843750
vt 0.968750 0.750000
vt 0.937500 0.750000
vt 0.906250 0.750000
vt 0.875000 0.750000
vt 0.843750 0.750000
vt 0.812500 0.750000
vt 0.781250 0.750000
vt 0.750000 0.750000
vt 0.718750 0.843750
vt 0.718750 0.750000
vt 0.687500 0.843750
vt 0.687500 0.750000
vt 0.656250 0.843750
vt 0.656250 0.750000
vt 0.625000 0.843750
vt 0.625000 0.750000
vt 0.593750 0.843750
vt 0.593750 0.750000
vt 0.562500 0.843750
vt 0.562500 0.750000
vt 0.531250 0.843750
vt 0.531250 0.750000
vt 0.500000 0.843750
vt 0.500000 0.750000
vt 0.468750 0.843750
vt 0.468750 0.750000
vt 0.437500 0.843750
vt 0.437500 0.750000
vt 0.406250 0.843750
vt 0.406250 0.750000
vt 0.375000 0.843750
vt 0.375000 0.750000
vt 0.343750 0.843750
vt 0.343750 0.750000
vt 0.312500 0.843750
vt 0.312500 0.750000
vt 0.281250 0.843750
vt 0.281250 0.750000
vt 0.250000 0.750000
vt 0.218750 0.750000
vt 0.187500 0.750000
vt 0.156250 0.750000
vt 0.125000 0.750000
vt 0.093750 0.750000
vt 0.062500 0.750000
vt 0.031250 0.750000
vt 0.000000 0.750000
vt 1.000000 0.750000
vt 0.250000 0.460070
vt 0.296822 0.485388
vt 0.250000 0.490000
vt 0.341844 0.471731
vt 0.366709 0.424667
vt 0.383337 0.449553
vt 0.398542 0.398542
vt 0.419706 0.419706
vt 0.424667 0.366709
vt 0.449553 0.383337
vt 0.444079 0.330390
vt 0.471731 0.341844
vt 0.456034 0.290983
vt 0.485388 0.296822
vt 0.460070 0.250000
vt 0.490000 0.250000
vt 0.456034 0.209017
vt 0.485388 0.203178
vt 0.444079 0.169610
vt 0.471731 0.158156
vt 0.424667 0.133291
vt 0.449553 0.116663
vt 0.398542 0.101458
vt 0.419706 0.080294
vt 0.366709 0.075333
vt 0.383337 0.050447
vt 0.330390 0.055921
vt 0.341844 0.028269
vt 0.290983 0.043966
vt 0.296822 0.014612
vt 0.250000 0.039930
vt 0.250000 0.010000
vt 0.209017 0.043966
vt 0.203178 0.014612
vt 0.169610 0.055921
vt 0.158156 0.028269
vt 0.133291 0.075333
vt 0.116663 0.050447
vt 0.101458 0.101458
vt 0.080294 0.080294
vt 0.075333 0.133291
vt 0.050447 0.116663
vt 0.055921 0.169610
vt 0.028269 0.158156
vt 0.043966 0.209017
vt 0.014612 0.203178
vt 0.039930 0.250000
vt 0.010000 0.250000
vt 0.043966 0.290983
vt 0.014612 0.296822
vt 0.055921 0.330390
vt 0.028269 0.341844
vt 0.075333 0.366709
vt 0.050447 0.383337
vt 0.101458 0.398542
vt 0.080294 0.419706
vt 0.133291 0.424667
vt 0.116663 0.449553
vt 0.169610 0.444079
vt 0.158156 0.471731
vt 0.209017 0.456034
vt 0.203178 0.485388
s 0
usemtl Material.003
f 40/1/1 178/2/1 179/3/1 41/4/1
f 41/4/2 179/3/2 180/5/2 42/6/2
f 42/6/3 180/5/3 181/7/3 43/8/3
f 43/8/4 181/7/4 182/9/4 44/10/4
f 44/10/5 182/9/5 183/11/5 45/12/5
f 45/12/6 183/11/6 184/13/6 46/14/6
f 46/14/7 184/13/7 185/15/7 47/16/7
f 47/16/8 185/15/8 186/17/8 48/18/8
f 48/18/9 186/17/9 187/19/9 49/20/9
f 49/20/10 187/19/10 188/21/10 50/22/10
f 50/22/11 188/21/11 189/23/11 51/24/11
f 51/24/12 189/23/12 190/25/12 52/26/12
f 52/26/13 190/25/13 191/27/13 53/28/13
f 53/28/14 191/27/14 192/29/14 54/30/14
f 54/30/15 192/29/15 193/31/15 55/32/15
f 55/32/16 193/31/16 194/33/16 56/34/16
f 56/34/17 194/33/17 195/35/17 57/36/17
f 57/36/18 195/35/18 196/37/18 58/38/18
f 58/38/19 196/37/19 197/39/19 59/40/19
f 59/40/20 197/39/20 198/41/20 60/42/20
f 60/42/21 198/41/21 199/43/21 61/44/21
f 61/44/22 199/43/22 200/45/22 62/46/22
f 62/46/23 200/45/23 201/47/23 63/48/23
f 63/48/24 201/47/24 202/49/24 64/50/24
f 64/50/25 202/49/25 203/51/25 65/52/25
f 65/52/26 203/51/26 204/53/26 66/54/26
f 66/54/27 204/53/27 205/55/27 67/56/27
f 67/56/28 205/55/28 206/57/28 68/58/28
f 68/58/29 206/57/29 207/59/29 69/60/29
f 69/60/30 207/59/30 208/61/30 70/62/30
f 3/63/31 2/64/31 211/64/31 212/63/31
f 70/62/32 208/61/32 209/65/32 71/66/32
f 71/66/33 209/65/33 178/67/33 40/68/33
f 33/87/66 72/72/66 73/81/66 248/88/66
f 248/88/67 73/81/67 74/79/67 247/89/67
f 247/89/68 74/79/68 75/77/68 246/90/68
f 246/90/69 75/77/69 76/74/69 177/91/69
f 177/91/70 76/74/70 77/71/70 245/92/70
f 245/92/71 77/71/71 78/70/71 34/93/71
f 34/93/72 78/70/72 79/69/72 244/94/72
f 244/94/73 79/69/73 80/95/73 35/96/73
f 35/96/74 80/95/74 81/97/74 243/98/74
f 243/98/75 81/97/75 82/99/75 36/100/75
f 36/100/76 82/99/76 83/101/76 37/102/76
f 37/102/77 83/101/77 84/103/77 38/104/77
f 38/104/78 84/103/78 85/105/78 39/106/78
f 39/106/79 85/105/79 86/107/79 242/108/79
f 242/108/80 86/107/80 87/109/80 256/110/80
f 256/110/81 87/109/81 88/111/81 249/112/81
f 249/112/82 88/111/82 89/113/82 250/114/82
f 250/114/83 89/113/83 90/115/83 251/116/83
f 251/116/84 90/115/84 91/117/84 176/118/84
f 176/118/85 91/117/85 92/119/85 175/120/85
f 175/120/86 92/119/86 93/121/86 252/122/86
f 252/122/87 93/121/87 94/123/87 174/124/87
f 174/124/88 94/123/88 95/86/88 173/125/88
f 173/125/89 95/86/89 96/85/89 172/126/89
f 172/126/90 96/85/90 97/84/90 171/127/90
f 171/127/91 97/84/91 98/83/91 170/128/91
f 170/128/92 98/83/92 99/82/92 253/129/92
f 253/129/93 99/82/93 100/80/93 254/130/93
f 254/130/94 100/80/94 101/78/94 169/131/94
f 169/131/95 101/78/95 102/76/95 168/132/95
f 168/132/96 102/76/96 103/75/96 255/133/96
f 255/134/97 103/73/97 72/72/97 33/87/97
f 1/135/130 2/64/130 179/136/130 178/137/130
f 2/64/130 3/63/130 180/138/130 179/136/130
f 3/63/130 4/139/130 181/140/130 180/138/130
f 4/139/130 5/141/130 182/142/130 181/140/130
f 5/141/130 6/143/130 183/144/130 182/142/130
f 6/143/130 7/145/130 184/146/130 183/144/130
f 7/145/130 8/147/130 185/148/130 184/146/130
f 8/147/130 9/149/130 186/150/130 185/148/130
f 9/149/130 10/151/130 187/152/130 186/150/130
f 10/151/130 11/153/130 188/154/130 187/152/130
f 11/153/130 12/155/130 189/156/130 188/154/130
f 12/155/130 13/157/130 190/158/130 189/156/130
f 13/157/130 14/159/130 191/160/130 190/158/130
f 14/159/130 15/161/130 192/162/130 191/160/130
f 15/161/130 16/163/130 193/164/130 192/162/130
f 16/163/130 17/165/130 194/166/130 193/164/130
f 17/165/130 18/167/130 195/168/130 194/166/130
f 18/167/130 19/169/130 196/170/130 195/168/130
f 19/169/130 20/171/130 197/172/130 196/170/130
f 20/171/130 21/173/130 198/174/130 197/172/130
f 21/173/130 22/175/130 199/176/130 198/174/130
f 22/175/130 23/177/130 200/178/130 199/176/130
f 23/177/130 24/179/130 201/180/130 200/178/130
f 24/179/130 25/181/130 202/182/130 201/180/130
f 25/181/130 26/183/130 203/184/130 202/182/130
f 26/183/130 27/185/130 204/186/130 203/184/130
f 27/185/130 28/187/130 205/188/130 204/186/130
f 28/187/130 29/189/130 206/190/130 205/188/130
f 29/189/130 30/191/130 207/192/130 206/190/130
f 30/191/130 31/193/130 208/194/130 207/192/130
f 32/195/130 1/135/130 178/137/130 209/196/130
f 31/193/130 32/195/130 209/196/130 208/194/130
f 238/189/130 237/187/130 236/185/130 235/183/130 234/181/130 233/179/130 232/177/130 231/175/130 230/173/130 229/171/130 228/169/130 227/167/130 226/165/130 225/163/130 224/161/130 223/159/130 222/157/130 221/155/130 220/153/130 219/151/130 218/149/130 217/147/130 216/145/130 215/143/130 214/141/130 213/139/130 212/63/130 211/64/130 210/135/130 241/195/130 240/193/130 239/191/130
f 30/191/131 29/189/131 238/189/131 239/191/131
f 17/165/132 16/163/132 225/163/132 226/165/132
f 4/139/133 3/63/133 212/63/133 213/139/133
f 31/193/134 30/191/134 239/191/134 240/193/134
f 18/167/135 17/165/135 226/165/135 227/167/135
f 5/141/136 4/139/136 213/139/136 214/141/136
f 1/135/137 32/195/137 241/195/137 210/135/137
f 19/169/138 18/167/138 227/167/138 228/169/138
f 6/143/139 5/141/139 214/141/139 215/143/139
f 32/195/140 31/193/140 240/193/140 241/195/140
f 20/171/141 19/169/141 228/169/141 229/171/141
f 7/145/142 6/143/142 215/143/142 216/145/142
f 21/173/143 20/171/143 229/171/143 230/173/143
f 8/147/144 7/145/144 216/145/144 217/147/144
f 22/175/145 21/173/145 230/173/145 231/175/145
f 9/149/146 8/147/146 217/147/146 218/149/146
f 23/177/147 22/175/147 231/175/147 232/177/147
f 10/151/148 9/149/148 218/149/148 219/151/148
f 24/179/149 23/177/149 232/177/149 233/179/149
f 11/153/150 10/151/150 219/151/150 220/153/150
f 25/181/151 24/179/151 233/179/151 234/181/151
f 12/155/152 11/153/152 220/153/152 221/155/152
f 26/183/153 25/181/153 234/181/153 235/183/153
f 13/157/154 12/155/154 221/155/154 222/157/154
f 27/185/155 26/183/155 235/183/155 236/185/155
f 14/159/156 13/157/156 222/157/156 223/159/156
f 28/187/157 27/185/157 236/185/157 237/187/157
f 15/161/158 14/159/158 223/159/158 224/161/158
f 2/64/159 1/135/159 210/135/159 211/64/159
f 29/189/160 28/187/160 237/187/160 238/189/160
f 16/163/161 15/161/161 224/161/161 225/163/161
f 289/1/162 290/4/162 418/3/162 417/2/162
f 290/4/163 291/6/163 419/5/163 418/3/163
f 291/6/164 292/8/164 420/7/164 419/5/164
f 292/8/165 293/10/165 421/9/165 420/7/165
f 293/10/166 294/12/166 422/11/166 421/9/166
f 294/12/167 295/14/167 423/13/167 422/11/167
f 295/14/168 296/16/168 424/15/168 423/13/168
f 296/16/169 297/18/169 425/17/169 424/15/169
f 297/18/170 298/20/170 426/19/170 425/17/170
f 298/20/171 299/22/171 427/21/171 426/19/171
f 299/22/172 300/24/172 428/23/172 427/21/172
f 300/24/173 301/26/173 429/25/173 428/23/173
f 301/26/174 302/28/174 430/27/174 429/25/174
f 302/28/175 303/30/175 431/29/175 430/27/175
f 303/30/176 304/32/176 432/31/176 431/29/176
f 304/32/177 305/34/177 433/33/177 432/31/177
f 305/34/178 306/36/178 434/35/178 433/33/178
f 306/36/179 307/38/179 435/37/179 434/35/179
f 307/38/180 308/40/180 436/39/180 435/37/180
f 308/40/181 309/42/181 437/41/181 436/39/181
f 309/42/182 310/44/182 438/43/182 437/41/182
f 310/44/183 311/46/183 439/45/183 438/43/183
f 311/46/184 312/48/184 440/47/184 439/45/184
f 312/48/185 313/50/185 441/49/185 440/47/185
f 313/50/186 314/52/186 442/51/186 441/49/186
f 314/52/187 315/54/187 443/53/187 442/51/187
f 315/54/188 316/56/188 444/55/188 443/53/188
f 316/56/189 317/58/189 445/57/189 444/55/189
f 317/58/190 318/60/190 446/59/190 445/57/190
f 318/60/191 319/62/191 447/61/191 446/59/191
f 259/63/31 451/63/31 450/64/31 258/64/31
f 319/62/192 320/66/192 448/65/192 447/61/192
f 320/66/193 289/68/193 417/67/193 448/65/193
f 33/87/226 248/88/226 322/81/226 321/72/226
f 248/88/227 247/89/227 323/79/227 322/81/227
f 247/89/228 246/90/228 324/77/228 323/79/228
f 246/90/229 177/91/229 325/74/229 324/77/229
f 177/91/230 245/92/230 326/71/230 325/74/230
f 245/92/231 34/93/231 327/70/231 326/71/231
f 34/93/232 244/94/232 328/69/232 327/70/232
f 244/94/233 35/96/233 329/95/233 328/69/233
f 35/96/234 243/98/234 330/97/234 329/95/234
f 243/98/235 36/100/235 331/99/235 330/97/235
f 36/100/236 37/102/236 332/101/236 331/99/236
f 37/102/237 38/104/237 333/103/237 332/101/237
f 38/104/238 39/106/238 334/105/238 333/103/238
f 39/106/239 242/108/239 335/107/239 334/105/239
f 242/108/240 256/110/240 336/109/240 335/107/240
f 256/110/241 249/112/241 337/111/241 336/109/241
f 249/112/242 250/114/242 338/113/242 337/111/242
f 250/114/243 251/116/243 339/115/243 338/113/243
f 251/116/244 176/118/244 340/117/244 339/115/244
f 176/118/245 175/120/245 341/119/245 340/117/245
f 175/120/246 252/122/246 342/121/246 341/119/246
f 252/122/247 174/124/247 343/123/247 342/121/247
f 174/124/248 173/125/248 344/86/248 343/123/248
f 173/125/249 172/126/249 345/85/249 344/86/249
f 172/126/250 171/127/250 346/84/250 345/85/250
f 171/127/251 170/128/251 347/83/251 346/84/251
f 170/128/252 253/129/252 348/82/252 347/83/252
f 253/129/253 254/130/253 349/80/253 348/82/253
f 254/130/254 169/131/254 350/78/254 349/80/254
f 169/131/255 168/132/255 351/76/255 350/78/255
f 168/132/256 255/133/256 352/75/256 351/76/256
f 255/134/257 33/87/257 321/72/257 352/73/257
f 257/135/290 417/137/290 418/136/290 258/64/290
f 258/64/290 418/136/290 419/138/290 259/63/290
f 259/63/290 419/138/290 420/140/290 260/139/290
f 260/139/290 420/140/290 421/142/290 261/141/290
f 261/141/290 421/142/290 422/144/290 262/143/290
f 262/143/290 422/144/290 423/146/290 263/145/290
f 263/145/290 423/146/290 424/148/290 264/147/290
f 264/147/290 424/148/290 425/150/290 265/149/290
f 265/149/290 425/150/290 426/152/290 266/151/290
f 266/151/290 426/152/290 427/154/290 267/153/290
f 267/153/290 427/154/290 428/156/290 268/155/290
f 268/155/290 428/156/290 429/158/290 269/157/290
f 269/157/290 429/158/290 430/160/290 270/159/290
f 270/159/290 430/160/290 431/162/290 271/161/290
f 271/161/290 431/162/290 432/164/290 272/163/290
f 272/163/290 432/164/290 433/166/290 273/165/290
f 273/165/290 433/166/290 434/168/290 274/167/290
f 274/167/290 434/168/290 435/170/290 275/169/290
f 275/169/290 435/170/290 436/172/290 276/171/290
f 276/171/290 436/172/290 437/174/290 277/173/290
f 277/173/290 437/174/290 438/176/290 278/175/290
f 278/175/290 438/176/290 439/178/290 279/177/290
f 279/177/290 439/178/290 440/180/290 280/179/290
f 280/179/290 440/180/290 441/182/290 281/181/290
f 281/181/290 441/182/290 442/184/290 282/183/290
f 282/183/290 442/184/290 443/186/290 283/185/290
f 283/185/290 443/186/290 444/188/290 284/187/290
f 284/187/290 444/188/290 445/190/290 285/189/290
f 285/189/290 445/190/290 446/192/290 286/191/290
f 286/191/290 446/192/290 447/194/290 287/193/290
f 288/195/290 448/196/290 417/137/290 257/135/290
f 287/193/290 447/194/290 448/196/290 288/195/290
f 477/189/290 478/191/290 479/193/290 480/195/290 449/135/290 450/64/290 451/63/290 452/139/290 453/141/290 454/143/290 455/145/290 456/147/290 457/149/290 458/151/290 459/153/290 460/155/290 461/157/290 462/159/290 463/161/290 464/163/290 465/165/290 466/167/290 467/169/290 468/171/290 469/173/290 470/175/290 471/177/290 472/179/290 473/181/290 474/183/290 475/185/290 476/187/290
f 286/191/131 478/191/131 477/189/131 285/189/131
f 273/165/132 465/165/132 464/163/132 272/163/132
f 260/139/133 452/139/133 451/63/133 259/63/133
f 287/193/134 479/193/134 478/191/134 286/191/134
f 274/167/135 466/167/135 465/165/135 273/165/135
f 261/141/136 453/141/136 452/139/136 260/139/136
f 257/135/137 449/135/137 480/195/137 288/195/137
f 275/169/138 467/169/138 466/167/138 274/167/138
f 262/143/139 454/143/139 453/141/139 261/141/139
f 288/195/140 480/195/140 479/193/140 287/193/140
f 276/171/141 468/171/141 467/169/141 275/169/141
f 263/145/142 455/145/142 454/143/142 262/143/142
f 277/173/143 469/173/143 468/171/143 276/171/143
f 264/147/144 456/147/144 455/145/144 263/145/144
f 278/175/145 470/175/145 469/173/145 277/173/145
f 265/149/146 457/149/146 456/147/146 264/147/146
f 279/177/147 471/177/147 470/175/147 278/175/147
f 266/151/148 458/151/148 457/149/148 265/149/148
f 280/179/149 472/179/149 471/177/149 279/177/149
f 267/153/150 459/153/150 458/151/150 266/151/150
f 281/181/151 473/181/151 472/179/151 280/179/151
f 268/155/152 460/155/152 459/153/152 267/153/152
f 282/183/153 474/183/153 473/181/153 281/181/153
f 269/157/154 461/157/154 460/155/154 268/155/154
f 283/185/155 475/185/155 474/183/155 282/183/155
f 270/159/156 462/159/156 461/157/156 269/157/156
f 284/187/157 476/187/157 475/185/157 283/185/157
f 271/161/158 463/161/158 462/159/158 270/159/158
f 258/64/159 450/64/159 449/135/159 257/135/159
f 285/189/160 477/189/160 476/187/160 284/187/160
f 272/163/161 464/163/161 463/161/161 271/161/161
usemtl Material.004
f 67/56/34 68/58/34 132/58/34 131/56/34
f 41/4/35 42/6/35 106/6/35 105/4/35
f 79/69/36 78/70/36 142/70/36 143/69/36
f 68/58/37 69/60/37 133/60/37 132/58/37
f 42/6/38 43/8/38 107/8/38 106/6/38
f 78/70/39 77/71/39 141/71/39 142/70/39
f 69/60/40 70/62/40 134/62/40 133/60/40
f 43/8/41 44/10/41 108/10/41 107/8/41
f 72/72/42 103/73/42 167/73/42 136/72/42
f 77/71/43 76/74/43 140/74/43 141/71/43
f 70/62/44 71/66/44 135/66/44 134/62/44
f 44/10/45 45/12/45 109/12/45 108/10/45
f 103/75/46 102/76/46 166/76/46 167/75/46
f 76/74/47 75/77/47 139/77/47 140/74/47
f 71/66/48 40/68/48 104/68/48 135/66/48
f 45/12/49 46/14/49 110/14/49 109/12/49
f 102/76/50 101/78/50 165/78/50 166/76/50
f 75/77/51 74/79/51 138/79/51 139/77/51
f 46/14/52 47/16/52 111/16/52 110/14/52
f 101/78/53 100/80/53 164/80/53 165/78/53
f 74/79/54 73/81/54 137/81/54 138/79/54
f 47/16/55 48/18/55 112/18/55 111/16/55
f 100/80/56 99/82/56 163/82/56 164/80/56
f 73/81/57 72/72/57 136/72/57 137/81/57
f 48/18/58 49/20/58 113/20/58 112/18/58
f 99/82/59 98/83/59 162/83/59 163/82/59
f 49/20/60 50/22/60 114/22/60 113/20/60
f 98/83/61 97/84/61 161/84/61 162/83/61
f 50/22/62 51/24/62 115/24/62 114/22/62
f 97/84/63 96/85/63 160/85/63 161/84/63
f 51/24/64 52/26/64 116/26/64 115/24/64
f 96/85/65 95/86/65 159/86/65 160/85/65
f 167/73/97 104/1/97 105/4/97 136/72/97
f 166/76/96 135/66/96 104/68/96 167/75/96
f 165/78/95 134/62/95 135/66/95 166/76/95
f 164/80/94 133/60/94 134/62/94 165/78/94
f 163/82/93 132/58/93 133/60/93 164/80/93
f 162/83/92 131/56/92 132/58/92 163/82/92
f 161/84/91 130/54/91 131/56/91 162/83/91
f 160/85/90 129/52/90 130/54/90 161/84/90
f 159/86/89 128/50/89 129/52/89 160/85/89
f 158/123/88 127/48/88 128/50/88 159/86/88
f 157/121/87 126/46/87 127/48/87 158/123/87
f 156/119/86 125/44/86 126/46/86 157/121/86
f 155/117/85 124/42/85 125/44/85 156/119/85
f 154/115/84 123/40/84 124/42/84 155/117/84
f 153/113/83 122/38/83 123/40/83 154/115/83
f 152/111/82 121/36/82 122/38/82 153/113/82
f 151/109/81 120/34/81 121/36/81 152/111/81
f 150/107/80 119/32/80 120/34/80 151/109/80
f 149/105/79 118/30/79 119/32/79 150/107/79
f 148/103/78 117/28/78 118/30/78 149/105/78
f 147/101/77 116/26/77 117/28/77 148/103/77
f 146/99/76 115/24/76 116/26/76 147/101/76
f 145/97/75 114/22/75 115/24/75 146/99/75
f 144/95/74 113/20/74 114/22/74 145/97/74
f 143/69/73 112/18/73 113/20/73 144/95/73
f 142/70/72 111/16/72 112/18/72 143/69/72
f 141/71/71 110/14/71 111/16/71 142/70/71
f 140/74/70 109/12/70 110/14/70 141/71/70
f 139/77/69 108/10/69 109/12/69 140/74/69
f 138/79/68 107/8/68 108/10/68 139/77/68
f 137/81/67 106/6/67 107/8/67 138/79/67
f 136/72/66 105/4/66 106/6/66 137/81/66
f 80/95/98 79/69/98 143/69/98 144/95/98
f 40/1/99 41/4/99 105/4/99 104/1/99
f 66/54/100 67/56/100 131/56/100 130/54/100
f 81/97/101 80/95/101 144/95/101 145/97/101
f 65/52/102 66/54/102 130/54/102 129/52/102
f 82/99/103 81/97/103 145/97/103 146/99/103
f 64/50/104 65/52/104 129/52/104 128/50/104
f 83/101/105 82/99/105 146/99/105 147/101/105
f 84/103/106 83/101/106 147/101/106 148/103/106
f 63/48/107 64/50/107 128/50/107 127/48/107
f 85/105/108 84/103/108 148/103/108 149/105/108
f 62/46/109 63/48/109 127/48/109 126/46/109
f 86/107/110 85/105/110 149/105/110 150/107/110
f 61/44/111 62/46/111 126/46/111 125/44/111
f 60/42/112 61/44/112 125/44/112 124/42/112
f 87/109/113 86/107/113 150/107/113 151/109/113
f 59/40/114 60/42/114 124/42/114 123/40/114
f 88/111/115 87/109/115 151/109/115 152/111/115
f 58/38/116 59/40/116 123/40/116 122/38/116
f 89/113/117 88/111/117 152/111/117 153/113/117
f 57/36/118 58/38/118 122/38/118 121/36/118
f 90/115/119 89/113/119 153/113/119 154/115/119
f 56/34/120 57/36/120 121/36/120 120/34/120
f 91/117/121 90/115/121 154/115/121 155/117/121
f 92/119/122 91/117/122 155/117/122 156/119/122
f 55/32/123 56/34/123 120/34/123 119/32/123
f 93/121/124 92/119/124 156/119/124 157/121/124
f 54/30/125 55/32/125 119/32/125 118/30/125
f 94/123/126 93/121/126 157/121/126 158/123/126
f 53/28/127 54/30/127 118/30/127 117/28/127
f 95/86/128 94/123/128 158/123/128 159/86/128
f 52/26/129 53/28/129 117/28/129 116/26/129
f 316/56/194 380/56/194 381/58/194 317/58/194
f 290/4/195 354/4/195 355/6/195 291/6/195
f 328/69/196 392/69/196 391/70/196 327/70/196
f 317/58/197 381/58/197 382/60/197 318/60/197
f 291/6/198 355/6/198 356/8/198 292/8/198
f 327/70/199 391/70/199 390/71/199 326/71/199
f 318/60/200 382/60/200 383/62/200 319/62/200
f 292/8/201 356/8/201 357/10/201 293/10/201
f 321/72/202 385/72/202 416/73/202 352/73/202
f 326/71/203 390/71/203 389/74/203 325/74/203
f 319/62/204 383/62/204 384/66/204 320/66/204
f 293/10/205 357/10/205 358/12/205 294/12/205
f 352/75/206 416/75/206 415/76/206 351/76/206
f 325/74/207 389/74/207 388/77/207 324/77/207
f 320/66/208 384/66/208 353/68/208 289/68/208
f 294/12/209 358/12/209 359/14/209 295/14/209
f 351/76/210 415/76/210 414/78/210 350/78/210
f 324/77/211 388/77/211 387/79/211 323/79/211
f 295/14/212 359/14/212 360/16/212 296/16/212
f 350/78/213 414/78/213 413/80/213 349/80/213
f 323/79/214 387/79/214 386/81/214 322/81/214
f 296/16/215 360/16/215 361/18/215 297/18/215
f 349/80/216 413/80/216 412/82/216 348/82/216
f 322/81/217 386/81/217 385/72/217 321/72/217
f 297/18/218 361/18/218 362/20/218 298/20/218
f 348/82/219 412/82/219 411/83/219 347/83/219
f 298/20/220 362/20/220 363/22/220 299/22/220
f 347/83/221 411/83/221 410/84/221 346/84/221
f 299/22/222 363/22/222 364/24/222 300/24/222
f 346/84/223 410/84/223 409/85/223 345/85/223
f 300/24/224 364/24/224 365/26/224 301/26/224
f 345/85/225 409/85/225 408/86/225 344/86/225
f 416/73/257 385/72/257 354/4/257 353/1/257
f 415/76/256 416/75/256 353/68/256 384/66/256
f 414/78/255 415/76/255 384/66/255 383/62/255
f 413/80/254 414/78/254 383/62/254 382/60/254
f 412/82/253 413/80/253 382/60/253 381/58/253
f 411/83/252 412/82/252 381/58/252 380/56/252
f 410/84/251 411/83/251 380/56/251 379/54/251
f 409/85/250 410/84/250 379/54/250 378/52/250
f 408/86/249 409/85/249 378/52/249 377/50/249
f 407/123/248 408/86/248 377/50/248 376/48/248
f 406/121/247 407/123/247 376/48/247 375/46/247
f 405/119/246 406/121/246 375/46/246 374/44/246
f 404/117/245 405/119/245 374/44/245 373/42/245
f 403/115/244 404/117/244 373/42/244 372/40/244
f 402/113/243 403/115/243 372/40/243 371/38/243
f 401/111/242 402/113/242 371/38/242 370/36/242
f 400/109/241 401/111/241 370/36/241 369/34/241
f 399/107/240 400/109/240 369/34/240 368/32/240
f 398/105/239 399/107/239 368/32/239 367/30/239
f 397/103/238 398/105/238 367/30/238 366/28/238
f 396/101/237 397/103/237 366/28/237 365/26/237
f 395/99/236 396/101/236 365/26/236 364/24/236
f 394/97/235 395/99/235 364/24/235 363/22/235
f 393/95/234 394/97/234 363/22/234 362/20/234
f 392/69/233 393/95/233 362/20/233 361/18/233
f 391/70/232 392/69/232 361/18/232 360/16/232
f 390/71/231 391/70/231 360/16/231 359/14/231
f 389/74/230 390/71/230 359/14/230 358/12/230
f 388/77/229 389/74/229 358/12/229 357/10/229
f 387/79/228 388/77/228 357/10/228 356/8/228
f 386/81/227 387/79/227 356/8/227 355/6/227
f 385/72/226 386/81/226 355/6/226 354/4/226
f 329/95/258 393/95/258 392/69/258 328/69/258
f 289/1/259 353/1/259 354/4/259 290/4/259
f 315/54/260 379/54/260 380/56/260 316/56/260
f 330/97/261 394/97/261 393/95/261 329/95/261
f 314/52/262 378/52/262 379/54/262 315/54/262
f 331/99/263 395/99/263 394/97/263 330/97/263
f 313/50/264 377/50/264 378/52/264 314/52/264
f 332/101/265 396/101/265 395/99/265 331/99/265
f 333/103/266 397/103/266 396/101/266 332/101/266
f 312/48/267 376/48/267 377/50/267 313/50/267
f 334/105/268 398/105/268 397/103/268 333/103/268
f 311/46/269 375/46/269 376/48/269 312/48/269
f 335/107/270 399/107/270 398/105/270 334/105/270
f 310/44/271 374/44/271 375/46/271 311/46/271
f 309/42/272 373/42/272 374/44/272 310/44/272
f 336/109/273 400/109/273 399/107/273 335/107/273
f 308/40/274 372/40/274 373/42/274 309/42/274
f 337/111/275 401/111/275 400/109/275 336/109/275
f 307/38/276 371/38/276 372/40/276 308/40/276
f 338/113/277 402/113/277 401/111/277 337/111/277
f 306/36/278 370/36/278 371/38/278 307/38/278
f 339/115/279 403/115/279 402/113/279 338/113/279
f 305/34/280 369/34/280 370/36/280 306/36/280
f 340/117/281 404/117/281 403/115/281 339/115/281
f 341/119/282 405/119/282 404/117/282 340/117/282
f 304/32/283 368/32/283 369/34/283 305/34/283
f 342/121/284 406/121/284 405/119/284 341/119/284
f 303/30/285 367/30/285 368/32/285 304/32/285
f 343/123/286 407/123/286 406/121/286 342/121/286
f 302/28/287 366/28/287 367/30/287 303/30/287
f 344/86/288 408/86/288 407/123/288 343/123/288
f 301/26/289 365/26/289 366/28/289 302/28/289
