# Blender 5.0.1
# www.blender.org
mtllib RoofTurn.mtl
o Cube
v -5.000000 -0.000000 -5.000000
v -5.000000 0.200000 -5.000000
v 5.000000 -0.000000 5.000000
v 5.000000 0.200000 5.000000
v 5.000000 -0.000000 -5.000000
v 5.000000 0.200000 -5.000000
v -1.909830 -0.000000 -4.510566
v 0.877854 -0.000000 -3.090171
v 4.510564 -0.000000 1.909829
v 5.000000 -0.000000 4.999999
v 3.090171 -0.000000 -0.877853
v -4.957689 0.200000 4.941764
v -1.932074 0.200000 -4.442106
v 0.835543 0.200000 -3.031935
v -5.000000 0.200000 -4.928017
v -4.941764 0.200000 4.957689
v 3.031935 0.200000 -0.835543
v 4.928017 0.200000 4.999999
v 4.442105 0.200000 1.932073
v -5.000000 1.982971 -0.000000
v -5.000000 -0.017317 4.500000
v -5.000000 1.880733 1.388651
v -5.000000 1.599847 2.641370
v -5.000000 1.162357 3.635534
v -5.000000 0.611087 4.273827
v -5.000000 -0.017317 -4.500000
v -5.000000 0.611087 -4.273827
v -5.000000 1.162357 -3.635534
v -5.000000 1.599847 -2.641370
v -5.000000 1.880733 -1.388651
v -5.000000 2.200291 -0.000000
v -5.000000 2.092601 -1.545085
v -5.000000 1.780073 -2.938926
v -5.000000 1.293298 -4.045085
v -5.000000 0.679927 -4.755283
v -5.000000 -0.000000 -5.000000
v -5.000000 2.092601 1.545085
v -5.000000 1.780073 2.938926
v -5.000000 1.293298 4.045085
v -5.000000 0.679927 4.755283
v -5.000000 0.000000 5.000000
v -3.454915 1.982971 0.244717
v -4.845491 -0.017317 4.524472
v -3.884032 1.880733 1.565403
v -4.271143 1.599847 2.756810
v -4.578357 1.162357 3.702316
v -4.775600 0.611087 4.309368
v -2.064338 -0.017317 -4.035038
v -2.134230 0.611087 -3.819934
v -2.331473 1.162357 -3.212881
v -2.638686 1.599847 -2.267375
v -3.025798 1.880733 -1.075969
v -3.454915 2.200291 0.244717
v -2.977458 2.092601 -1.224746
v -2.546737 1.780073 -2.550368
v -2.204915 1.293298 -3.602388
v -1.985452 0.679927 -4.277826
v -1.909830 -0.000000 -4.510566
v -3.932372 2.092601 1.714180
v -4.363093 1.780073 3.039802
v -4.704915 1.293298 4.091822
v -4.924378 0.679927 4.767260
v -5.000000 0.000000 5.000000
v -2.061074 1.982971 0.954914
v -4.706107 -0.017317 4.595491
v -2.877302 1.880733 2.078357
v -3.613632 1.599847 3.091829
v -4.197987 1.162357 3.896124
v -4.573166 0.611087 4.412513
v 0.583960 -0.017317 -2.685662
v 0.451020 0.611087 -2.502684
v 0.075840 1.162357 -1.986295
v -0.508515 1.599847 -1.181999
v -1.244845 1.880733 -0.168528
v -2.061074 2.200291 0.954914
v -1.152895 2.092601 -0.295086
v -0.333616 1.780073 -1.422727
v 0.316569 1.293298 -2.317628
v 0.734013 0.679927 -2.892190
v 0.877854 -0.000000 -3.090171
v -2.969252 2.092601 2.204914
v -3.788531 1.780073 3.332556
v -4.438715 1.293298 4.227458
v -4.856159 0.679927 4.802019
v -5.000000 0.000000 5.000000
v -0.954915 1.982971 2.061073
v -4.595491 -0.017317 4.706107
v -2.078357 1.880733 2.877302
v -3.091829 1.599847 3.613632
v -3.896124 1.162357 4.197987
v -4.412513 0.611087 4.573165
v 2.685661 -0.017317 -0.583961
v 2.502683 0.611087 -0.451020
v 1.986294 1.162357 -0.075840
v 1.181999 1.599847 0.508514
v 0.168527 1.880733 1.244844
v -0.954915 2.200291 2.061073
v 0.295086 2.092601 1.152895
v 1.422726 1.780073 0.333616
v 2.317629 1.293298 -0.316568
v 2.892191 0.679927 -0.734012
v 3.090171 -0.000000 -0.877853
v -2.204915 2.092601 2.969251
v -3.332557 1.780073 3.788531
v -4.227458 1.293298 4.438715
v -4.802020 0.679927 4.856158
v -5.000000 0.000000 5.000000
v -0.244716 1.982971 3.454914
v -4.524472 -0.017317 4.845491
v -1.565403 1.880733 3.884031
v -2.756811 1.599847 4.271142
v -3.702316 1.162357 4.578357
v -4.309368 0.611087 4.775599
v 4.035038 -0.017317 2.064337
v 3.819935 0.611087 2.134229
v 3.212881 1.162357 2.331472
v 2.267376 1.599847 2.638686
v 1.075970 1.880733 3.025797
v -0.244716 2.200290 3.454914
v 1.224747 2.092601 2.977457
v 2.550367 1.780073 2.546736
v 3.602389 1.293298 2.204914
v 4.277826 0.679927 1.985451
v 4.510565 -0.000000 1.909829
v -1.714180 2.092601 3.932371
v -3.039803 1.780074 4.363092
v -4.091823 1.293298 4.704915
v -4.767261 0.679927 4.924377
v -5.000000 0.000000 5.000000
v 0.000002 1.982971 5.000000
v -4.500000 -0.017317 5.000000
v -1.388651 1.880733 4.999999
v -2.641371 1.599847 4.999999
v -3.635534 1.162357 5.000000
v -4.273827 0.611087 5.000000
v 4.500002 -0.017317 4.999999
v 4.273829 0.611087 5.000000
v 3.635534 1.162357 5.000000
v 2.641371 1.599847 5.000000
v 1.388654 1.880733 5.000000
v 0.000002 2.200290 5.000000
v 1.545086 2.092601 5.000000
v 2.938927 1.780073 4.999999
v 4.045086 1.293298 5.000000
v 4.755286 0.679927 5.000000
v 5.000000 -0.000000 4.999999
v -1.545084 2.092601 5.000000
v -2.938927 1.780074 4.999999
v -4.045085 1.293298 5.000000
v -4.755283 0.679927 4.999999
v -5.000000 0.000000 5.000000
vn -1.0000 -0.0000 -0.0000
vn -0.0000 -0.0000 -1.0000
vn 1.0000 -0.0000 -0.0000
vn -0.1474 -0.3350 0.9306
vn -0.4278 -0.3349 0.8395
vn -0.0000 -0.0000 1.0000
vn -0.6663 -0.3350 0.6663
vn -0.0000 -1.0000 -0.0000
vn -0.8395 -0.3349 0.4278
vn -0.0000 1.0000 -0.0000
vn -0.9306 -0.3349 0.1474
vn -0.0167 0.9943 0.1057
vn -0.0450 0.9578 0.2840
vn -0.0796 -0.8609 0.5025
vn -0.1252 -0.5994 0.7906
vn 0.0171 0.9940 -0.1077
vn 0.0024 1.0000 -0.0020
vn -0.0017 1.0000 -0.0026
vn 0.0450 -0.9578 -0.2840
vn 0.0174 -0.9938 -0.1101
vn -0.0177 -0.9935 0.1120
vn -0.0452 -0.9574 0.2852
vn -0.0795 0.8614 0.5017
vn -0.1251 0.6000 0.7901
vn 0.0796 0.8609 -0.5025
vn 0.0452 0.9574 -0.2852
vn -0.0005 -1.0000 0.0033
vn 0.0123 -0.9969 -0.0775
vn -0.0119 -0.9971 0.0754
vn 0.0011 -1.0000 -0.0072
vn 0.0029 1.0000 -0.0011
vn -0.0486 0.9943 0.0954
vn -0.0008 1.0000 -0.0030
vn -0.0515 -0.9935 0.1010
vn -0.1311 -0.9574 0.2573
vn 0.0495 0.9940 -0.0972
vn 0.0506 -0.9938 -0.0993
vn -0.0009 -1.0000 0.0017
vn -0.2306 0.8614 0.4526
vn -0.3632 0.6000 0.7128
vn 0.0033 -1.0000 -0.0065
vn 0.3632 -0.6000 -0.7128
vn -0.1306 0.9578 0.2562
vn 0.2306 -0.8614 -0.4526
vn 0.1251 -0.6000 -0.7901
vn 0.0795 -0.8614 -0.5017
vn 0.1252 0.5994 -0.7906
vn -0.0003 -1.0000 0.0019
vn 0.0031 1.0000 -0.0002
vn -0.0757 0.9943 0.0757
vn 0.0002 1.0000 -0.0031
vn -0.0802 -0.9935 0.0802
vn -0.2042 -0.9574 0.2042
vn 0.0771 0.9940 -0.0771
vn 0.0788 -0.9938 -0.0788
vn -0.0014 -1.0000 0.0014
vn -0.3592 0.8614 0.3592
vn -0.5657 0.6000 0.5657
vn 0.0052 -1.0000 -0.0052
vn 0.5657 -0.6000 -0.5657
vn -0.2034 0.9578 0.2034
vn 0.3592 -0.8614 -0.3592
vn -0.0346 -0.9971 0.0680
vn 0.1311 0.9574 -0.2573
vn -0.0015 -1.0000 0.0030
vn 0.0356 -0.9969 -0.0699
vn 0.1306 -0.9578 -0.2562
vn 0.2310 0.8609 -0.4534
vn -0.2310 -0.8609 0.4534
vn -0.3634 -0.5994 0.7132
vn 0.3634 0.5994 -0.7132
vn -0.7128 0.6000 0.3632
vn -0.0680 -0.9971 0.0346
vn 0.0030 1.0000 0.0008
vn -0.0954 0.9943 0.0486
vn 0.0011 1.0000 -0.0029
vn -0.1010 -0.9935 0.0515
vn -0.2573 -0.9574 0.1311
vn 0.0972 0.9940 -0.0495
vn 0.0993 -0.9938 -0.0506
vn -0.0017 -1.0000 0.0009
vn -0.4526 0.8614 0.2306
vn 0.0065 -1.0000 -0.0033
vn 0.7128 -0.6000 -0.3632
vn -0.2562 0.9578 0.1306
vn 0.4526 -0.8614 -0.2306
vn -0.0540 -0.9971 0.0540
vn 0.2042 0.9574 -0.2042
vn -0.0023 -1.0000 0.0023
vn 0.0555 -0.9969 -0.0555
vn 0.2034 -0.9578 -0.2034
vn 0.3598 0.8609 -0.3598
vn -0.3598 -0.8609 0.3598
vn -0.5660 -0.5994 0.5660
vn 0.5660 0.5994 -0.5660
vn 0.2852 0.9574 -0.0452
vn 0.1077 0.9940 -0.0171
vn -0.7901 0.6000 0.1251
vn -0.0754 -0.9971 0.0119
vn 0.0026 1.0000 0.0017
vn -0.1057 0.9943 0.0167
vn 0.0020 1.0000 -0.0024
vn -0.1120 -0.9935 0.0177
vn -0.2852 -0.9574 0.0452
vn 0.1101 -0.9938 -0.0174
vn -0.0019 -1.0000 0.0003
vn -0.5017 0.8614 0.0795
vn 0.0072 -1.0000 -0.0011
vn 0.7901 -0.6000 -0.1251
vn -0.2840 0.9578 0.0450
vn 0.5017 -0.8614 -0.0795
vn 0.2573 0.9574 -0.1311
vn -0.0030 -1.0000 0.0015
vn 0.0699 -0.9969 -0.0356
vn 0.2562 -0.9578 -0.1306
vn 0.4534 0.8609 -0.2310
vn -0.4534 -0.8609 0.2310
vn -0.7132 -0.5994 0.3634
vn 0.7132 0.5994 -0.3634
vn -0.0033 -1.0000 0.0005
vn 0.0775 -0.9969 -0.0123
vn 0.2840 -0.9578 -0.0450
vn 0.5025 0.8609 -0.0796
vn -0.5025 -0.8609 0.0796
vn -0.7906 -0.5994 0.1252
vn 0.7906 0.5994 -0.1252
vn -0.2833 -0.9590 -0.0000
vt 0.625000 0.248200
vt 0.625000 0.250000
vt 0.375000 0.250000
vt 0.625000 0.500000
vt 0.375000 0.500000
vt 0.625000 0.750000
vt 0.375000 0.750000
vt 0.500000 0.500000
vt 0.511362 0.500600
vt 0.511362 0.500600
vt 0.511362 0.500600
vt 0.000000 0.000000
vt 0.622961 0.663627
vt 0.617042 0.732824
vt 0.568193 0.519285
vt 0.535124 0.513122
vt 0.622961 0.586373
vt 0.625000 0.625000
vt 0.601813 0.714956
vt 0.611669 0.663864
vt 0.611669 0.586136
vt 0.601813 0.535044
vt 0.573473 0.742042
vt 0.538627 0.747961
vt 0.573473 0.507958
vt 0.617042 0.517176
vt 0.499279 0.511604
vt 0.500000 0.750000
vt 0.499279 0.738396
vt 0.614204 0.622974
vt 0.535124 0.736878
vt 0.568193 0.730715
vt 0.614204 0.627026
vt 0.538627 0.502039
s 0
usemtl Material.001
f 15/1/1 2/2/1 1/3/1
f 1/3/2 2/2/2 6/4/2 5/5/2
f 5/5/3 6/4/3 4/6/3 3/7/3
s 1
f 1/8/4 7/8/4 13/9/4 15/10/4
f 13/9/5 7/8/5 8/8/5 14/11/5
f 10/8/6 4/12/6 18/11/6
f 14/11/7 8/8/7 11/8/7 17/11/7
s 0
f 5/5/8 10/8/8 9/8/8 11/8/8 8/8/8 7/8/8 1/8/8
s 1
f 17/11/9 11/8/9 9/8/9 19/11/9
s 0
f 2/2/10 15/10/10 13/9/10 14/11/10 17/11/10 19/11/10 18/11/10 4/6/10 6/4/10
s 1
f 19/11/11 9/8/11 10/8/11 18/11/11
f 37/13/12 38/14/13 60/14/13 59/13/12
f 28/15/14 27/16/15 49/16/15 50/15/14
f 32/17/16 31/18/17 53/18/18 54/17/16
f 23/19/19 22/20/20 44/20/20 45/19/19
f 30/21/21 29/22/22 51/22/22 52/21/21
f 39/23/23 40/24/24 62/24/24 61/23/23
f 34/25/25 33/26/26 55/26/26 56/25/25
f 31/18/17 37/13/12 59/13/12 53/18/18
f 26/27/27 36/8/28 58/8/28 48/27/27
f 41/28/29 21/29/30 43/29/30 63/28/29
f 53/18/31 59/13/32 81/13/32 75/18/33
f 52/21/34 51/22/35 73/22/35 74/21/34
f 54/17/36 53/18/31 75/18/33 76/17/36
f 44/20/37 42/30/38 64/30/38 66/20/37
f 61/23/39 62/24/40 84/24/40 83/23/39
f 43/29/41 47/31/42 69/31/42 65/29/41
f 60/14/43 61/23/39 83/23/39 82/14/43
f 47/31/42 46/32/44 68/32/44 69/31/42
f 42/33/38 52/21/34 74/21/34 64/33/38
f 59/13/32 60/14/43 82/14/43 81/13/32
f 25/31/45 24/32/46 46/32/46 47/31/45
f 27/16/15 26/27/27 48/27/27 49/16/15
f 35/34/47 34/25/25 56/25/25 57/34/47
f 40/24/24 41/28/29 63/28/29 62/24/24
f 33/26/26 32/17/16 54/17/16 55/26/26
f 20/33/48 30/21/21 52/21/21 42/33/48
f 22/20/20 20/30/48 42/30/48 44/20/20
f 38/14/13 39/23/23 61/23/23 60/14/13
f 21/29/30 25/31/45 47/31/45 43/29/30
f 29/22/22 28/15/14 50/15/14 51/22/22
f 24/32/46 23/19/19 45/19/19 46/32/46
f 36/8/28 35/34/47 57/34/47 58/8/28
f 75/18/49 81/13/50 103/13/50 97/18/51
f 74/21/52 73/22/53 95/22/53 96/21/52
f 76/17/54 75/18/49 97/18/51 98/17/54
f 66/20/55 64/30/56 86/30/56 88/20/55
f 83/23/57 84/24/58 106/24/58 105/23/57
f 65/29/59 69/31/60 91/31/60 87/29/59
f 82/14/61 83/23/57 105/23/57 104/14/61
f 69/31/60 68/32/62 90/32/62 91/31/60
f 64/33/56 74/21/52 96/21/52 86/33/56
f 81/13/50 82/14/61 104/14/61 103/13/50
f 62/24/40 63/28/63 85/28/63 84/24/40
f 55/26/64 54/17/36 76/17/36 77/26/64
f 48/27/65 58/8/66 80/8/66 70/27/65
f 45/19/67 44/20/37 66/20/37 67/19/67
f 56/25/68 55/26/64 77/26/64 78/25/68
f 51/22/35 50/15/69 72/15/69 73/22/35
f 49/16/70 48/27/65 70/27/65 71/16/70
f 57/34/71 56/25/68 78/25/68 79/34/71
f 63/28/63 43/29/41 65/29/41 85/28/63
f 46/32/44 45/19/67 67/19/67 68/32/44
f 58/8/66 57/34/71 79/34/71 80/8/66
f 50/15/69 49/16/70 71/16/70 72/15/69
f 106/24/72 107/28/73 129/28/73 128/24/72
f 97/18/74 103/13/75 125/13/75 119/18/76
f 96/21/77 95/22/78 117/22/78 118/21/77
f 98/17/79 97/18/74 119/18/76 120/17/79
f 88/20/80 86/30/81 108/30/81 110/20/80
f 105/23/82 106/24/72 128/24/72 127/23/82
f 87/29/83 91/31/84 113/31/84 109/29/83
f 104/14/85 105/23/82 127/23/82 126/14/85
f 91/31/84 90/32/86 112/32/86 113/31/84
f 86/33/81 96/21/77 118/21/77 108/33/81
f 84/24/58 85/28/87 107/28/87 106/24/58
f 77/26/88 76/17/54 98/17/54 99/26/88
f 70/27/89 80/8/90 102/8/90 92/27/89
f 67/19/91 66/20/55 88/20/55 89/19/91
f 78/25/92 77/26/88 99/26/88 100/25/92
f 73/22/53 72/15/93 94/15/93 95/22/53
f 71/16/94 70/27/89 92/27/89 93/16/94
f 79/34/95 78/25/92 100/25/92 101/34/95
f 85/28/87 65/29/59 87/29/59 107/28/87
f 68/32/62 67/19/91 89/19/91 90/32/62
f 80/8/90 79/34/95 101/34/95 102/8/90
f 72/15/93 71/16/94 93/16/94 94/15/93
f 121/26/96 120/17/97 142/17/97 143/26/96
f 128/24/98 129/28/99 151/28/99 150/24/98
f 119/18/100 125/13/101 147/13/101 141/18/102
f 118/21/103 117/22/104 139/22/104 140/21/103
f 120/17/97 119/18/100 141/18/102 142/17/97
f 110/20/105 108/30/106 130/30/106 132/20/105
f 127/23/107 128/24/98 150/24/98 149/23/107
f 109/29/108 113/31/109 135/31/109 131/29/108
f 126/14/110 127/23/107 149/23/107 148/14/110
f 113/31/109 112/32/111 134/32/111 135/31/109
f 99/26/112 98/17/79 120/17/79 121/26/112
f 92/27/113 102/8/114 124/8/114 114/27/113
f 89/19/115 88/20/80 110/20/80 111/19/115
f 100/25/116 99/26/112 121/26/112 122/25/116
f 95/22/78 94/15/117 116/15/117 117/22/78
f 93/16/118 92/27/113 114/27/113 115/16/118
f 101/34/119 100/25/116 122/25/116 123/34/119
f 107/28/73 87/29/83 109/29/83 129/28/73
f 90/32/86 89/19/115 111/19/115 112/32/86
f 102/8/114 101/34/119 123/34/119 124/8/114
f 94/15/117 93/16/118 115/16/118 116/15/117
f 103/13/75 104/14/85 126/14/85 125/13/75
f 130/33/6 140/21/6 142/17/6 141/18/6
f 140/21/6 139/22/6 143/26/6 142/17/6
f 139/22/6 138/15/6 144/25/6 143/26/6
f 138/15/6 137/16/6 145/34/6 144/25/6
f 137/16/6 136/27/6 146/8/6 145/34/6
f 132/20/6 130/30/6 141/18/6 147/13/6
f 133/19/6 132/20/6 147/13/6 148/14/6
f 134/32/6 133/19/6 148/14/6 149/23/6
f 135/31/6 134/32/6 149/23/6 150/24/6
f 131/29/6 135/31/6 150/24/6 151/28/6
f 114/27/120 124/8/121 146/8/121 136/27/120
f 111/19/122 110/20/105 132/20/105 133/19/122
f 122/25/123 121/26/96 143/26/96 144/25/123
f 117/22/104 116/15/124 138/15/124 139/22/104
f 115/16/125 114/27/120 136/27/120 137/16/125
f 123/34/126 122/25/123 144/25/123 145/34/126
f 129/28/99 109/29/108 131/29/108 151/28/99
f 112/32/111 111/19/122 133/19/122 134/32/111
f 124/8/121 123/34/126 145/34/126 146/8/121
f 116/15/124 115/16/125 137/16/125 138/15/124
f 125/13/101 126/14/110 148/14/110 147/13/101
f 108/33/106 118/21/103 140/21/103 130/33/106
f 151/12/1 40/12/1 25/31/1 21/29/1
f 40/12/1 39/23/1 24/32/1 25/31/1
f 39/23/1 38/14/1 23/19/1 24/32/1
f 38/14/1 37/13/1 22/20/1 23/19/1
f 20/30/1 22/20/1 37/13/1 31/18/127
f 32/17/1 30/21/1 20/33/1 31/18/127
f 32/17/1 33/26/1 29/22/1 30/21/1
f 33/26/1 34/25/1 28/15/1 29/22/1
f 34/25/1 35/34/1 27/16/1 28/15/1
f 35/34/1 36/8/1 26/27/1 27/16/1
l 12 16
