# Blender 5.0.1
# www.blender.org
mtllib RoofEndStart.mtl
o Plane
v -5.000000 1.162357 3.635534
v -5.000000 1.599847 2.641370
v -5.000000 0.611087 4.273827
v -5.000000 0.000000 5.000000
v -5.000000 -0.017317 4.500000
v -5.000000 1.982971 0.000000
v -5.000000 1.880733 1.388651
v -5.000000 1.880733 -1.388651
v -5.000000 1.599847 -2.641370
v -5.000000 1.162357 -3.635534
v -5.000000 0.611087 -4.273827
v -5.000000 -0.017317 -4.500000
v -5.000000 0.000000 -5.000000
v -5.000000 -0.020546 5.000000
v -5.000000 -0.020546 -5.000000
v -5.000000 -0.017317 4.500000
v -5.000000 1.982971 -0.000000
v -5.000000 0.611087 4.273827
v -5.000000 1.162357 3.635534
v -5.000000 1.599847 2.641370
v -5.000000 1.880733 1.388651
v -5.000000 -0.017317 -4.500000
v -5.000000 1.880733 -1.388651
v -5.000000 1.599847 -2.641370
v -5.000000 1.162357 -3.635534
v -5.000000 0.611087 -4.273827
v 5.000000 1.982971 -0.000000
v 5.000000 -0.017317 4.500000
v 5.000000 1.880733 1.388651
v 5.000000 1.599847 2.641370
v 5.000000 1.162357 3.635534
v 5.000000 0.611087 4.273827
v 5.000000 -0.017317 -4.500000
v 5.000000 0.611087 -4.273827
v 5.000000 1.162357 -3.635534
v 5.000000 1.599847 -2.641370
v 5.000000 1.880733 -1.388651
v -5.000000 2.092601 -1.545085
v -5.000000 2.200291 -0.000000
v 5.000000 2.200291 -0.000000
v 5.000000 2.092601 -1.545085
v -5.000000 1.780073 -2.938926
v 5.000000 1.780073 -2.938926
v -5.000000 1.293298 -4.045085
v 5.000000 1.293298 -4.045085
v -5.000000 0.679927 -4.755283
v 5.000000 0.679927 -4.755283
v -5.000000 -0.000000 -5.000000
v 5.000000 -0.000000 -5.000000
v 5.000000 2.092601 1.545085
v -5.000000 2.092601 1.545085
v 5.000000 1.780073 2.938926
v -5.000000 1.780073 2.938926
v 5.000000 1.293298 4.045085
v -5.000000 1.293298 4.045085
v 5.000000 0.679927 4.755283
v -5.000000 0.679927 4.755283
v 5.000000 0.000000 5.000000
v -5.000000 0.000000 5.000000
vn 1.0000 -0.0000 -0.0000
vn 0.0695 0.9976 -0.0000
vn -0.0695 0.9976 -0.0000
vn -0.0000 0.9976 -0.0695
vn -0.0000 0.9758 -0.2188
vn -0.0000 0.9153 -0.4028
vn -0.0000 0.7568 -0.6536
vn -0.0000 0.3386 -0.9409
vn -0.0000 0.9976 0.0695
vn -0.0000 0.9758 0.2188
vn -0.0000 0.9153 0.4028
vn -0.0000 0.7568 0.6536
vn -0.0000 0.3386 0.9409
vn -0.0000 -0.9994 -0.0346
vn -0.0000 -0.3387 0.9409
vn -0.0000 -0.9994 0.0346
vn -1.0000 -0.0000 -0.0000
vn -0.0000 -0.7568 0.6536
vn -0.0000 -0.9153 0.4028
vn -0.0000 -0.9758 0.2188
vn -0.0000 -0.9973 0.0734
vn -0.0000 -0.9973 -0.0734
vn -0.0000 -0.9758 -0.2188
vn -0.0000 -0.9153 -0.4028
vn -0.0000 -0.7568 -0.6536
vn -0.0000 -0.3387 -0.9409
vt 0.502055 1.000000
vt 0.500000 1.000000
vt 0.501732 0.950000
vt 0.438891 0.927383
vt 0.383764 0.863553
vt 0.340015 0.764137
vt 0.311927 0.638865
vt 0.301703 0.500000
vt 0.311927 0.361135
vt 0.340015 0.235863
vt 0.383764 0.136447
vt 0.438891 0.072617
vt 0.501732 0.050000
vt 0.500000 0.000000
vt 0.502055 0.000000
vt 0.875000 0.625000
vt 0.625000 0.625000
vt 0.622961 0.586373
vt 0.875000 0.586373
vt 0.617042 0.517176
vt 0.875000 0.500000
vt 0.613064 0.224237
vt 0.573473 0.507958
vt 0.573473 0.242042
vt 0.538627 0.502039
vt 0.538627 0.247961
vt 0.500000 0.500000
vt 0.500000 0.250000
vt 0.875000 0.663627
vt 0.622961 0.663627
vt 0.875000 0.750000
vt 0.617042 0.732824
vt 0.625000 1.000000
vt 0.573473 1.000000
vt 0.573473 0.742042
vt 0.538627 1.000000
vt 0.538627 0.747961
vt 0.500000 0.750000
vt 0.499279 0.511604
vt 0.499130 0.238531
vt 0.535124 0.513122
vt 0.534927 0.236951
vt 0.499065 0.012681
vt 0.499279 0.738396
vt 0.608327 0.163229
vt 0.612845 0.123618
vt 0.625000 0.125000
vt 0.618882 0.163627
vt 0.614204 0.627026
vt 0.611669 0.586136
vt 0.598599 0.209724
vt 0.601813 0.535044
vt 0.567520 0.229903
vt 0.568193 0.519285
vt 0.611669 0.663864
vt 0.614204 0.622974
vt 0.612867 0.127584
vt 0.606954 0.090638
vt 0.618882 0.086373
vt 0.601813 0.714956
vt 0.590964 0.059226
vt 0.601127 0.051527
vt 0.568193 0.730715
vt 0.566094 0.034326
vt 0.573473 0.023873
vt 0.535124 0.736878
vt 0.534768 0.018342
vt 0.538627 0.006118
s 0
usemtl Material.001
f 15/1/1 13/2/1 12/3/1 11/4/1 10/5/1 9/6/1 8/7/1 6/8/1 7/9/1 2/10/1 1/11/1 3/12/1 5/13/1 4/14/1 14/15/1
s 1
f 39/16/2 40/17/3 41/18/4 38/19/4
f 38/19/5 41/18/5 43/20/5 42/21/5
f 42/22/6 43/20/6 45/23/6 44/24/6
f 44/24/7 45/23/7 47/25/7 46/26/7
f 46/26/8 47/25/8 49/27/8 48/28/8
f 40/17/3 39/16/2 51/29/9 50/30/9
f 50/30/10 51/29/10 53/31/10 52/32/10
f 52/32/11 53/33/11 55/34/11 54/35/11
f 54/35/12 55/34/12 57/36/12 56/37/12
f 56/37/13 57/36/13 59/2/13 58/38/13
f 48/28/14 49/27/14 33/39/14 22/40/14
f 33/39/15 34/41/15 26/42/15 22/40/15
f 59/14/16 16/43/16 28/44/16 58/38/16
f 23/45/17 17/46/17 39/47/17 38/48/17
f 27/49/1 37/50/1 41/18/1 40/17/1
f 24/51/17 23/45/17 38/48/17 42/22/17
f 37/50/1 36/52/1 43/20/1 41/18/1
f 25/53/17 24/51/17 42/22/17 44/24/17
f 36/52/1 35/54/1 45/23/1 43/20/1
f 26/42/17 25/53/17 44/24/17 46/26/17
f 35/54/1 34/41/1 47/25/1 45/23/1
f 22/40/17 26/42/17 46/26/17 48/28/17
f 34/41/1 33/39/1 49/27/1 47/25/1
f 29/55/1 27/56/1 40/17/1 50/30/1
f 17/57/17 21/58/17 51/59/17 39/47/17
f 30/60/1 29/55/1 50/30/1 52/32/1
f 21/58/17 20/61/17 53/62/17 51/59/17
f 31/63/1 30/60/1 52/32/1 54/35/1
f 20/61/17 19/64/17 55/65/17 53/62/17
f 32/66/1 31/63/1 54/35/1 56/37/1
f 19/64/17 18/67/17 57/68/17 55/65/17
f 28/44/1 32/66/1 56/37/1 58/38/1
f 18/67/17 16/43/17 59/14/17 57/68/17
f 34/41/18 35/54/18 25/53/18 26/42/18
f 35/54/19 36/52/19 24/51/19 25/53/19
f 36/52/20 37/50/20 23/45/20 24/51/20
f 37/50/21 27/49/21 17/46/21 23/45/21
f 27/56/22 29/55/22 21/58/22 17/57/22
f 29/55/23 30/60/23 20/61/23 21/58/23
f 30/60/24 31/63/24 19/64/24 20/61/24
f 31/63/25 32/66/25 18/67/25 19/64/25
f 32/66/26 28/44/26 16/43/26 18/67/26
l 4 13
