# Blender 5.0.1
# www.blender.org
mtllib RoofFork.mtl
o Cube.067
v -4.500000 -0.017317 -5.000000
v -4.273827 0.611087 -5.000000
v -3.635534 1.162357 -5.000000
v -2.641370 1.599847 -5.000000
v -1.388651 1.880733 -5.000000
v -4.500000 -0.017317 5.000000
v -1.388651 1.880733 5.000000
v -2.641370 1.599847 5.000000
v -3.635534 1.162357 5.000000
v -4.273827 0.611087 5.000000
v 0.000000 2.200291 5.000000
v -1.545085 2.092601 5.000000
v -1.545085 2.092601 -5.000000
v -2.938926 1.780073 5.000000
v -2.938926 1.780073 -5.000000
v -4.045085 1.293298 5.000000
v -4.045085 1.293298 -5.000000
v -4.755283 0.679927 5.000000
v -4.755283 0.679927 -5.000000
v -5.000000 0.000000 5.000000
v -5.000000 0.000000 -5.000000
v 5.000001 -0.017317 4.499999
v 5.000000 1.880733 1.388649
v 5.000001 1.599847 2.641368
v 5.000001 1.162357 3.635532
v 5.000001 0.611087 4.273826
v 5.000000 2.092601 1.545083
v 5.000001 1.780073 2.938924
v 5.000001 1.293298 4.045084
v 5.000001 0.679927 4.755281
v 5.000001 0.000000 4.999999
v 3.454915 1.982971 0.244716
v 4.845492 -0.017317 4.524471
v 3.884032 1.880733 1.565402
v 4.271144 1.599847 2.756808
v 4.578358 1.162357 3.702315
v 4.775601 0.611087 4.309367
v 3.454915 2.200291 0.244716
v 3.932373 2.092601 1.714179
v 4.363094 1.780073 3.039800
v 4.704916 1.293298 4.091821
v 4.924379 0.679927 4.767259
v 2.061074 1.982971 0.954913
v 4.706109 -0.017317 4.595490
v 2.877303 1.880733 2.078356
v 3.613633 1.599847 3.091828
v 4.197989 1.162357 3.896122
v 4.573167 0.611087 4.412511
v 2.061074 2.200291 0.954913
v 2.969253 2.092601 2.204913
v 3.788532 1.780073 3.332555
v 4.438716 1.293298 4.227457
v 4.856161 0.679927 4.802018
v 0.954916 1.982971 2.061073
v 4.595492 -0.017317 4.706106
v 2.078358 1.880733 2.877301
v 3.091830 1.599847 3.613631
v 3.896126 1.162357 4.197986
v 4.412514 0.611087 4.573164
v 0.954916 2.200291 2.061073
v 2.204916 2.092601 2.969250
v 3.332558 1.780073 3.788530
v 4.227459 1.293298 4.438714
v 4.802022 0.679927 4.856156
v 0.244717 1.982971 3.454914
v 4.524474 -0.017317 4.845490
v 1.565404 1.880733 3.884030
v 2.756812 1.599847 4.271141
v 3.702318 1.162357 4.578356
v 4.309370 0.611087 4.775598
v 0.244717 2.200290 3.454914
v 1.714181 2.092601 3.932370
v 3.039804 1.780074 4.363091
v 4.091825 1.293298 4.704914
v 4.767262 0.679927 4.924376
v 4.500001 -0.017317 4.999999
v 1.388653 1.880733 4.999999
v 2.641373 1.599847 4.999998
v 3.635536 1.162357 4.999999
v 4.273829 0.611087 4.999999
v 1.545086 2.092602 5.000000
v 2.938929 1.780074 4.999998
v 4.045086 1.293298 4.999999
v 4.755284 0.679927 4.999998
v 5.000000 1.982971 -0.000002
v 4.999999 -0.017317 -4.500001
v 5.000000 1.880733 -1.388653
v 4.999999 1.599847 -2.641372
v 4.999999 1.162357 -3.635535
v 4.999999 0.611087 -4.273829
v 5.000000 2.200291 -0.000002
v 5.000000 2.092601 -1.545086
v 4.999999 1.780073 -2.938928
v 4.999999 1.293298 -4.045086
v 4.999999 0.679927 -4.755284
v 4.999999 0.000000 -5.000001
v 3.454915 1.982971 -0.244718
v 4.845490 -0.017317 -4.524474
v 3.884032 1.880733 -1.565404
v 4.271142 1.599847 -2.756811
v 4.578356 1.162357 -3.702317
v 4.775599 0.611087 -4.309370
v 3.454915 2.200291 -0.244718
v 3.932372 2.092601 -1.714181
v 4.363092 1.780073 -3.039804
v 4.704914 1.293298 -4.091824
v 4.924376 0.679927 -4.767262
v 2.061074 1.982971 -0.954915
v 4.706106 -0.017317 -4.595492
v 2.877301 1.880733 -2.078358
v 3.613631 1.599847 -3.091830
v 4.197986 1.162357 -3.896125
v 4.573164 0.611087 -4.412514
v 2.061074 2.200291 -0.954914
v 2.969251 2.092601 -2.204915
v 3.788530 1.780073 -3.332557
v 4.438714 1.293298 -4.227459
v 4.856158 0.679927 -4.802021
v 0.954914 1.982971 -2.061073
v 4.595490 -0.017317 -4.706109
v 2.078356 1.880733 -2.877303
v 3.091828 1.599847 -3.613633
v 3.896122 1.162357 -4.197989
v 4.412511 0.611087 -4.573166
v 0.954914 2.200291 -2.061073
v 2.204914 2.092601 -2.969252
v 3.332556 1.780073 -3.788532
v 4.227457 1.293298 -4.438716
v 4.802019 0.679927 -4.856159
v 0.244715 1.982971 -3.454914
v 4.524471 -0.017317 -4.845492
v 1.565402 1.880733 -3.884032
v 2.756809 1.599847 -4.271142
v 3.702315 1.162357 -4.578358
v 4.309367 0.611087 -4.775600
v 0.244715 2.200290 -3.454914
v 1.714179 2.092601 -3.932371
v 3.039801 1.780074 -4.363092
v 4.091822 1.293298 -4.704916
v 4.767260 0.679927 -4.924378
v 4.499999 -0.017317 -5.000001
v 1.388649 1.880733 -4.999999
v 2.641369 1.599847 -5.000000
v 3.635532 1.162357 -5.000001
v 4.273826 0.611087 -5.000001
v 1.545082 2.092601 -5.000000
v 2.938925 1.780074 -5.000000
v 4.045084 1.293298 -5.000001
v 4.755281 0.679927 -5.000000
v 3.375402 2.182357 -0.000001
v 1.367288 2.118023 -0.000000
v 3.375402 1.964027 -0.000001
v 1.367288 1.896070 -0.000000
v 1.076317 1.880733 -0.000000
v 0.857809 2.092601 -0.000000
v 0.000000 1.987725 1.076317
v 0.000000 1.980576 -0.000000
v 0.000000 2.092601 0.857809
v 0.000000 2.118023 1.367287
v 0.000000 1.992392 1.367286
v 0.000000 2.182356 3.375401
v -0.000000 1.983566 3.375400
v 0.000000 1.982971 5.000000
v -0.000000 1.987725 -1.076316
v -0.000000 2.092601 -0.857808
v 0.000000 2.118023 -1.367287
v -0.000000 1.992392 -1.367286
v 0.000000 2.182356 -3.375401
v -0.000000 1.983566 -3.375401
v 0.000000 2.200290 -4.999992
v 0.000000 1.982971 -4.999992
vn -0.0695 0.9976 -0.0000
vn -0.2188 0.9758 -0.0000
vn -0.4028 0.9153 -0.0000
vn -0.6536 0.7568 -0.0000
vn -0.9409 0.3387 -0.0000
vn -0.0346 -0.9994 -0.0000
vn -0.0000 -0.0000 1.0000
vn -0.0000 -0.0000 -1.0000
vn 0.0734 -0.9973 -0.0000
vn 0.2188 -0.9758 -0.0000
vn 0.4028 -0.9153 -0.0000
vn 0.6536 -0.7568 -0.0000
vn 0.9409 -0.3386 -0.0000
vn 1.0000 -0.0000 -0.0000
vn 0.0057 0.9907 0.1359
vn 0.0278 0.9880 0.1518
vn 0.0568 0.9456 0.3203
vn 0.0450 0.9456 0.3222
vn 0.0240 0.9997 0.0110
vn -0.0110 0.9999 -0.0000
vn -0.0011 1.0000 -0.0070
vn -0.0450 -0.9456 -0.3222
vn -0.0568 -0.9456 -0.3203
vn -0.0277 -0.9879 -0.1529
vn -0.0072 -0.9904 -0.1382
vn 0.0795 0.8370 0.5415
vn 0.0917 0.8370 0.5395
vn 0.1314 0.5603 0.8178
vn 0.5664 0.4759 0.6729
vn 0.9737 -0.2121 0.0835
vn 0.0055 -0.9994 0.0346
vn 0.8007 -0.5988 0.0207
vn -0.0060 0.9999 -0.0106
vn -0.0011 1.0000 -0.0074
vn 0.0854 0.9856 0.1461
vn 0.0680 0.9856 0.1550
vn -0.0320 0.9975 -0.0627
vn -0.0686 -0.9856 -0.1547
vn -0.0848 -0.9856 -0.1464
vn 0.0055 -1.0000 0.0048
vn 0.0040 -0.9999 0.0092
vn 0.2429 0.8370 0.4904
vn 0.2539 0.8370 0.4848
vn 0.3777 0.5603 0.7372
vn 0.3568 0.5755 0.7358
vn 0.0389 -0.8008 -0.5976
vn -0.4181 -0.5699 -0.7074
vn -0.3852 -0.5470 -0.7432
vn -0.3749 -0.5470 -0.7485
vn 0.1424 0.9456 0.2925
vn 0.1530 0.9456 0.2871
vn -0.2539 -0.8370 -0.4848
vn -0.2429 -0.8370 -0.4904
vn 0.0338 -0.9994 -0.0000
vn -0.1252 -0.5470 -0.8277
vn -0.1366 -0.5470 -0.8259
vn -0.0917 -0.8370 -0.5395
vn -0.0795 -0.8370 -0.5414
vn 0.0116 -0.9972 0.0734
vn -0.0698 -0.9952 -0.0681
vn 0.0012 -1.0000 0.0073
vn 0.8790 -0.1615 -0.4487
vn -0.9746 -0.1614 -0.1551
vn -0.0056 1.0000 -0.0058
vn -0.0039 1.0000 -0.0051
vn 0.1264 0.9856 0.1126
vn 0.1126 0.9856 0.1264
vn -0.0210 -0.9991 0.0379
vn -0.0211 -0.9991 0.0379
vn -0.0909 -0.9958 0.0081
vn -0.0498 0.9975 -0.0498
vn -0.0692 0.9952 -0.0692
vn -0.0693 0.9952 -0.0693
vn -0.1131 -0.9856 -0.1260
vn -0.1260 -0.9856 -0.1131
vn -0.0227 -0.9997 0.0012
vn -0.0217 -0.9998 0.0037
vn 0.3826 0.8370 0.3913
vn 0.3913 0.8370 0.3826
vn 0.5870 0.5603 0.5844
vn 0.5668 0.5755 0.5896
vn -0.1477 -0.8008 -0.5804
vn -0.6162 -0.5699 -0.5436
vn -0.5960 -0.5470 -0.5879
vn -0.5879 -0.5470 -0.5960
vn 0.2257 0.9456 0.2341
vn 0.2341 0.9456 0.2257
vn -0.3913 -0.8370 -0.3826
vn -0.3826 -0.8370 -0.3913
vn 0.0024 -0.9989 0.0478
vn 0.4278 0.3349 0.8395
vn -0.1424 -0.9456 -0.2925
vn -0.1530 -0.9456 -0.2870
vn 0.0159 -0.9994 0.0312
vn 0.8395 0.3349 0.4278
vn 0.7212 0.5755 0.3856
vn 0.7389 0.5603 0.3744
vn -0.0084 1.0000 -0.0044
vn -0.0106 0.9999 -0.0060
vn 0.1550 0.9856 0.0680
vn 0.1461 0.9856 0.0854
vn -0.0627 0.9975 -0.0320
vn -0.1464 -0.9856 -0.0848
vn -0.1547 -0.9856 -0.0686
vn -0.0324 -0.9993 -0.0200
vn -0.0291 -0.9995 -0.0133
vn 0.4848 0.8370 0.2539
vn 0.4904 0.8370 0.2429
vn -0.3198 -0.8008 -0.5063
vn -0.7541 -0.5699 -0.3266
vn -0.7485 -0.5470 -0.3749
vn -0.7432 -0.5470 -0.3852
vn 0.2871 0.9456 0.1530
vn 0.2925 0.9456 0.1424
vn -0.4904 -0.8370 -0.2429
vn -0.4848 -0.8370 -0.2539
vn -0.0059 -1.0000 -0.0038
vn 0.6663 0.3350 0.6663
vn -0.1267 0.9838 -0.1267
vn -0.2258 -0.9456 -0.2341
vn -0.2341 -0.9456 -0.2258
vn 0.0248 -0.9994 0.0248
vn 0.9306 0.3350 0.1474
vn 0.8051 0.5755 0.1438
vn 0.8184 0.5603 0.1277
vn 0.0666 0.9977 0.0105
vn 0.1530 0.9880 0.0205
vn 0.1311 0.9907 0.0365
vn -0.0070 1.0000 -0.0011
vn -0.0695 0.9975 -0.0110
vn -0.1337 -0.9904 -0.0358
vn -0.1539 -0.9879 -0.0209
vn -0.0737 -0.9972 -0.0117
vn -0.0343 -0.9994 -0.0054
vn 0.5395 0.8370 0.0917
vn 0.5415 0.8370 0.0795
vn -0.4606 -0.8008 -0.3827
vn -0.8181 -0.5699 -0.0776
vn -0.8277 -0.5470 -0.1252
vn -0.8259 -0.5470 -0.1366
vn 0.3203 0.9456 0.0568
vn 0.3222 0.9456 0.0450
vn -0.5414 -0.8370 -0.0795
vn -0.5395 -0.8370 -0.0917
vn -0.2870 -0.9456 -0.1530
vn -0.2925 -0.9456 -0.1424
vn 0.0312 -0.9994 0.0159
vn -0.3203 -0.9456 -0.0568
vn -0.3222 -0.9456 -0.0450
vn 0.0346 -0.9994 0.0055
vn -0.0023 -1.0000 -0.0004
vn 0.6415 -0.1065 0.7597
vn 0.0057 0.9904 -0.1384
vn 0.0450 0.9578 -0.2840
vn 0.0180 0.9924 -0.1217
vn -0.0011 1.0000 0.0070
vn -0.0450 -0.9578 0.2840
vn -0.0072 -0.9901 0.1404
vn -0.0186 -0.9920 0.1249
vn 0.0795 0.8614 -0.5017
vn 0.5814 0.4617 -0.6699
vn 0.1257 0.5869 -0.7999
vn 0.9737 -0.2121 -0.0835
vn 0.8007 -0.5988 -0.0207
vn 0.0055 -0.9994 -0.0346
vn -0.0029 1.0000 0.0011
vn 0.0486 0.9942 -0.0954
vn -0.0014 1.0000 0.0079
vn -0.0320 0.9975 0.0627
vn -0.0506 -0.9938 0.0993
vn 0.0024 -1.0000 -0.0041
vn 0.0057 -1.0000 -0.0052
vn 0.2306 0.8614 -0.4526
vn 0.3572 0.5739 -0.7369
vn 0.3667 0.5868 -0.7219
vn 0.0236 -0.7630 0.6459
vn -0.3632 -0.6000 0.7128
vn -0.1186 -0.9458 0.3023
vn 0.1306 0.9578 -0.2562
vn -0.2306 -0.8614 0.4526
vn -0.1251 -0.6000 0.7901
vn -0.0795 -0.8614 0.5017
vn 0.0116 -0.9972 -0.0734
vn 0.0012 -1.0000 -0.0073
vn 0.0003 -1.0000 -0.0017
vn -0.0012 -1.0000 0.0075
vn -0.0011 -1.0000 0.0075
vn -0.0044 1.0000 0.0041
vn 0.0757 0.9943 -0.0757
vn -0.0052 1.0000 0.0059
vn -0.0210 -0.9991 -0.0379
vn -0.0909 -0.9958 -0.0081
vn -0.0211 -0.9991 -0.0379
vn -0.0498 0.9975 0.0498
vn -0.0692 0.9952 0.0692
vn -0.0693 0.9952 0.0693
vn -0.0788 -0.9938 0.0788
vn -0.0232 -0.9997 -0.0016
vn -0.0210 -0.9998 -0.0025
vn 0.3592 0.8614 -0.3592
vn 0.5674 0.5739 -0.5905
vn 0.5718 0.5869 -0.5732
vn -0.1772 -0.7631 0.6216
vn -0.5657 -0.6000 0.5657
vn -0.2062 -0.9458 0.2509
vn 0.2034 0.9577 -0.2034
vn -0.3592 -0.8614 0.3592
vn 0.0024 -0.9989 -0.0478
vn 0.4278 0.3349 -0.8395
vn -0.1306 -0.9578 0.2562
vn 0.0159 -0.9994 -0.0312
vn 0.8395 0.3349 -0.4278
vn 0.7210 0.5868 -0.3685
vn 0.7221 0.5739 -0.3862
vn -0.0045 1.0000 0.0015
vn 0.0954 0.9942 -0.0486
vn -0.0058 1.0000 0.0056
vn -0.0627 0.9975 0.0320
vn -0.0993 -0.9938 0.0506
vn -0.0354 -0.9992 0.0188
vn -0.0320 -0.9993 0.0199
vn 0.4526 0.8614 -0.2306
vn -0.3605 -0.7630 0.5365
vn -0.7128 -0.6000 0.3632
vn -0.2736 -0.9458 0.1749
vn 0.2562 0.9578 -0.1306
vn -0.4526 -0.8614 0.2306
vn -0.0059 -1.0000 0.0038
vn 0.6663 0.3350 -0.6663
vn -0.1267 0.9838 0.1267
vn -0.2034 -0.9577 0.2034
vn 0.0248 -0.9994 -0.0248
vn 0.9306 0.3350 -0.1474
vn 0.7996 0.5869 -0.1276
vn 0.8061 0.5739 -0.1442
vn -0.0070 1.0000 0.0011
vn 0.1334 0.9904 -0.0373
vn 0.1213 0.9924 -0.0205
vn 0.0625 0.9980 -0.0099
vn -0.0695 0.9975 0.0110
vn -0.0780 -0.9969 0.0123
vn -0.1246 -0.9920 0.0209
vn -0.1358 -0.9901 0.0365
vn -0.0343 -0.9994 0.0054
vn 0.5017 0.8614 -0.0795
vn -0.5087 -0.7630 0.3988
vn -0.7901 -0.6000 0.1251
vn -0.3143 -0.9458 0.0818
vn 0.2840 0.9578 -0.0450
vn -0.5017 -0.8614 0.0795
vn -0.2562 -0.9578 0.1306
vn 0.0312 -0.9994 -0.0159
vn -0.2840 -0.9578 0.0450
vn 0.0346 -0.9994 -0.0055
vn -0.0023 -1.0000 0.0004
vn -1.0000 -0.0000 -0.0000
vt 0.875000 0.663627
vt 0.622961 0.663627
vt 0.625000 0.625000
vt 0.875000 0.625000
vt 0.875000 0.750000
vt 0.617042 0.732824
vt 0.625000 1.000000
vt 0.573473 1.000000
vt 0.573473 0.742042
vt 0.538627 1.000000
vt 0.538627 0.747961
vt 0.500000 1.000000
vt 0.500000 0.750000
vt 0.500000 0.000000
vt 0.499065 0.012681
vt 0.499279 0.738396
vt 0.611669 0.663864
vt 0.614204 0.622974
vt 0.612867 0.127584
vt 0.606954 0.090638
vt 0.618882 0.086373
vt 0.625000 0.125000
vt 0.601813 0.714956
vt 0.590964 0.059226
vt 0.601127 0.051527
vt 0.568193 0.730715
vt 0.566094 0.034326
vt 0.573473 0.023873
vt 0.535124 0.736878
vt 0.534768 0.018342
vt 0.538627 0.006118
vt 0.409502 0.271812
vt 0.399584 0.271812
vt 0.399584 0.728188
vt 0.409502 0.728188
vt 0.624660 0.618567
vt 0.623442 0.595492
vt 0.612049 0.592270
vt 0.613734 0.619449
vt 0.614204 0.627026
vt 0.611669 0.586136
vt 0.611669 0.586136
vt 0.605606 0.554709
vt 0.623442 0.595492
vt 0.622961 0.586373
vt 0.613734 0.619449
vt 0.620353 0.555885
vt 0.000000 0.000000
vt 0.624660 0.618567
vt 0.613734 0.619449
vt 0.614204 0.622974
vt 0.625000 0.625000
vt 0.614204 0.627026
vt 0.000000 0.500000
vt 0.000000 0.539148
vt 0.000000 0.562400
vt 0.000000 0.654045
vt 0.000000 0.728188
vt 0.000000 0.728187
vt 0.000000 0.549121
vt 0.000000 0.271812
vt 0.000000 0.345955
vt 0.000000 0.437600
vt 0.000000 0.460852
vt 0.000000 0.450880
vt 0.000000 0.437600
vt 0.000000 0.271812
s 1
usemtl Material.005
f 13/1/1 12/2/1 11/3/1 170/4/1
f 12/2/2 13/1/2 15/5/2 14/6/2
f 14/6/3 15/7/3 17/8/3 16/9/3
f 16/9/4 17/8/4 19/10/4 18/11/4
f 18/11/5 19/10/5 21/12/5 20/13/5
f 21/14/6 1/15/6 6/16/6 20/13/6
f 7/17/7 163/18/7 11/3/7 12/2/7
f 171/19/8 5/20/8 13/21/8 170/22/8
f 8/23/7 7/17/7 12/2/7 14/6/7
f 5/20/8 4/24/8 15/25/8 13/21/8
f 9/26/7 8/23/7 14/6/7 16/9/7
f 4/24/8 3/27/8 17/28/8 15/25/8
f 10/29/7 9/26/7 16/9/7 18/11/7
f 3/27/8 2/30/8 19/31/8 17/28/8
f 6/16/7 10/29/7 18/11/7 20/13/7
f 2/30/8 1/15/8 21/14/8 19/31/8
f 5/20/9 171/19/9 163/18/9 7/17/9
f 7/17/10 8/23/10 4/24/10 5/20/10
f 8/23/11 9/26/11 3/27/11 4/24/11
f 9/26/12 10/29/12 2/30/12 3/27/12
f 10/29/13 6/16/13 1/15/13 2/30/13
s 0
f 171/32/14 170/33/14 11/34/14 163/35/14
s 1
usemtl Material.004
f 27/2/15 39/2/16 40/6/17 28/6/18
f 91/3/19 150/36/20 38/3/21
f 24/23/22 35/23/23 34/17/24 23/17/25
f 29/9/26 41/9/27 42/11/28 30/11/29
f 91/3/19 38/3/21 39/2/16 27/2/15
f 31/13/30 33/16/31 22/16/32
f 38/3/33 49/3/34 50/2/35 39/2/36
f 38/3/33 150/36/37 151/37/37 49/3/34
f 34/17/38 45/17/39 43/18/40 32/18/41
f 41/9/42 52/9/43 53/11/44 42/11/45
f 33/16/46 44/16/47 48/29/48 37/29/49
f 40/6/50 51/6/51 52/9/43 41/9/42
f 37/29/49 48/29/48 47/26/52 36/26/53
f 153/38/54 152/39/54 32/40/41 43/40/40
f 39/2/36 50/2/35 51/6/51 40/6/50
f 26/29/55 37/29/56 36/26/57 25/26/58
f 30/11/29 42/11/28 31/13/30
f 152/39/59 85/40/60 32/40/61
f 23/17/25 34/17/24 32/18/61 85/18/60
f 28/6/18 40/6/17 41/9/27 29/9/26
f 22/16/62 33/16/63 37/29/56 26/29/55
f 25/26/58 36/26/57 35/23/23 24/23/22
f 49/3/64 60/3/65 61/2/66 50/2/67
f 154/41/68 156/42/69 157/43/70
f 159/44/71 60/3/65 49/3/64 151/37/71 155/45/72 158/45/73
f 45/17/74 56/17/75 54/18/76 43/18/77
f 52/9/78 63/9/79 64/11/80 53/11/81
f 44/16/82 55/16/83 59/29/84 48/29/85
f 51/6/86 62/6/87 63/9/79 52/9/78
f 48/29/85 59/29/84 58/26/88 47/26/89
f 153/38/90 43/40/77 54/40/76 160/38/90 156/42/69 154/41/68
f 50/2/67 61/2/66 62/6/87 51/6/86
f 42/11/45 53/11/44 31/13/91
f 35/23/92 46/23/93 45/17/39 34/17/38
f 31/13/94 44/16/47 33/16/46
f 36/26/53 47/26/52 46/23/93 35/23/92
f 31/13/95 64/11/96 75/11/97
f 60/3/98 71/3/99 72/2/100 61/2/101
f 71/3/99 60/3/98 159/44/102 161/36/102
f 56/17/103 67/17/104 65/18/105 54/18/106
f 63/9/107 74/9/108 75/11/97 64/11/96
f 55/16/109 66/16/110 70/29/111 59/29/112
f 62/6/113 73/6/114 74/9/108 63/9/107
f 59/29/112 70/29/111 69/26/115 58/26/116
f 54/40/106 65/40/105 162/46/117 160/38/117
f 53/11/81 64/11/80 31/13/118
f 155/45/72 157/47/119 158/45/73
f 46/23/120 57/23/121 56/17/75 45/17/74
f 31/13/122 55/16/83 44/16/82
f 47/26/89 58/26/88 57/23/121 46/23/120
f 31/13/123 75/11/124 84/11/125
f 11/3/126 81/2/127 72/2/128 71/3/129
f 71/3/129 161/36/130 11/3/126
f 67/17/131 77/17/132 163/18/133 65/18/134
f 74/9/135 83/9/136 84/11/125 75/11/124
f 66/16/137 76/16/138 80/29/139 70/29/140
f 73/6/141 82/6/142 83/9/136 74/9/135
f 70/29/140 80/29/139 79/26/143 69/26/144
f 57/23/145 68/23/146 67/17/104 56/17/103
f 31/13/147 66/16/110 55/16/109
f 58/26/116 69/26/115 68/23/146 57/23/145
f 61/2/101 72/2/100 73/6/114 62/6/113
f 77/17/7 81/2/7 11/3/7 163/18/7
f 78/23/7 82/6/7 81/2/7 77/17/7
f 79/26/7 83/9/7 82/6/7 78/23/7
f 80/29/7 84/11/7 83/9/7 79/26/7
f 76/16/7 31/13/7 84/11/7 80/29/7
f 68/23/148 78/23/149 77/17/132 67/17/131
f 31/13/150 76/16/138 66/16/137
f 69/26/144 79/26/143 78/23/149 68/23/148
f 72/2/128 81/2/127 82/6/142 73/6/141
f 65/40/134 163/40/133 162/46/151
f 31/48/30 22/16/32 26/29/14 30/48/29
f 30/48/14 26/29/14 25/26/14 29/9/14
f 29/9/14 25/26/14 24/23/14 28/6/14
f 28/6/14 24/23/14 23/17/14 27/2/14
f 23/17/14 85/18/14 91/3/152 27/2/14
s 0
f 157/54/256 165/55/256 166/56/256 168/57/256 170/58/256 171/59/256 169/57/256 167/56/256 164/60/256
f 11/61/256 161/62/256 159/63/256 158/64/256 157/54/256 156/65/256 160/66/256 162/62/256 163/67/256
s 1
usemtl Material.002
f 92/2/153 93/6/154 105/6/154 104/2/155
f 91/3/19 103/3/156 150/36/20
f 88/23/157 87/17/158 99/17/159 100/23/157
f 94/9/160 95/11/161 107/11/162 106/9/160
f 91/3/19 92/2/153 104/2/155 103/3/156
f 96/13/163 86/16/164 98/16/165
f 103/3/166 104/2/167 115/2/167 114/3/168
f 103/3/166 114/3/168 151/37/169 150/36/169
f 99/17/170 97/18/171 108/18/172 110/17/170
f 106/9/173 107/11/174 118/11/175 117/9/173
f 98/16/176 102/29/177 113/29/177 109/16/178
f 105/6/179 106/9/173 117/9/173 116/6/179
f 102/29/177 101/26/180 112/26/180 113/29/177
f 153/38/54 108/40/172 97/40/171 152/39/54
f 104/2/167 105/6/179 116/6/179 115/2/167
f 90/29/181 89/26/182 101/26/182 102/29/181
f 95/11/161 96/13/163 107/11/162
f 152/39/183 97/40/184 85/40/185
f 87/17/158 85/18/185 97/18/184 99/17/159
f 93/6/154 94/9/160 106/9/160 105/6/154
f 86/16/186 90/29/181 102/29/181 98/16/187
f 89/26/182 88/23/157 100/23/157 101/26/182
f 114/3/188 115/2/189 126/2/189 125/3/190
f 154/41/191 157/43/192 164/42/193
f 151/37/194 114/3/188 125/3/190 166/37/194 165/45/195 155/45/196
f 110/17/197 108/18/198 119/18/199 121/17/197
f 117/9/200 118/11/201 129/11/202 128/9/200
f 109/16/203 113/29/204 124/29/204 120/16/205
f 116/6/206 117/9/200 128/9/200 127/6/206
f 113/29/204 112/26/207 123/26/207 124/29/204
f 167/38/208 119/40/199 108/40/198 153/38/208 154/41/191 164/42/193
f 115/2/189 116/6/206 127/6/206 126/2/189
f 107/11/174 96/13/209 118/11/175
f 100/23/210 99/17/170 110/17/170 111/23/210
f 96/13/211 98/16/176 109/16/178
f 101/26/180 100/23/210 111/23/210 112/26/180
f 96/13/212 140/11/213 129/11/214
f 125/3/215 126/2/216 137/2/216 136/3/217
f 166/37/218 125/3/215 136/3/217 168/49/218
f 121/17/219 119/18/220 130/18/221 132/17/219
f 128/9/222 129/11/214 140/11/213 139/9/222
f 120/16/223 124/29/224 135/29/224 131/16/225
f 127/6/226 128/9/222 139/9/222 138/6/226
f 124/29/224 123/26/227 134/26/227 135/29/224
f 169/50/228 130/40/221 119/40/220 167/38/228
f 118/11/201 96/13/229 129/11/202
f 155/45/196 165/45/195 157/47/230
f 111/23/231 110/17/197 121/17/197 122/23/231
f 96/13/232 109/16/203 120/16/205
f 112/26/207 111/23/231 122/23/231 123/26/207
f 96/13/233 149/11/234 140/11/235
f 136/3/236 137/2/237 146/2/238 170/3/239
f 136/3/236 170/3/239 168/49/240
f 171/51/241 142/17/242 132/17/243 130/18/244
f 139/9/245 140/11/235 149/11/234 148/9/245
f 131/16/246 135/29/247 145/29/247 141/16/248
f 138/6/249 139/9/245 148/9/245 147/6/249
f 135/29/247 134/26/250 144/26/250 145/29/247
f 122/23/251 121/17/219 132/17/219 133/23/251
f 96/13/252 120/16/223 131/16/225
f 123/26/227 122/23/251 133/23/251 134/26/227
f 126/2/216 127/6/226 138/6/226 137/2/216
f 146/2/8 142/17/8 171/51/8 170/52/8
f 143/23/8 142/17/8 146/2/8 147/6/8
f 144/26/8 143/23/8 147/6/8 148/9/8
f 145/29/8 144/26/8 148/9/8 149/11/8
f 141/16/8 145/29/8 149/11/8 96/13/8
f 133/23/253 132/17/243 142/17/242 143/23/253
f 96/13/254 131/16/246 141/16/248
f 134/26/250 133/23/253 143/23/253 144/26/250
f 137/2/237 138/6/249 147/6/249 146/2/238
f 130/40/244 169/50/255 171/53/241
f 96/48/163 95/48/161 90/29/14 86/16/164
f 95/48/14 94/9/14 89/26/14 90/29/14
f 94/9/14 93/6/14 88/23/14 89/26/14
f 93/6/14 92/2/14 87/17/14 88/23/14
f 87/17/14 92/2/14 91/3/152 85/18/14
