# Blender 5.0.1
# www.blender.org
mtllib StaffNoGem.mtl
o Cylinder
v 0.000000 -4.411267 -1.340557
v 0.000000 -2.411267 -0.369824
v 0.781831 -4.411267 -0.623490
v 0.781831 -2.411267 0.006686
v 0.974928 -4.411267 0.222521
v 0.974928 -2.411267 0.852697
v 0.433884 -4.411267 0.560412
v 0.433884 -2.411267 1.531144
v -0.433884 -4.411267 0.560412
v -0.433884 -2.411267 1.531144
v -0.974928 -4.411267 -0.118036
v -0.974928 -2.411267 0.852697
v -0.781831 -4.411267 -0.964046
v -0.781831 -2.411267 0.006686
v 0.000000 0.030944 -1.184399
v 0.781831 0.030944 -0.807889
v 0.974928 0.030944 0.038122
v 0.433884 0.030944 0.716570
v -0.433884 0.030944 0.716570
v -0.974928 0.030944 0.038122
v -0.781831 0.030944 -0.807889
v 0.000000 2.566740 -3.233861
v 0.781831 2.566740 -2.857351
v 0.974928 2.566740 -2.011340
v 0.433884 2.566740 -1.332892
v -0.433884 2.566740 -1.332892
v -0.974928 2.566740 -2.011340
v -0.781831 2.566740 -2.857351
v 0.000000 4.248115 -2.876539
v 0.781831 4.248115 -2.500029
v 0.974928 4.248115 -1.654018
v 0.433884 4.248115 -0.975570
v -0.433884 4.248115 -0.975570
v -0.974928 4.248115 -1.654018
v -0.781831 4.248115 -2.500029
v -0.000001 6.014101 -1.122052
v 0.602352 5.878508 -0.865616
v 0.751121 5.573830 -0.108434
v 0.334280 5.329496 0.353647
v -0.334282 5.329496 0.353647
v -0.751123 5.573830 -0.108434
v -0.602354 5.878508 -0.865616
v -0.602354 6.003942 1.109620
v -0.751123 5.581887 0.980453
v -0.334282 5.347102 0.912372
v 0.334280 5.347102 0.912372
v 0.751121 5.581887 0.980453
v 0.602352 6.003942 1.109620
v -0.000001 6.133730 1.149383
v -0.602354 4.675976 2.307173
v -0.751123 4.549381 2.024561
v -0.334282 4.417634 1.818643
v 0.334280 4.417634 1.818643
v 0.751121 4.549381 2.024561
v 0.602352 4.675976 2.307173
v -0.000001 4.747402 2.422605
v 0.000000 -6.762386 -1.246476
v 0.781831 -6.762386 -0.869966
v 0.974928 -6.762386 -0.023955
v 0.433884 -6.762386 0.654493
v -0.433884 -6.762386 0.654493
v -0.974928 -6.762386 0.222521
v -0.781831 -6.762386 -0.623490
v 0.000000 -9.104237 -1.182564
v 0.781831 -9.104237 -0.806054
v 0.974928 -9.104237 0.039957
v 0.433884 -9.104237 0.718405
v -0.433884 -9.104237 0.718405
v -0.974928 -9.104237 0.222521
v -0.781831 -9.104237 -0.623490
v 0.000000 -11.659017 -0.997742
v 0.781831 -11.659017 -0.621231
v 0.974928 -11.659017 0.224779
v 0.433884 -11.659017 0.903227
v -0.433884 -11.659017 0.903227
v -0.974928 -11.659017 0.224779
v -0.781831 -11.659017 -0.621231
v 0.000000 -13.885135 -1.000000
v 0.781832 -13.885135 -0.623490
v 0.974928 -13.885135 0.222521
v 0.433884 -13.885135 0.900969
v -0.433883 -13.885135 0.900969
v -0.974927 -13.885135 0.222521
v -0.781831 -13.885135 -0.623490
v 0.000000 -16.588631 -1.000000
v 0.781832 -16.588631 -0.623490
v 0.974928 -16.588631 0.222521
v 0.433884 -16.588631 0.900969
v -0.433883 -16.588631 0.900969
v -0.974927 -16.588631 0.222521
v -0.781831 -16.588631 -0.623490
vn 0.5446 0.3116 -0.7787
vn 0.9725 0.0699 -0.2220
vn 0.6572 -0.2801 0.6997
vn -0.0000 -0.4367 0.8996
vn -0.7483 -0.2896 0.5968
vn 0.4155 -0.2878 -0.8629
vn -0.9693 0.1074 -0.2212
vn -0.3975 0.4007 -0.8255
vn -0.9744 -0.0322 -0.2224
vn -0.0000 0.6286 0.7777
vn 0.7655 0.2036 0.6104
vn -0.9723 -0.0740 -0.2219
vn -0.0000 0.3164 0.9486
vn -0.4155 -0.2878 -0.8629
vn 0.9723 -0.0740 -0.2219
vn -0.7655 0.2036 0.6104
vn 0.4261 0.1881 -0.8849
vn 0.9595 -0.1770 -0.2190
vn -0.3507 -0.5886 -0.7283
vn -0.6982 0.4500 0.5568
vn 0.6982 0.4500 0.5568
vn 0.3507 -0.5886 -0.7283
vn -0.9595 -0.1770 -0.2190
vn -0.3627 0.6678 -0.6500
vn -0.9738 0.0472 -0.2223
vn -0.0000 -0.2079 0.9782
vn 0.9738 0.0472 -0.2223
vn -0.4261 0.1881 -0.8849
vn -0.7751 -0.1314 0.6181
vn 0.7751 -0.1314 0.6181
vn 0.2244 0.9729 -0.0561
vn -0.7149 -0.4945 0.4944
vn 0.7149 -0.4945 0.4944
vn 0.3627 0.6678 -0.6500
vn -0.9464 0.2874 -0.1472
vn -0.0000 -0.7757 0.6311
vn 0.9464 0.2874 -0.1472
vn -0.9301 0.3670 -0.0160
vn -0.0000 -0.9995 0.0315
vn -0.5030 -0.8642 0.0135
vn 0.9301 0.3670 -0.0160
vn -0.2244 0.9729 -0.0561
vn 0.5030 -0.8642 0.0135
vn -0.2034 0.6591 0.7240
vn 0.4772 -0.6195 -0.6232
vn -0.0000 -0.6981 -0.7160
vn 0.9154 0.2773 0.2920
vn -0.9154 0.2773 0.2920
vn 0.2034 0.6591 0.7240
vn -0.4772 -0.6195 -0.6232
vn -0.0000 -0.8839 0.4676
vn -0.6030 -0.0109 -0.7977
vn -0.0000 0.0400 0.9992
vn -0.5370 -0.0776 -0.8400
vn 0.9747 0.0233 -0.2225
vn -0.7147 0.0644 0.6965
vn 0.5729 0.0265 -0.8192
vn 0.6844 -0.0236 0.7287
vn -0.9749 -0.0002 -0.2225
vn -0.6509 0.0104 0.7591
vn 0.7817 0.0170 0.6234
vn 0.4338 -0.0246 -0.9007
vn -0.9749 -0.0000 -0.2225
vn -0.0000 0.0273 0.9996
vn 0.9749 -0.0061 -0.2225
vn -0.7818 -0.0006 0.6235
vn -0.0000 0.0722 0.9974
vn 0.9748 -0.0161 -0.2225
vn -0.5132 -0.0314 -0.8577
vn -0.7352 0.0248 0.6774
vn 0.7810 0.0451 0.6229
vn 0.4330 -0.0650 -0.8991
vn 0.9749 -0.0000 -0.2225
vn 0.7818 -0.0006 0.6235
vn 0.4339 0.0009 -0.9010
vn -0.9749 0.0002 -0.2225
vn -0.0000 -0.0010 1.0000
vn 0.9749 0.0002 -0.2225
vn -0.4339 0.0009 -0.9010
vn -0.0000 -1.0000 -0.0000
vn -0.4339 -0.0000 -0.9010
vn -0.7818 -0.0000 0.6235
vn 0.7818 -0.0000 0.6235
vn 0.4339 -0.0000 -0.9010
vn -0.0000 -0.0000 1.0000
vt 1.000000 0.500000
vt 1.000000 1.000000
vt 0.857143 1.000000
vt 0.857143 0.500000
vt 0.714286 1.000000
vt 0.714286 0.500000
vt 0.571429 1.000000
vt 0.571429 0.500000
vt 0.428571 1.000000
vt 0.428571 0.500000
vt 0.285714 1.000000
vt 0.285714 0.500000
vt 0.142857 1.000000
vt 0.142857 0.500000
vt 0.000000 1.000000
vt 0.000000 0.500000
vt 0.750000 0.490000
vt 0.937640 0.399638
vt 0.983983 0.196595
vt 0.854132 0.033767
vt 0.645868 0.033767
vt 0.516017 0.196595
vt 0.562360 0.399638
s 0
usemtl Material.001
f 1/1/1 2/2/1 4/3/1 3/4/1
f 3/4/2 4/3/2 6/5/2 5/6/2
f 5/6/3 6/5/3 8/7/3 7/8/3
f 7/8/4 8/7/4 10/9/4 9/10/4
f 9/10/5 10/9/5 12/11/5 11/12/5
f 4/3/6 2/2/6 15/2/6 16/3/6
f 11/12/7 12/11/7 14/13/7 13/14/7
f 13/14/8 14/13/8 2/15/8 1/16/8
f 11/12/9 13/14/9 63/14/9 62/12/9
f 19/9/10 18/7/10 25/7/10 26/9/10
f 8/7/11 6/5/11 17/5/11 18/7/11
f 14/13/12 12/11/12 20/11/12 21/13/12
f 10/9/13 8/7/13 18/7/13 19/9/13
f 2/15/14 14/13/14 21/13/14 15/15/14
f 6/5/15 4/3/15 16/3/15 17/5/15
f 12/11/16 10/9/16 19/9/16 20/11/16
f 23/3/17 22/2/17 29/2/17 30/3/17
f 17/5/18 16/3/18 23/3/18 24/5/18
f 15/15/19 21/13/19 28/13/19 22/15/19
f 20/11/20 19/9/20 26/9/20 27/11/20
f 18/7/21 17/5/21 24/5/21 25/7/21
f 16/3/22 15/2/22 22/2/22 23/3/22
f 21/13/23 20/11/23 27/11/23 28/13/23
f 29/15/24 35/13/24 42/13/24 36/15/24
f 28/13/25 27/11/25 34/11/25 35/13/25
f 26/9/26 25/7/26 32/7/26 33/9/26
f 24/5/27 23/3/27 30/3/27 31/5/27
f 22/15/28 28/13/28 35/13/28 29/15/28
f 27/11/29 26/9/29 33/9/29 34/11/29
f 25/7/30 24/5/30 31/5/30 32/7/30
f 37/3/31 36/2/31 49/2/31 48/3/31
f 34/11/32 33/9/32 40/9/32 41/11/32
f 32/7/33 31/5/33 38/5/33 39/7/33
f 30/3/34 29/2/34 36/2/34 37/3/34
f 35/13/35 34/11/35 41/11/35 42/13/35
f 33/9/36 32/7/36 39/7/36 40/9/36
f 31/5/37 30/3/37 37/3/37 38/5/37
f 42/13/38 41/11/38 44/11/38 43/13/38
f 40/9/39 39/7/39 46/7/39 45/9/39
f 41/11/40 40/9/40 45/9/40 44/11/40
f 38/5/41 37/3/41 48/3/41 47/5/41
f 36/15/42 42/13/42 43/13/42 49/15/42
f 39/7/43 38/5/43 47/5/43 46/7/43
f 49/15/44 43/13/44 50/13/44 56/15/44
f 46/7/45 47/5/45 54/5/45 53/7/45
f 45/9/46 46/7/46 53/7/46 52/9/46
f 47/5/47 48/3/47 55/3/47 54/5/47
f 43/13/48 44/11/48 51/11/48 50/13/48
f 48/3/49 49/2/49 56/2/49 55/3/49
f 44/11/50 45/9/50 52/9/50 51/11/50
f 55/3/51 56/15/51 50/13/51 51/11/51 52/9/51 53/7/51 54/5/51
f 63/14/52 57/16/52 64/16/52 70/14/52
f 7/8/53 9/10/53 61/10/53 60/8/53
f 13/14/54 1/16/54 57/16/54 63/14/54
f 3/4/55 5/6/55 59/6/55 58/4/55
f 9/10/56 11/12/56 62/12/56 61/10/56
f 1/1/57 3/4/57 58/4/57 57/1/57
f 5/6/58 7/8/58 60/8/58 59/6/58
f 69/12/59 70/14/59 77/14/59 76/12/59
f 61/10/60 62/12/60 69/12/60 68/10/60
f 59/6/61 60/8/61 67/8/61 66/6/61
f 57/1/62 58/4/62 65/4/62 64/1/62
f 62/12/63 63/14/63 70/14/63 69/12/63
f 60/8/64 61/10/64 68/10/64 67/8/64
f 58/4/65 59/6/65 66/6/65 65/4/65
f 75/10/66 76/12/66 83/12/66 82/10/66
f 67/8/67 68/10/67 75/10/67 74/8/67
f 65/4/68 66/6/68 73/6/68 72/4/68
f 70/14/69 64/16/69 71/16/69 77/14/69
f 68/10/70 69/12/70 76/12/70 75/10/70
f 66/6/71 67/8/71 74/8/71 73/6/71
f 64/1/72 65/4/72 72/4/72 71/1/72
f 79/4/73 80/6/73 87/6/73 86/4/73
f 73/6/74 74/8/74 81/8/74 80/6/74
f 71/1/75 72/4/75 79/4/75 78/1/75
f 76/12/76 77/14/76 84/14/76 83/12/76
f 74/8/77 75/10/77 82/10/77 81/8/77
f 72/4/78 73/6/78 80/6/78 79/4/78
f 77/14/79 71/16/79 78/16/79 84/14/79
f 85/17/80 86/18/80 87/19/80 88/20/80 89/21/80 90/22/80 91/23/80
f 84/14/81 78/16/81 85/16/81 91/14/81
f 82/10/82 83/12/82 90/12/82 89/10/82
f 80/6/83 81/8/83 88/8/83 87/6/83
f 78/1/84 79/4/84 86/4/84 85/1/84
f 83/12/63 84/14/63 91/14/63 90/12/63
f 81/8/85 82/10/85 89/10/85 88/8/85
o Torus.001
v 1.121639 -8.553307 0.048369
v 1.114815 -8.368474 0.055104
v 0.867078 -8.368474 -0.151300
v 0.743210 -8.584980 -0.168082
v 0.867078 -8.801486 -0.151300
v 1.114815 -8.801486 0.055104
v 0.818141 -8.553307 -0.961147
v 0.813163 -8.368474 -0.966955
v 0.632460 -8.368474 -0.873440
v 0.542109 -8.584980 -0.787059
v 0.632460 -8.801486 -0.873440
v 0.813163 -8.801486 -0.966955
v -0.101434 -8.553307 -1.271629
v -0.100817 -8.368474 -1.275548
v -0.078413 -8.368474 -1.140255
v -0.067211 -8.584980 -1.015758
v -0.078413 -8.801486 -1.140255
v -0.100817 -8.801486 -1.275548
v -0.771181 -8.553307 -0.751255
v -0.765434 -8.368474 -0.757931
v -0.730240 -8.368474 -0.750828
v -0.625920 -8.584980 -0.681963
v -0.730240 -8.801486 -0.750828
v -0.765434 -8.801486 -0.757931
v -1.076497 -8.553307 0.226286
v -1.069947 -8.368474 0.231938
v -0.832181 -8.368474 0.001594
v -0.713298 -8.584980 -0.037030
v -0.832181 -8.801486 0.001594
v -1.069947 -8.801486 0.231938
v -0.397742 -8.553307 0.864936
v -0.395323 -8.368474 0.866703
v -0.307473 -8.368474 0.550423
v -0.263548 -8.584980 0.433394
v -0.307473 -8.801486 0.550423
v -0.395323 -8.801486 0.866703
v 0.580519 -8.553307 0.785756
v 0.576987 -8.368474 0.788004
v 0.448768 -8.368474 0.482379
v 0.384658 -8.584980 0.375071
v 0.448768 -8.801486 0.482379
v 0.576987 -8.801486 0.788004
v 1.133077 -6.525741 -0.147453
v 1.095616 -6.300792 -0.150223
v 0.958569 -6.300792 -0.159555
v 0.829132 -6.525741 -0.170192
v 0.958569 -6.750689 -0.159555
v 1.095616 -6.750689 -0.150223
v 0.798064 -6.525741 -0.986415
v 0.772301 -6.300792 -0.961795
v 0.675645 -6.300792 -0.895980
v 0.586625 -6.525741 -0.801414
v 0.675645 -6.750689 -0.895980
v 0.772301 -6.750689 -0.961795
v -0.118714 -6.525741 -1.310641
v -0.113380 -6.300792 -1.327427
v -0.076517 -6.300792 -1.133935
v -0.058085 -6.525741 -1.005376
v -0.076517 -6.750689 -1.133935
v -0.113380 -6.750689 -1.304160
v -0.858364 -6.525741 -0.785738
v -0.825949 -6.300792 -0.768622
v -0.731522 -6.300792 -0.694234
v -0.619518 -6.525741 -0.628489
v -0.731522 -6.750689 -0.694234
v -0.825949 -6.750689 -0.768622
v -1.087844 -6.525741 0.176513
v -1.052757 -6.300792 0.164387
v -0.796139 -6.300792 0.092019
v -0.674904 -6.525741 0.045442
v -0.796139 -6.750689 0.092019
v -1.052757 -6.750689 0.164387
v -0.311394 -6.525741 0.787438
v -0.300057 -6.300792 0.755201
v -0.221710 -6.300792 0.632759
v -0.182536 -6.525741 0.508934
v -0.221710 -6.750689 0.632759
v -0.300057 -6.750689 0.755201
v 0.640310 -6.525741 0.664734
v 0.619361 -6.300792 0.636661
v 0.559209 -6.300792 0.520799
v 0.486822 -6.525741 0.412968
v 0.559209 -6.750689 0.520799
v 0.619361 -6.750689 0.636661
v 1.071662 -7.052719 -0.157983
v 1.098763 -6.860161 -0.246137
v 0.931047 -6.892844 -0.261345
v 0.824209 -7.118085 -0.188397
v 0.974607 -7.310643 -0.100242
v 1.006040 -7.277960 -0.085035
v 0.794858 -7.468573 -1.011940
v 0.779717 -7.234430 -1.037542
v 0.662736 -7.183942 -0.943723
v 0.594228 -7.367598 -0.773293
v 0.706295 -7.601741 -0.782620
v 0.782170 -7.652229 -0.841510
v -0.100817 -7.698067 -1.275548
v -0.113554 -7.371504 -1.289038
v -0.081492 -7.341975 -1.152336
v -0.043681 -7.503055 -0.765258
v -0.037932 -7.759774 -0.804387
v -0.069995 -7.855414 -1.043749
v -0.825483 -7.560002 -0.732685
v -0.809662 -7.242143 -0.628875
v -0.609160 -7.422455 -0.403336
v -0.697658 -7.665741 -0.382145
v -0.918214 -7.734515 -0.500866
v -1.162324 -7.166729 0.222576
v -1.062621 -6.962770 0.207982
v -0.819655 -6.972651 0.005047
v -0.676392 -7.186491 0.039938
v -0.776095 -7.390450 0.352995
v -1.019061 -7.380569 0.444314
v -0.340156 -6.642307 0.732104
v -0.257738 -6.723402 0.499510
v -0.194749 -6.972849 0.463764
v -0.214179 -7.141201 0.660612
v -0.296597 -7.060106 0.893206
v 0.661589 -6.596642 0.579676
v 0.521397 -6.687884 0.380955
v 0.473081 -6.942405 0.362145
v 0.564957 -7.105683 0.542057
v 0.705149 -7.014441 0.740778
v 1.121639 -7.946247 0.048369
v 1.114815 -7.698067 0.055104
v 0.867078 -7.698067 -0.151300
v 0.743210 -7.914573 -0.168082
v 0.867078 -8.131080 -0.151300
v 1.114815 -8.131080 0.055104
v 0.818141 -7.946247 -0.961147
v 0.813163 -7.698067 -0.966955
v 0.632460 -7.698067 -0.873440
v 0.542109 -7.914573 -0.787059
v 0.632460 -8.131080 -0.873440
v 0.813163 -8.131080 -0.966955
v -0.101434 -7.946247 -1.271629
v -0.078413 -7.698067 -1.140255
v -0.067211 -7.914573 -1.015758
v -0.078413 -8.131080 -1.140255
v -0.100817 -8.131080 -1.275548
v -0.795619 -7.946247 -0.805659
v -0.789872 -7.698067 -0.812335
v -0.730240 -7.698067 -0.563982
v -0.625920 -7.914573 -0.495117
v -0.730240 -8.131080 -0.750828
v -0.789872 -8.131080 -0.812335
v -1.076497 -7.946247 0.226286
v -1.069947 -7.698067 0.231938
v -0.832181 -7.698067 0.188440
v -0.713298 -7.914573 0.149816
v -0.832181 -8.131080 0.001594
v -1.069947 -8.131080 0.231938
v -0.397742 -7.946247 0.864936
v -0.395323 -7.698067 0.866703
v -0.307473 -7.698067 0.550423
v -0.263548 -7.914573 0.433394
v -0.307473 -8.131080 0.550423
v -0.395323 -8.131080 0.866703
v 0.580519 -7.946247 0.785756
v 0.576987 -7.698067 0.788004
v 0.448768 -7.698067 0.482379
v 0.384658 -7.914573 0.375071
v 0.448768 -8.131080 0.482379
v 0.576987 -8.131080 0.788004
vn 0.9579 0.0313 -0.2853
vn -0.0000 1.0000 -0.0000
vn -0.8437 0.4615 0.2741
vn -0.8437 -0.4615 0.2741
vn -0.0000 -1.0000 -0.0000
vn 0.9581 -0.0233 -0.2854
vn 0.3198 -0.0212 -0.9472
vn -0.3117 0.4615 0.8306
vn -0.3117 -0.4615 0.8306
vn 0.3199 0.0158 -0.9473
vn -0.6140 -0.0121 -0.7893
vn 0.4550 0.4615 0.7616
vn 0.4550 -0.4615 0.7616
vn -0.6140 0.0090 -0.7893
vn -0.9547 0.0309 -0.2959
vn 0.8791 0.4615 0.1191
vn 0.8791 -0.4615 0.1191
vn -0.9549 -0.0230 -0.2960
vn -0.6853 0.0020 0.7283
vn 0.6412 0.4615 -0.6131
vn 0.6412 -0.4615 -0.6131
vn -0.6853 -0.0015 0.7283
vn 0.0807 -0.0106 0.9967
vn -0.0795 0.4615 -0.8836
vn -0.0795 -0.4615 -0.8836
vn 0.0807 0.0079 0.9967
vn 0.8062 0.0082 0.5916
vn -0.7404 0.4615 -0.4887
vn -0.7404 -0.4615 -0.4887
vn 0.8062 -0.0061 0.5916
vn 0.9188 0.1469 -0.3665
vn -0.8281 0.4615 0.3182
vn -0.8281 -0.4615 0.3182
vn 0.9188 -0.1469 -0.3665
vn 0.3573 0.0325 -0.9334
vn -0.2676 0.4615 0.8458
vn -0.2676 -0.4615 0.8458
vn 0.3457 -0.0803 -0.9349
vn -0.5973 0.0507 -0.8004
vn 0.4945 0.4615 0.7366
vn 0.4945 -0.4615 0.7366
vn -0.5873 -0.0915 -0.8042
vn -0.9617 0.1469 -0.2315
vn 0.8842 0.4615 0.0727
vn 0.8842 -0.4615 0.0727
vn -0.9617 -0.1469 -0.2315
vn -0.6118 0.1399 0.7785
vn 0.6081 0.4615 -0.6460
vn 0.6081 -0.4615 -0.6460
vn -0.6118 -0.1399 0.7785
vn 0.1267 0.1345 0.9828
vn -0.1259 0.4615 -0.8782
vn -0.1259 -0.4615 -0.8782
vn 0.1267 -0.1345 0.9828
vn 0.8462 0.1450 0.5128
vn -0.7651 0.4615 -0.4491
vn -0.7651 -0.4615 -0.4491
vn 0.8462 -0.1450 0.5128
vn 0.9501 -0.1049 -0.2937
vn -0.0514 0.9177 -0.3939
vn -0.8745 0.4623 0.1466
vn -0.7852 -0.3948 0.4771
vn 0.0178 -0.9098 0.4146
vn 0.9478 -0.2762 -0.1591
vn 0.2862 -0.0525 -0.9567
vn -0.0700 0.9341 -0.3500
vn -0.2487 0.8299 0.4995
vn 0.0104 -0.0958 0.9954
vn 0.1361 -0.8816 0.4519
vn 0.3401 -0.7097 -0.6170
vn -0.6300 0.1107 -0.7687
vn -0.0152 0.9781 -0.2077
vn 0.3571 0.8681 0.3448
vn 0.5235 -0.1169 0.8440
vn 0.0968 -0.9287 0.3581
vn -0.4907 -0.6762 -0.5495
vn -0.8832 0.2620 -0.3890
vn -0.2809 0.8816 -0.3792
vn 0.8009 0.5621 -0.2064
vn 0.9470 -0.2349 0.2190
vn -0.9579 -0.2620 -0.1176
vn -0.6078 0.2085 0.7662
vn -0.1630 0.9343 -0.3170
vn 0.5721 0.2561 -0.7792
vn 0.5858 -0.7136 -0.3842
vn 0.1570 -0.8984 0.4101
vn -0.6031 0.3301 0.7261
vn 0.1270 0.2886 0.9490
vn -0.0968 0.9287 -0.3581
vn -0.1542 0.1019 -0.9828
vn -0.0648 -0.7552 -0.6523
vn 0.1185 0.4020 0.9079
vn 0.8797 0.0229 0.4749
vn -0.1192 0.9239 -0.3636
vn -0.7980 0.1937 -0.5707
vn -0.7086 -0.6634 -0.2402
vn 0.1835 -0.9073 0.3783
vn 0.9150 0.1702 0.3659
vn 0.9581 0.0233 -0.2854
vn 0.9579 -0.0313 -0.2853
vn 0.3199 -0.0158 -0.9473
vn 0.3198 0.0212 -0.9472
vn -0.5576 -0.0106 -0.8301
vn 0.5982 0.4544 0.6601
vn 0.4551 -0.6530 0.6054
vn -0.5576 0.0142 -0.8300
vn -0.9651 0.0234 -0.2608
vn 0.8361 -0.5367 0.1133
vn -0.9649 -0.0314 -0.2607
vn -0.6853 0.0015 0.7283
vn 0.4925 0.4524 -0.7435
vn 0.6382 -0.1861 -0.7471
vn -0.6853 -0.0020 0.7283
vn 0.0807 -0.0079 0.9967
vn 0.0807 0.0106 0.9967
vn 0.8062 0.0061 0.5916
vn 0.8062 -0.0082 0.5916
vt 0.571429 0.500000
vt 0.714286 0.500000
vt 0.714286 0.666667
vt 0.571429 0.666667
vt 0.714286 0.833333
vt 0.571429 0.833333
vt 0.714286 1.000000
vt 0.571429 1.000000
vt 0.571429 -0.000000
vt 0.714286 -0.000000
vt 0.714286 0.166667
vt 0.571429 0.166667
vt 0.714286 0.333333
vt 0.571429 0.333333
vt 0.857143 0.500000
vt 0.857143 0.666667
vt 0.857143 0.833333
vt 0.857143 1.000000
vt 0.857143 -0.000000
vt 0.857143 0.166667
vt 0.857143 0.333333
vt 1.000000 0.500000
vt 1.000000 0.666667
vt 1.000000 0.833333
vt 1.000000 1.000000
vt 1.000000 -0.000000
vt 1.000000 0.166667
vt 1.000000 0.333333
vt -0.000000 0.500000
vt 0.142857 0.500000
vt 0.142857 0.666667
vt -0.000000 0.666667
vt 0.142857 0.833333
vt -0.000000 0.833333
vt 0.142857 1.000000
vt -0.000000 1.000000
vt -0.000000 -0.000000
vt 0.142857 -0.000000
vt 0.142857 0.166667
vt -0.000000 0.166667
vt 0.142857 0.333333
vt -0.000000 0.333333
vt 0.285714 0.500000
vt 0.285714 0.666667
vt 0.285714 0.833333
vt 0.285714 1.000000
vt 0.285714 -0.000000
vt 0.285714 0.166667
vt 0.285714 0.333333
vt 0.428571 0.500000
vt 0.428571 0.666667
vt 0.428571 0.833333
vt 0.428571 1.000000
vt 0.428571 -0.000000
vt 0.428571 0.166667
vt 0.428571 0.333333
vt 0.859724 0.722601
s 0
usemtl Material.002
f 92/24/86 98/25/86 99/26/86 93/27/86
f 93/27/87 99/26/87 100/28/87 94/29/87
f 94/29/88 100/28/88 101/30/88 95/31/88
f 95/32/89 101/33/89 102/34/89 96/35/89
f 96/35/90 102/34/90 103/36/90 97/37/90
f 97/37/91 103/36/91 98/25/91 92/24/91
f 98/25/92 104/38/92 105/39/92 99/26/92
f 99/26/87 105/39/87 106/40/87 100/28/87
f 100/28/93 106/40/93 107/41/93 101/30/93
f 101/33/94 107/42/94 108/43/94 102/34/94
f 102/34/90 108/43/90 109/44/90 103/36/90
f 103/36/95 109/44/95 104/38/95 98/25/95
f 104/38/96 110/45/96 111/46/96 105/39/96
f 105/39/87 111/46/87 112/47/87 106/40/87
f 106/40/97 112/47/97 113/48/97 107/41/97
f 107/42/98 113/49/98 114/50/98 108/43/98
f 108/43/90 114/50/90 115/51/90 109/44/90
f 109/44/99 115/51/99 110/45/99 104/38/99
f 110/52/100 116/53/100 117/54/100 111/55/100
f 111/55/87 117/54/87 118/56/87 112/57/87
f 112/57/101 118/56/101 119/58/101 113/59/101
f 113/60/102 119/61/102 120/62/102 114/63/102
f 114/63/90 120/62/90 121/64/90 115/65/90
f 115/65/103 121/64/103 116/53/103 110/52/103
f 116/53/104 122/66/104 123/67/104 117/54/104
f 117/54/87 123/67/87 124/68/87 118/56/87
f 118/56/105 124/68/105 125/69/105 119/58/105
f 119/61/106 125/70/106 126/71/106 120/62/106
f 120/62/90 126/71/90 127/72/90 121/64/90
f 121/64/107 127/72/107 122/66/107 116/53/107
f 122/66/108 128/73/108 129/74/108 123/67/108
f 123/67/87 129/74/87 130/75/87 124/68/87
f 124/68/109 130/75/109 131/76/109 125/69/109
f 125/70/110 131/77/110 132/78/110 126/71/110
f 126/71/90 132/78/90 133/79/90 127/72/90
f 127/72/111 133/79/111 128/73/111 122/66/111
f 128/73/112 92/24/112 93/27/112 129/74/112
f 129/74/87 93/27/87 94/29/87 130/75/87
f 130/75/113 94/29/113 95/31/113 131/76/113
f 131/77/114 95/32/114 96/35/114 132/78/114
f 132/78/90 96/35/90 97/37/90 133/79/90
f 133/79/115 97/37/115 92/24/115 128/73/115
f 134/24/116 140/25/116 141/26/116 135/27/116
f 135/27/87 141/26/87 142/28/87 136/29/87
f 136/29/117 142/28/117 143/30/117 137/31/117
f 137/32/118 143/33/118 144/34/118 138/35/118
f 138/35/90 144/34/90 145/36/90 139/37/90
f 139/37/119 145/36/119 140/25/119 134/24/119
f 140/25/120 146/38/120 147/39/120 141/26/120
f 141/26/87 147/39/87 148/40/87 142/28/87
f 142/28/121 148/40/121 149/41/121 143/30/121
f 143/33/122 149/42/122 150/43/122 144/34/122
f 144/34/90 150/43/90 151/44/90 145/36/90
f 145/36/123 151/44/123 146/38/123 140/25/123
f 146/38/124 152/45/124 153/46/124 147/39/124
f 147/39/87 153/46/87 154/47/87 148/40/87
f 148/40/125 154/47/125 155/48/125 149/41/125
f 149/42/126 155/49/126 156/50/126 150/43/126
f 150/43/90 156/50/90 157/51/90 151/44/90
f 151/44/127 157/51/127 152/45/127 146/38/127
f 152/52/128 158/53/128 159/54/128 153/55/128
f 153/55/87 159/54/87 160/56/87 154/57/87
f 154/57/129 160/56/129 161/58/129 155/59/129
f 155/60/130 161/61/130 162/62/130 156/63/130
f 156/63/90 162/62/90 163/64/90 157/65/90
f 157/65/131 163/64/131 158/53/131 152/52/131
f 158/53/132 164/66/132 165/67/132 159/54/132
f 159/54/87 165/67/87 166/68/87 160/56/87
f 160/56/133 166/68/133 167/69/133 161/58/133
f 161/61/134 167/70/134 168/71/134 162/62/134
f 162/62/90 168/71/90 169/72/90 163/64/90
f 163/64/135 169/72/135 164/66/135 158/53/135
f 164/66/136 170/73/136 171/74/136 165/67/136
f 165/67/87 171/74/87 172/75/87 166/68/87
f 166/68/137 172/75/137 173/76/137 167/69/137
f 167/70/138 173/77/138 174/78/138 168/71/138
f 168/71/90 174/78/90 175/79/90 169/72/90
f 169/72/139 175/79/139 170/73/139 164/66/139
f 170/73/140 134/24/140 135/27/140 171/74/140
f 171/74/87 135/27/87 136/29/87 172/75/87
f 172/75/141 136/29/141 137/31/141 173/76/141
f 173/77/142 137/32/142 138/35/142 174/78/142
f 174/78/90 138/35/90 139/37/90 175/79/90
f 175/79/143 139/37/143 134/24/143 170/73/143
f 176/24/144 182/25/144 183/26/144 177/27/144
f 177/27/145 183/26/145 184/28/145 178/29/145
f 178/29/146 184/28/146 185/30/146 179/31/146
f 179/32/147 185/33/147 186/34/147 180/35/147
f 180/35/148 186/34/148 187/36/148 181/37/148
f 181/37/149 187/36/149 182/25/149 176/24/149
f 182/25/150 188/38/150 189/80/150 183/26/150
f 183/26/151 189/80/151 190/40/151 184/28/151
f 184/28/152 190/40/152 191/41/152 185/30/152
f 185/33/153 191/42/153 192/43/153 186/34/153
f 186/34/154 192/43/154 193/44/154 187/36/154
f 187/36/155 193/44/155 188/38/155 182/25/155
f 188/38/156 194/45/156 195/46/156 189/80/156
f 189/80/157 195/47/157 190/40/157
f 190/40/158 195/47/158 196/48/158 191/41/158
f 191/42/159 196/49/159 197/50/159 192/43/159
f 192/43/160 197/50/160 198/51/160 193/44/160
f 193/44/161 198/51/161 194/45/161 188/38/161
f 194/52/162 199/53/162 200/54/162 195/55/162
f 195/55/163 200/54/163 201/56/163
f 195/57/164 201/56/164 202/58/164 196/59/164
f 196/60/165 202/61/165 203/62/165 197/63/165
f 197/63/160 203/62/160 204/64/160 198/65/160
f 198/65/166 204/64/166 199/53/166 194/52/166
f 199/53/167 169/66/167 205/67/167 200/54/167
f 200/54/168 205/67/168 206/68/168 201/56/168
f 201/56/169 206/68/169 207/69/169 202/58/169
f 202/61/170 207/70/170 208/71/170 203/62/170
f 203/62/171 208/71/171 209/72/171 204/64/171
f 204/64/172 209/72/172 169/66/172 199/53/172
f 169/66/173 175/73/173 210/74/173 205/67/173
f 205/67/174 210/74/174 211/75/174 206/68/174
f 206/68/175 211/75/175 212/76/175 207/69/175
f 207/70/176 212/77/176 213/78/176 208/71/176
f 208/71/160 213/78/160 214/79/160 209/72/160
f 209/72/177 214/79/177 175/73/177 169/66/177
f 175/73/178 176/24/178 177/27/178 210/74/178
f 210/74/179 177/27/179 178/29/179 211/75/179
f 211/75/180 178/29/180 179/31/180 212/76/180
f 212/77/181 179/32/181 180/35/181 213/78/181
f 213/78/182 180/35/182 181/37/182 214/79/182
f 214/79/183 181/37/183 176/24/183 175/73/183
f 215/24/184 221/25/184 222/26/184 216/27/184
f 216/27/87 222/26/87 223/28/87 217/29/87
f 217/29/88 223/28/88 224/30/88 218/31/88
f 218/32/89 224/33/89 225/34/89 219/35/89
f 219/35/90 225/34/90 226/36/90 220/37/90
f 220/37/185 226/36/185 221/25/185 215/24/185
f 221/25/186 227/38/186 188/39/186 222/26/186
f 222/26/87 188/39/87 228/40/87 223/28/87
f 223/28/93 228/40/93 229/41/93 224/30/93
f 224/33/94 229/42/94 230/43/94 225/34/94
f 225/34/90 230/43/90 231/44/90 226/36/90
f 226/36/187 231/44/187 227/38/187 221/25/187
f 227/38/188 232/45/188 233/46/188 188/39/188
f 188/39/87 233/46/87 234/47/87 228/40/87
f 228/40/189 234/47/189 235/48/189 229/41/189
f 229/42/190 235/49/190 236/50/190 230/43/190
f 230/43/90 236/50/90 237/51/90 231/44/90
f 231/44/191 237/51/191 232/45/191 227/38/191
f 232/52/192 238/53/192 239/54/192 233/55/192
f 233/55/87 239/54/87 240/56/87 234/57/87
f 234/57/101 240/56/101 241/58/101 235/59/101
f 235/60/193 241/61/193 242/62/193 236/63/193
f 236/63/90 242/62/90 243/64/90 237/65/90
f 237/65/194 243/64/194 238/53/194 232/52/194
f 238/53/195 244/66/195 245/67/195 239/54/195
f 239/54/87 245/67/87 246/68/87 240/56/87
f 240/56/196 246/68/196 247/69/196 241/58/196
f 241/61/197 247/70/197 248/71/197 242/62/197
f 242/62/90 248/71/90 249/72/90 243/64/90
f 243/64/198 249/72/198 244/66/198 238/53/198
f 244/66/199 250/73/199 251/74/199 245/67/199
f 245/67/87 251/74/87 252/75/87 246/68/87
f 246/68/109 252/75/109 253/76/109 247/69/109
f 247/70/110 253/77/110 254/78/110 248/71/110
f 248/71/90 254/78/90 255/79/90 249/72/90
f 249/72/200 255/79/200 250/73/200 244/66/200
f 250/73/201 215/24/201 216/27/201 251/74/201
f 251/74/87 216/27/87 217/29/87 252/75/87
f 252/75/113 217/29/113 218/31/113 253/76/113
f 253/77/114 218/32/114 219/35/114 254/78/114
f 254/78/90 219/35/90 220/37/90 255/79/90
f 255/79/202 220/37/202 215/24/202 250/73/202
