# Blender 5.0.1
# www.blender.org
mtllib Sword.mtl
o Sphere
v 0.000000 -1.797226 0.000000
v 0.000000 -2.040751 -0.587921
v 0.000000 -2.310491 -0.768155
v 0.000000 -2.628671 -0.831445
v 0.000000 -2.946851 -0.768155
v 0.000000 -3.216592 -0.587921
v 0.000000 -3.460117 0.000000
v 0.224988 -1.860516 -0.224988
v 0.415723 -2.040751 -0.415723
v 0.543168 -2.310491 -0.543168
v 0.587921 -2.628671 -0.587921
v 0.543168 -2.946851 -0.543168
v 0.415723 -3.216592 -0.415723
v 0.224988 -3.396827 -0.224988
v 0.318180 -1.860516 0.000000
v 0.587921 -2.040751 0.000000
v 0.768155 -2.310491 0.000000
v 0.831445 -2.628671 0.000000
v 0.768155 -2.946851 0.000000
v 0.587921 -3.216592 0.000000
v 0.318180 -3.396827 0.000000
v 0.224988 -1.860516 0.224988
v 0.415723 -2.040751 0.415723
v 0.543168 -2.310491 0.543168
v 0.587921 -2.628671 0.587921
v 0.543168 -2.946851 0.543168
v 0.415723 -3.216592 0.415723
v 0.224988 -3.396827 0.224988
v 0.000000 -1.860516 0.318180
v 0.000000 -2.040751 0.587921
v 0.000000 -2.310491 0.768155
v 0.000000 -2.628671 0.831445
v 0.000000 -2.946851 0.768155
v 0.000000 -3.216592 0.587921
v 0.000000 -3.396827 0.318180
v -0.224988 -1.860516 0.224988
v -0.415723 -2.040751 0.415723
v -0.543168 -2.310491 0.543168
v -0.587921 -2.628671 0.587921
v -0.543168 -2.946851 0.543168
v -0.415723 -3.216592 0.415723
v -0.224988 -3.396827 0.224988
v -0.318180 -1.860516 0.000000
v -0.587921 -2.040751 0.000000
v -0.768155 -2.310491 0.000000
v -0.831445 -2.628671 0.000000
v -0.768155 -2.946851 0.000000
v -0.587921 -3.216592 0.000000
v -0.318180 -3.396827 0.000000
v -0.224988 -1.860516 -0.224988
v -0.415723 -2.040751 -0.415723
v -0.543168 -2.310491 -0.543168
v -0.587921 -2.628671 -0.587921
v -0.543168 -2.946851 -0.543168
v -0.415723 -3.216592 -0.415723
v -0.224988 -3.396827 -0.224988
v 0.000000 -1.860516 -0.318180
v 0.000000 -3.396827 -0.318180
vn 0.3764 0.1807 -0.9087
vn 0.2243 0.8103 -0.5414
vn 0.2243 -0.8103 -0.5414
vn 0.3764 -0.1807 -0.9087
vn 0.3256 0.5253 -0.7862
vn 0.0805 0.9776 -0.1945
vn 0.0805 -0.9776 -0.1945
vn 0.3256 -0.5253 -0.7862
vn 0.5414 -0.8103 -0.2243
vn 0.9087 -0.1807 -0.3764
vn 0.7862 0.5253 -0.3256
vn 0.1945 0.9776 -0.0805
vn 0.1945 -0.9776 -0.0805
vn 0.7862 -0.5253 -0.3256
vn 0.9087 0.1807 -0.3764
vn 0.5414 0.8103 -0.2243
vn 0.1945 0.9776 0.0805
vn 0.1945 -0.9776 0.0805
vn 0.7862 -0.5253 0.3256
vn 0.9087 0.1807 0.3764
vn 0.5414 0.8103 0.2243
vn 0.5414 -0.8103 0.2243
vn 0.9087 -0.1807 0.3764
vn 0.7862 0.5253 0.3256
vn 0.3256 -0.5253 0.7862
vn 0.3764 0.1807 0.9087
vn 0.2243 0.8103 0.5414
vn 0.2243 -0.8103 0.5414
vn 0.3764 -0.1807 0.9087
vn 0.3256 0.5253 0.7862
vn 0.0805 0.9776 0.1945
vn 0.0805 -0.9776 0.1945
vn -0.2243 -0.8103 0.5414
vn -0.3764 -0.1807 0.9087
vn -0.3256 0.5253 0.7862
vn -0.0805 0.9776 0.1945
vn -0.0805 -0.9776 0.1945
vn -0.3256 -0.5253 0.7862
vn -0.3764 0.1807 0.9087
vn -0.2243 0.8103 0.5414
vn -0.9087 -0.1807 0.3764
vn -0.7862 0.5253 0.3256
vn -0.1945 0.9776 0.0805
vn -0.1945 -0.9776 0.0805
vn -0.7862 -0.5253 0.3256
vn -0.9087 0.1807 0.3764
vn -0.5414 0.8103 0.2243
vn -0.5414 -0.8103 0.2243
vn -0.1945 -0.9776 -0.0805
vn -0.7862 -0.5253 -0.3256
vn -0.9087 0.1807 -0.3764
vn -0.5414 0.8103 -0.2243
vn -0.5414 -0.8103 -0.2243
vn -0.9087 -0.1807 -0.3764
vn -0.7862 0.5253 -0.3256
vn -0.1945 0.9776 -0.0805
vn -0.3764 0.1807 -0.9087
vn -0.2243 0.8103 -0.5414
vn -0.2243 -0.8103 -0.5414
vn -0.3764 -0.1807 -0.9087
vn -0.3256 0.5253 -0.7862
vn -0.0805 0.9776 -0.1945
vn -0.0805 -0.9776 -0.1945
vn -0.3256 -0.5253 -0.7862
vt 0.750000 0.500000
vt 0.750000 0.625000
vt 0.625000 0.625000
vt 0.625000 0.500000
vt 0.750000 0.750000
vt 0.750000 0.875000
vt 0.625000 0.875000
vt 0.625000 0.750000
vt 0.750000 0.125000
vt 0.750000 0.250000
vt 0.625000 0.250000
vt 0.625000 0.125000
vt 0.750000 0.375000
vt 0.625000 0.375000
vt 0.687500 1.000000
vt 0.687500 0.000000
vt 0.500000 0.250000
vt 0.500000 0.125000
vt 0.500000 0.500000
vt 0.500000 0.375000
vt 0.500000 0.750000
vt 0.500000 0.625000
vt 0.562500 1.000000
vt 0.500000 0.875000
vt 0.562500 0.000000
vt 0.437500 1.000000
vt 0.375000 0.875000
vt 0.437500 0.000000
vt 0.375000 0.125000
vt 0.375000 0.375000
vt 0.375000 0.250000
vt 0.375000 0.625000
vt 0.375000 0.500000
vt 0.375000 0.750000
vt 0.250000 0.375000
vt 0.250000 0.250000
vt 0.250000 0.625000
vt 0.250000 0.500000
vt 0.250000 0.875000
vt 0.250000 0.750000
vt 0.250000 0.125000
vt 0.312500 1.000000
vt 0.312500 0.000000
vt 0.125000 0.250000
vt 0.125000 0.125000
vt 0.125000 0.500000
vt 0.125000 0.375000
vt 0.125000 0.750000
vt 0.125000 0.625000
vt 0.187500 1.000000
vt 0.125000 0.875000
vt 0.187500 0.000000
vt 0.000000 0.500000
vt 0.000000 0.375000
vt 0.000000 0.750000
vt 0.000000 0.625000
vt 0.062500 1.000000
vt 0.000000 0.875000
vt 0.062500 0.000000
vt 0.000000 0.125000
vt 0.000000 0.250000
vt 0.937500 0.000000
vt 1.000000 0.125000
vt 0.875000 0.125000
vt 1.000000 0.250000
vt 1.000000 0.375000
vt 0.875000 0.375000
vt 0.875000 0.250000
vt 1.000000 0.500000
vt 1.000000 0.625000
vt 0.875000 0.625000
vt 0.875000 0.500000
vt 1.000000 0.750000
vt 1.000000 0.875000
vt 0.875000 0.875000
vt 0.875000 0.750000
vt 0.937500 1.000000
vt 0.812500 1.000000
vt 0.812500 0.000000
s 0
usemtl Material.002
f 4/1/1 3/2/1 10/3/1 11/4/1
f 2/5/2 57/6/2 8/7/2 9/8/2
f 58/9/3 6/10/3 13/11/3 14/12/3
f 5/13/4 4/1/4 11/4/4 12/14/4
f 3/2/5 2/5/5 9/8/5 10/3/5
f 57/6/6 1/15/6 8/7/6
f 7/16/7 58/9/7 14/12/7
f 6/10/8 5/13/8 12/14/8 13/11/8
f 14/12/9 13/11/9 20/17/9 21/18/9
f 12/14/10 11/4/10 18/19/10 19/20/10
f 10/3/11 9/8/11 16/21/11 17/22/11
f 8/7/12 1/23/12 15/24/12
f 7/25/13 14/12/13 21/18/13
f 13/11/14 12/14/14 19/20/14 20/17/14
f 11/4/15 10/3/15 17/22/15 18/19/15
f 9/8/16 8/7/16 15/24/16 16/21/16
f 15/24/17 1/26/17 22/27/17
f 7/28/18 21/18/18 28/29/18
f 20/17/19 19/20/19 26/30/19 27/31/19
f 18/19/20 17/22/20 24/32/20 25/33/20
f 16/21/21 15/24/21 22/27/21 23/34/21
f 21/18/22 20/17/22 27/31/22 28/29/22
f 19/20/23 18/19/23 25/33/23 26/30/23
f 17/22/24 16/21/24 23/34/24 24/32/24
f 27/31/25 26/30/25 33/35/25 34/36/25
f 25/33/26 24/32/26 31/37/26 32/38/26
f 23/34/27 22/27/27 29/39/27 30/40/27
f 28/29/28 27/31/28 34/36/28 35/41/28
f 26/30/29 25/33/29 32/38/29 33/35/29
f 24/32/30 23/34/30 30/40/30 31/37/30
f 22/27/31 1/42/31 29/39/31
f 7/43/32 28/29/32 35/41/32
f 35/41/33 34/36/33 41/44/33 42/45/33
f 33/35/34 32/38/34 39/46/34 40/47/34
f 31/37/35 30/40/35 37/48/35 38/49/35
f 29/39/36 1/50/36 36/51/36
f 7/52/37 35/41/37 42/45/37
f 34/36/38 33/35/38 40/47/38 41/44/38
f 32/38/39 31/37/39 38/49/39 39/46/39
f 30/40/40 29/39/40 36/51/40 37/48/40
f 40/47/41 39/46/41 46/53/41 47/54/41
f 38/49/42 37/48/42 44/55/42 45/56/42
f 36/51/43 1/57/43 43/58/43
f 7/59/44 42/45/44 49/60/44
f 41/44/45 40/47/45 47/54/45 48/61/45
f 39/46/46 38/49/46 45/56/46 46/53/46
f 37/48/47 36/51/47 43/58/47 44/55/47
f 42/45/48 41/44/48 48/61/48 49/60/48
f 7/62/49 49/63/49 56/64/49
f 48/65/50 47/66/50 54/67/50 55/68/50
f 46/69/51 45/70/51 52/71/51 53/72/51
f 44/73/52 43/74/52 50/75/52 51/76/52
f 49/63/53 48/65/53 55/68/53 56/64/53
f 47/66/54 46/69/54 53/72/54 54/67/54
f 45/70/55 44/73/55 51/76/55 52/71/55
f 43/74/56 1/77/56 50/75/56
f 53/72/57 52/71/57 3/2/57 4/1/57
f 51/76/58 50/75/58 57/6/58 2/5/58
f 56/64/59 55/68/59 6/10/59 58/9/59
f 54/67/60 53/72/60 4/1/60 5/13/60
f 52/71/61 51/76/61 2/5/61 3/2/61
f 50/75/62 1/78/62 57/6/62
f 7/79/63 56/64/63 58/9/63
f 55/68/64 54/67/64 5/13/64 6/10/64
o Cone
v -0.120661 1.156854 -0.880755
v -0.129610 1.214043 -0.878114
v -0.120299 1.214043 -0.946078
v 0.129610 1.214043 -0.878114
v 0.120661 1.156854 -0.880755
v 0.120299 1.214043 -0.946078
v 0.129610 1.214043 0.878114
v 0.120299 1.214043 0.946078
v 0.120661 1.156854 0.880755
v -0.120299 1.214043 0.946078
v -0.129610 1.214043 0.878114
v -0.120661 1.156854 0.880755
v 0.129245 1.213995 0.229954
v 0.120661 1.156854 0.230417
v 0.120288 1.214041 0.164629
v 0.129245 1.213995 -0.229954
v 0.120288 1.214041 -0.164629
v 0.120661 1.156854 -0.230417
v -0.129245 1.213995 0.229954
v -0.120288 1.214041 0.164629
v -0.120661 1.156854 0.230417
v -0.129245 1.213995 -0.229954
v -0.120661 1.156854 -0.230417
v -0.120288 1.214041 -0.164629
v -0.055406 11.375796 0.016651
v -0.055764 11.318609 0.082439
v -0.063990 11.432939 0.146834
v -0.055764 11.318609 -0.082439
v -0.055406 11.375796 -0.016651
v -0.063990 11.432939 -0.146834
v 0.055406 11.375796 -0.016651
v 0.055764 11.318609 -0.082439
v 0.063990 11.432939 -0.146834
v 0.055764 11.318609 0.082439
v 0.055406 11.375796 0.016651
v 0.063990 11.432939 0.146834
v 0.003537 13.668932 -0.094016
v 0.000000 13.720308 -0.000000
v 0.012880 13.668932 -0.025820
v -0.003537 13.668932 -0.094016
v -0.012880 13.668932 -0.025820
v -0.000000 13.720308 -0.000000
v -0.012880 13.668932 0.025820
v -0.003537 13.668932 0.094016
v -0.000000 13.720308 0.000000
v 0.003537 13.668932 0.094016
v 0.012880 13.668932 0.025820
v 0.000000 13.720308 0.000000
v 0.120285 12.143273 -0.946078
v 0.129610 12.143273 -0.878008
v -0.129610 12.143273 -0.878008
v -0.120285 12.143273 -0.946078
v -0.120285 12.143273 0.946078
v -0.129610 12.143273 0.878008
v 0.129610 12.143273 0.878008
v 0.120285 12.143273 0.946078
vn -0.9800 -0.1471 -0.1343
vn 0.9800 -0.1471 -0.1343
vn 0.9800 -0.1471 0.1343
vn -0.9800 -0.1471 0.1343
vn 0.9798 -0.1483 -0.1344
vn 0.9798 -0.1483 0.1344
vn -0.9798 -0.1483 -0.1344
vn -0.9798 -0.1483 0.1344
vn -0.9979 -0.0462 -0.0455
vn -0.9979 -0.0462 0.0455
vn 0.9979 -0.0462 0.0455
vn 0.9979 -0.0462 -0.0455
vn 0.9445 0.3018 -0.1294
vn -0.9445 0.3018 -0.1294
vn -0.9445 0.3018 0.1294
vn 0.9445 0.3018 0.1294
vn 0.9907 -0.0000 -0.1357
vn -0.0000 -0.7524 -0.6587
vn -0.9907 -0.0000 -0.1357
vn 0.9884 -0.1516 -0.0003
vn -0.0000 -0.7524 0.6587
vn -0.9884 -0.1516 -0.0003
vn -0.0000 -0.7547 -0.6561
vn -0.9884 -0.1516 0.0003
vn 0.9884 -0.1516 0.0003
vn -0.0000 -0.7547 0.6561
vn -0.9907 0.0052 0.1358
vn -0.9889 -0.1486 -0.0000
vn -0.9907 0.0052 -0.1358
vn -0.9907 -0.0000 0.1357
vn 0.9907 -0.0000 0.1357
vn 0.9907 0.0052 -0.1358
vn 0.9889 -0.1486 -0.0000
vn 0.9907 0.0052 0.1358
vn -0.0000 0.8775 -0.4795
vn -0.9700 0.2432 -0.0000
vn -0.0000 0.8775 0.4795
vn 0.9700 0.2432 -0.0000
vn -0.9796 0.1499 -0.1342
vn 0.9796 0.1499 -0.1342
vn -0.9796 0.1499 0.1342
vn 0.9796 0.1499 0.1342
vn -0.0000 -1.0000 -0.0000
vn -0.0000 -0.0000 -1.0000
vn -1.0000 -0.0016 -0.0000
vn 1.0000 -0.0016 -0.0000
vn -0.0000 -0.0000 1.0000
vn -0.0000 -0.0081 -1.0000
vn -0.0000 -0.0081 1.0000
vn -0.0000 0.4876 -0.8731
vn -0.0000 1.0000 -0.0000
vn 0.9971 0.0763 -0.0000
vn -0.9971 0.0763 -0.0000
vn -0.0000 0.4876 0.8731
vt 0.750000 0.473429
vt 0.741379 0.481379
vt 0.758621 0.481379
vt 0.981379 0.241379
vt 0.973429 0.250000
vt 0.981379 0.258621
vt 0.758621 0.018621
vt 0.741379 0.018621
vt 0.750000 0.026571
vt 0.518621 0.241379
vt 0.518621 0.258621
vt 0.526571 0.250000
vt 0.840664 0.101002
vt 0.832488 0.109060
vt 0.840429 0.117690
vt 0.898998 0.159336
vt 0.882310 0.159571
vt 0.890940 0.167512
vt 0.601002 0.340664
vt 0.617690 0.340429
vt 0.609060 0.332488
vt 0.659336 0.398998
vt 0.667511 0.390940
vt 0.659571 0.382310
vt 0.625000 0.955546
vt 0.624389 0.955854
vt 0.625000 0.968291
vt 0.624389 0.294146
vt 0.625000 0.294454
vt 0.625000 0.281709
vt 0.625000 0.455546
vt 0.624389 0.455854
vt 0.625000 0.468291
vt 0.624389 0.794146
vt 0.625000 0.794454
vt 0.625000 0.781709
vt 0.503840 0.457548
vt 0.500000 0.500000
vt 0.513981 0.488341
vt 0.496161 0.457548
vt 0.486020 0.488341
vt 0.486020 0.511659
vt 0.496161 0.542452
vt 0.500000 0.500000
vt 0.503840 0.542452
vt 0.513981 0.511659
vt 0.500000 0.500000
vt 0.481379 0.258621
vt 0.481366 0.258634
vt 0.481366 0.241366
vt 0.481414 0.241414
vt 0.241414 0.481414
vt 0.241366 0.481366
vt 0.258634 0.481366
vt 0.258621 0.481379
vt 0.516514 0.288055
vt 0.516510 0.281444
vt 0.843556 0.750000
vt 0.843556 0.500000
vt 0.830546 0.599609
vt 0.830546 0.650391
vt 0.516510 0.968556
vt 0.516515 0.961945
vt 0.018621 0.241379
vt 0.018634 0.241366
vt 0.018634 0.258634
vt 0.018586 0.258586
vt 0.258586 0.018586
vt 0.258634 0.018634
vt 0.241366 0.018634
vt 0.241379 0.018621
vt 0.516515 0.788055
vt 0.516510 0.781444
vt 0.656444 0.500000
vt 0.656444 0.750000
vt 0.669454 0.650391
vt 0.669454 0.599609
vt 0.516510 0.468556
vt 0.516515 0.461945
vt 0.359315 0.103547
vt 0.369437 0.072811
vt 0.640685 0.103547
vt 0.630563 0.072811
vt 0.369437 0.927189
vt 0.359315 0.896453
vt 0.640685 0.896453
vt 0.630563 0.927189
vt 0.159229 0.399229
vt 0.157746 0.397746
vt 0.102254 0.342254
vt 0.100771 0.340771
vt 0.340771 0.100771
vt 0.342254 0.102254
vt 0.397746 0.157746
vt 0.399229 0.159229
s 0
usemtl Material.001
f 59/80/65 60/81/65 61/82/65
f 62/83/66 63/84/66 64/85/66
f 65/86/67 66/87/67 67/88/67
f 68/89/68 69/90/68 70/91/68
f 71/92/69 72/93/69 73/94/69
f 74/95/70 75/96/70 76/97/70
f 77/98/71 78/99/71 79/100/71
f 80/101/72 81/102/72 82/103/72
f 83/104/73 84/105/73 85/106/73
f 86/107/74 87/108/74 88/109/74
f 89/110/75 90/111/75 91/112/75
f 92/113/76 93/114/76 94/115/76
f 95/116/77 96/117/77 97/118/77
f 98/119/78 99/120/78 100/117/78
f 101/121/79 102/122/79 103/123/79
f 104/124/80 105/125/80 106/126/80
f 64/127/81 107/128/81 108/129/81 62/130/81
f 61/82/82 64/85/82 63/84/82 59/80/82
f 60/131/83 109/132/83 110/133/83 61/134/83
f 67/88/84 72/93/84 71/92/84 65/86/84
f 66/87/85 68/89/85 70/91/85 67/88/85
f 69/90/86 77/98/86 79/100/86 70/91/86
f 72/93/87 79/100/87 78/99/87 73/94/87
f 59/80/88 81/102/88 80/101/88 60/81/88
f 62/83/89 74/95/89 76/97/89 63/84/89
f 75/96/90 82/103/90 81/102/90 76/97/90
f 82/135/91 86/107/91 88/109/91 80/136/91
f 85/137/92 88/138/92 87/139/92 83/140/92
f 77/141/93 85/106/93 84/105/93 78/142/93
f 68/143/94 111/144/94 112/145/94 69/146/94
f 65/147/95 113/148/95 114/149/95 66/150/95
f 73/151/96 92/113/96 94/115/96 71/152/96
f 91/153/97 94/154/97 93/155/97 89/156/97
f 74/157/98 91/112/98 90/111/98 75/158/98
f 86/107/90 90/111/90 89/110/90 87/108/90
f 83/104/87 93/114/87 92/113/87 84/105/87
f 95/116/99 98/119/99 100/117/99 96/117/99
f 99/120/100 101/121/100 103/123/100 100/117/100
f 102/122/101 104/124/101 106/126/101 103/123/101
f 96/117/102 106/126/102 105/125/102 97/118/102
f 109/159/103 99/120/103 98/119/103 110/160/103
f 97/118/104 108/161/104 107/162/104 95/116/104
f 111/163/105 102/122/105 101/121/105 112/164/105
f 113/165/106 105/125/106 104/124/106 114/166/106
f 59/80/107 63/84/107 76/97/107 81/102/107
f 64/127/108 61/134/108 110/133/108 107/128/108
f 60/131/109 80/167/109 88/168/109 85/169/109 77/170/109 69/146/109 112/145/109 109/132/109
f 113/148/110 65/147/110 71/171/110 94/172/110 91/173/110 74/174/110 62/130/110 108/129/110
f 67/88/107 70/91/107 79/100/107 72/93/107
f 111/144/111 68/143/111 66/150/111 114/149/111
f 73/151/112 78/142/112 84/105/112 92/113/112
f 90/111/113 86/107/113 82/135/113 75/158/113
f 87/139/107 89/156/107 93/155/107 83/140/107
f 98/119/114 95/116/114 107/162/114 110/160/114
f 100/117/115 103/123/115 106/126/115 96/117/115
f 97/118/116 105/125/116 113/165/116 108/161/116
f 101/121/117 99/120/117 109/159/117 112/164/117
f 104/124/118 102/122/118 111/163/118 114/166/118
o Cylinder
v 0.000000 -2.362177 -0.480073
v 0.000000 0.704281 -0.480073
v 0.308585 -2.362177 -0.367757
v 0.308585 0.704281 -0.367757
v 0.472780 -2.362177 -0.083364
v 0.472780 0.704281 -0.083364
v 0.415756 -2.362177 0.240037
v 0.415756 0.704281 0.240037
v 0.164195 -2.362177 0.451121
v 0.164195 0.704281 0.451121
v -0.164195 -2.362177 0.451121
v -0.164195 0.704281 0.451121
v -0.415756 -2.362177 0.240037
v -0.415756 0.704281 0.240037
v -0.472780 -2.362177 -0.083364
v -0.472780 0.704281 -0.083364
v -0.308585 -2.362177 -0.367757
v -0.308585 0.704281 -0.367757
vn 0.3420 -0.0000 -0.9397
vn 0.8660 -0.0000 -0.5000
vn 0.9848 -0.0000 0.1736
vn 0.6428 -0.0000 0.7660
vn -0.0000 -0.0000 1.0000
vn -0.6428 -0.0000 0.7660
vn -0.9848 -0.0000 0.1736
vn -0.0000 1.0000 -0.0000
vn -0.8660 -0.0000 -0.5000
vn -0.3420 -0.0000 -0.9397
vn -0.0000 -1.0000 -0.0000
vt 1.000000 0.500000
vt 1.000000 1.000000
vt 0.888889 1.000000
vt 0.888889 0.500000
vt 0.777778 1.000000
vt 0.777778 0.500000
vt 0.666667 1.000000
vt 0.666667 0.500000
vt 0.555556 1.000000
vt 0.555556 0.500000
vt 0.444444 1.000000
vt 0.444444 0.500000
vt 0.333333 1.000000
vt 0.333333 0.500000
vt 0.222222 1.000000
vt 0.222222 0.500000
vt 0.404269 0.433851
vt 0.250000 0.490000
vt 0.095731 0.433851
vt 0.013646 0.291676
vt 0.042154 0.130000
vt 0.167915 0.024474
vt 0.332085 0.024474
vt 0.457846 0.130000
vt 0.486354 0.291676
vt 0.111111 1.000000
vt 0.111111 0.500000
vt 0.000000 1.000000
vt 0.000000 0.500000
vt 0.750000 0.490000
vt 0.904269 0.433851
vt 0.986354 0.291676
vt 0.957846 0.130000
vt 0.832085 0.024474
vt 0.667915 0.024474
vt 0.542154 0.130000
vt 0.513646 0.291676
vt 0.595731 0.433851
s 0
usemtl Material.003
f 115/175/119 116/176/119 118/177/119 117/178/119
f 117/178/120 118/177/120 120/179/120 119/180/120
f 119/180/121 120/179/121 122/181/121 121/182/121
f 121/182/122 122/181/122 124/183/122 123/184/122
f 123/184/123 124/183/123 126/185/123 125/186/123
f 125/186/124 126/185/124 128/187/124 127/188/124
f 127/188/125 128/187/125 130/189/125 129/190/125
f 118/191/126 116/192/126 132/193/126 130/194/126 128/195/126 126/196/126 124/197/126 122/198/126 120/199/126
f 129/190/127 130/189/127 132/200/127 131/201/127
f 131/201/128 132/200/128 116/202/128 115/203/128
f 115/204/129 117/205/129 119/206/129 121/207/129 123/208/129 125/209/129 127/210/129 129/211/129 131/212/129
o Cube
v -0.486226 0.650437 -0.518131
v -0.486226 1.496815 -0.518131
v 0.486226 0.650437 -0.518131
v 0.486226 1.496815 -0.518131
v -0.325253 1.630532 -1.006783
v -0.325253 0.891260 -1.133469
v 0.325253 0.891260 -1.133469
v 0.325253 1.630532 -1.006783
v -0.177892 1.858429 -1.383300
v -0.267498 1.302615 -1.705601
v 0.267498 1.302615 -1.705601
v 0.177893 1.858429 -1.383300
v -0.152092 2.082041 -1.606334
v -0.224594 1.740948 -2.116502
v 0.224594 1.740948 -2.116502
v 0.152092 2.082041 -1.606334
v 0.577415 1.496815 -0.000000
v 0.577415 0.650437 -0.000000
v 0.486226 0.650437 0.518131
v 0.486226 1.496815 0.518131
v -0.486226 0.650437 0.518131
v -0.486226 1.496815 0.518131
v 0.325253 1.630532 1.006783
v 0.325253 0.891260 1.133469
v -0.325252 0.891260 1.133469
v -0.325252 1.630532 1.006784
v 0.177893 1.858429 1.383300
v 0.267498 1.302615 1.705601
v -0.267498 1.302615 1.705601
v -0.177892 1.858429 1.383300
v 0.152093 2.082041 1.606334
v 0.224594 1.740948 2.116502
v -0.224593 1.740948 2.116502
v -0.152092 2.082041 1.606334
v -0.577415 1.496815 0.000000
v -0.577415 0.650437 0.000000
vn -0.9849 -0.0000 -0.1733
vn -0.0000 -0.9312 -0.3644
vn 0.9849 -0.0000 -0.1733
vn -0.0000 -1.0000 -0.0000
vn -0.0000 1.0000 -0.0000
vn 0.9841 0.1150 -0.1353
vn -0.0000 0.9645 0.2639
vn -0.9617 0.0218 -0.2731
vn 0.9617 0.0218 -0.2731
vn -0.0000 0.7062 0.7080
vn -0.0000 -0.8119 -0.5838
vn -0.0000 0.8555 0.5178
vn -0.9841 0.1150 -0.1353
vn -0.0000 0.8313 -0.5558
vn -0.9891 0.1413 0.0404
vn 0.9891 0.1413 0.0404
vn -0.0000 -0.6839 -0.7296
vn -0.0000 -0.0000 1.0000
vn 0.9849 -0.0000 0.1733
vn -0.0000 -0.9312 0.3644
vn -0.9849 -0.0000 0.1733
vn -0.9841 0.1150 0.1353
vn -0.0000 0.9645 -0.2639
vn 0.9617 0.0218 0.2731
vn -0.9617 0.0218 0.2731
vn -0.0000 0.7062 -0.7080
vn -0.0000 -0.8119 0.5838
vn -0.0000 0.8555 -0.5178
vn 0.9841 0.1150 0.1353
vn -0.0000 0.8313 0.5558
vn 0.9891 0.1413 -0.0404
vn -0.9891 0.1413 -0.0404
vn -0.0000 -0.6839 0.7296
vt 0.625000 0.125000
vt 0.625000 0.250000
vt 0.375000 0.250000
vt 0.375000 0.125000
vt 0.375000 0.500000
vt 0.125000 0.500000
vt 0.375000 0.625000
vt 0.625000 0.500000
vt 0.625000 0.625000
vt 0.125000 0.625000
vt 0.875000 0.500000
vt 0.875000 0.625000
vt 0.211292 0.000000
vt 0.788707 0.000000
s 0
usemtl Material.002
f 167/213/130 134/214/130 133/215/130 168/216/130
f 135/217/131 133/218/131 138/218/131 139/217/131
f 150/219/132 135/217/132 136/220/132 149/221/132
f 168/222/133 133/218/133 135/217/133 150/219/133
f 149/221/134 136/220/134 134/223/134 167/224/134
f 140/220/135 139/217/135 143/217/135 144/220/135
f 134/223/136 136/220/136 140/220/136 137/223/136
f 133/215/137 134/214/137 137/214/137 138/215/137
f 136/220/138 135/217/138 139/217/138 140/220/138
f 141/223/139 144/220/139 148/220/139 145/223/139
f 139/217/140 138/218/140 142/218/140 143/217/140
f 137/223/141 140/220/141 144/220/141 141/223/141
f 138/215/142 137/214/142 141/214/142 142/215/142
f 146/215/143 145/214/143 148/220/143 147/217/143
f 142/215/144 141/214/144 145/214/144 146/215/144
f 144/220/145 143/217/145 147/217/145 148/220/145
f 143/217/146 142/218/146 146/218/146 147/217/146
f 150/225/147 149/225/147 167/226/147 168/226/147
f 149/213/148 152/214/148 151/215/148 150/216/148
f 153/217/149 151/218/149 156/218/149 157/217/149
f 168/219/150 153/217/150 154/220/150 167/221/150
f 150/222/133 151/218/133 153/217/133 168/219/133
f 167/221/134 154/220/134 152/223/134 149/224/134
f 158/220/151 157/217/151 161/217/151 162/220/151
f 152/223/152 154/220/152 158/220/152 155/223/152
f 151/215/153 152/214/153 155/214/153 156/215/153
f 154/220/154 153/217/154 157/217/154 158/220/154
f 159/223/155 162/220/155 166/220/155 163/223/155
f 157/217/156 156/218/156 160/218/156 161/217/156
f 155/223/157 158/220/157 162/220/157 159/223/157
f 156/215/158 155/214/158 159/214/158 160/215/158
f 164/215/159 163/214/159 166/220/159 165/217/159
f 160/215/160 159/214/160 163/214/160 164/215/160
f 162/220/161 161/217/161 165/217/161 166/220/161
f 161/217/162 160/218/162 164/218/162 165/217/162
