# Blender 5.0.1
# www.blender.org
mtllib Torch.mtl
o Cylinder
v 2.356856 0.111989 -0.410765
v -1.427625 3.896470 -0.716280
v 2.502083 0.257217 -0.355733
v -1.174382 4.149714 -0.620316
v 2.608397 0.363531 -0.205383
v -0.988995 4.335100 -0.358140
v 2.647311 0.402444 0.000000
v -0.921139 4.402956 0.000000
v 2.608397 0.363531 0.205383
v -0.988995 4.335100 0.358140
v 2.502083 0.257217 0.355733
v -1.174382 4.149714 0.620316
v 2.356856 0.111989 0.410765
v -1.427625 3.896470 0.716280
v 2.211628 -0.033238 0.355733
v -1.680869 3.643227 0.620316
v 2.105314 -0.139552 0.205383
v -1.866255 3.457840 0.358140
v 2.066401 -0.178466 0.000000
v -1.934111 3.389984 0.000000
v 2.105314 -0.139552 -0.205383
v -1.866255 3.457840 -0.358140
v 2.211628 -0.033238 -0.355733
v -1.680869 3.643227 -0.620316
vn 0.2217 0.1438 -0.9645
vn 0.5382 0.4603 -0.7060
vn 0.7209 0.6430 -0.2584
vn 0.7209 0.6430 0.2584
vn 0.5382 0.4603 0.7060
vn 0.2217 0.1438 0.9645
vn -0.1438 -0.2217 0.9645
vn -0.4603 -0.5382 0.7060
vn -0.6430 -0.7209 0.2584
vn -0.6430 -0.7209 -0.2584
vn -0.7071 0.7071 -0.0000
vn -0.4603 -0.5382 -0.7060
vn -0.1438 -0.2217 -0.9645
vn 0.7071 -0.7071 -0.0000
vt 1.000000 0.500000
vt 1.000000 1.000000
vt 0.916667 1.000000
vt 0.916667 0.500000
vt 0.833333 1.000000
vt 0.833333 0.500000
vt 0.750000 1.000000
vt 0.750000 0.500000
vt 0.666667 1.000000
vt 0.666667 0.500000
vt 0.583333 1.000000
vt 0.583333 0.500000
vt 0.500000 1.000000
vt 0.500000 0.500000
vt 0.416667 1.000000
vt 0.416667 0.500000
vt 0.333333 1.000000
vt 0.333333 0.500000
vt 0.250000 1.000000
vt 0.250000 0.500000
vt 0.166667 1.000000
vt 0.166667 0.500000
vt 0.370000 0.457846
vt 0.250000 0.490000
vt 0.130000 0.457846
vt 0.042154 0.370000
vt 0.010000 0.250000
vt 0.042154 0.130000
vt 0.130000 0.042154
vt 0.250000 0.010000
vt 0.370000 0.042154
vt 0.457846 0.130000
vt 0.490000 0.250000
vt 0.457846 0.370000
vt 0.083333 1.000000
vt 0.083333 0.500000
vt 0.000000 1.000000
vt 0.000000 0.500000
vt 0.750000 0.490000
vt 0.870000 0.457846
vt 0.957846 0.370000
vt 0.990000 0.250000
vt 0.957846 0.130000
vt 0.870000 0.042154
vt 0.750000 0.010000
vt 0.630000 0.042154
vt 0.542154 0.130000
vt 0.510000 0.250000
vt 0.542154 0.370000
vt 0.630000 0.457846
s 0
usemtl Material.002
f 1/1/1 2/2/1 4/3/1 3/4/1
f 3/4/2 4/3/2 6/5/2 5/6/2
f 5/6/3 6/5/3 8/7/3 7/8/3
f 7/8/4 8/7/4 10/9/4 9/10/4
f 9/10/5 10/9/5 12/11/5 11/12/5
f 11/12/6 12/11/6 14/13/6 13/14/6
f 13/14/7 14/13/7 16/15/7 15/16/7
f 15/16/8 16/15/8 18/17/8 17/18/8
f 17/18/9 18/17/9 20/19/9 19/20/9
f 19/20/10 20/19/10 22/21/10 21/22/10
f 4/23/11 2/24/11 24/25/11 22/26/11 20/27/11 18/28/11 16/29/11 14/30/11 12/31/11 10/32/11 8/33/11 6/34/11
f 21/22/12 22/21/12 24/35/12 23/36/12
f 23/36/13 24/35/13 2/37/13 1/38/13
f 1/39/14 3/40/14 5/41/14 7/42/14 9/43/14 11/44/14 13/45/14 15/46/14 17/47/14 19/48/14 21/49/14 23/50/14
o Torus
v -0.635045 4.764716 0.000000
v -0.972519 4.872669 0.000000
v -1.073136 4.601914 0.000000
v -0.797847 4.326625 0.000000
v -0.527091 4.427242 0.000000
v -0.878267 4.521493 -0.830413
v -1.182129 4.663059 -0.715653
v -1.228360 4.446691 -0.529967
v -0.953070 4.171401 -0.529967
v -0.736701 4.217632 -0.715653
v -1.465458 3.934303 -1.174382
v -1.688172 4.157016 -1.012086
v -1.603103 4.071947 -0.749487
v -1.327814 3.796658 -0.749487
v -1.242744 3.711589 -1.012086
v -2.052649 3.347111 -0.830413
v -2.194215 3.650973 -0.715653
v -1.977846 3.697204 -0.529967
v -1.702557 3.421915 -0.529967
v -1.748788 3.205546 -0.715653
v -2.295871 3.103889 -0.000000
v -2.403825 3.441363 -0.000000
v -2.133070 3.541980 -0.000000
v -1.857781 3.266691 -0.000000
v -1.958398 2.995936 -0.000000
v -2.052649 3.347111 0.830413
v -2.194215 3.650973 0.715653
v -1.977846 3.697204 0.529967
v -1.702557 3.421915 0.529967
v -1.748788 3.205546 0.715653
v -1.465458 3.934303 1.174382
v -1.688172 4.157016 1.012086
v -1.603103 4.071947 0.749487
v -1.327814 3.796658 0.749487
v -1.242744 3.711589 1.012086
v -0.878268 4.521493 0.830414
v -1.182129 4.663059 0.715654
v -1.228360 4.446690 0.529967
v -0.953070 4.171401 0.529967
v -0.736702 4.217632 0.715654
v -1.271816 5.117626 0.000000
v -1.473468 4.915974 -0.688482
v -1.368613 4.857150 0.000000
v -1.517944 4.707819 -0.509846
v -1.960299 4.429143 -0.973661
v -1.878459 4.347304 -0.721031
v -2.447129 3.942313 -0.688482
v -2.238975 3.986788 -0.509846
v -2.648781 3.740661 -0.000000
v -2.388305 3.837458 -0.000000
v -2.447129 3.942313 0.688482
v -2.238975 3.986788 0.509846
v -1.960299 4.429143 0.973661
v -1.878459 4.347304 0.721031
v -1.473469 4.915974 0.688483
v -1.517944 4.707819 0.509846
vn 0.2859 0.8938 -0.3455
vn -0.3344 -0.2045 -0.9200
vn -0.6533 -0.6533 0.3827
vn 0.3433 -0.9237 0.1700
vn 0.8938 0.2859 -0.3455
vn -0.0596 0.5483 -0.8342
vn -0.7537 0.5133 0.4104
vn -0.2706 -0.2706 0.9239
vn 0.5133 -0.7537 0.4104
vn 0.5483 -0.0596 -0.8342
vn -0.5483 0.0596 -0.8342
vn 0.6994 0.6042 -0.3818
vn 0.2706 0.2706 0.9239
vn 0.7537 -0.5133 0.4104
vn 0.0596 -0.5483 -0.8342
vn -0.8938 -0.2859 -0.3455
vn -0.3433 0.9237 0.1700
vn 0.6533 0.6533 0.3827
vn 0.9237 -0.3433 0.1700
vn -0.2859 -0.8938 -0.3455
vn -0.8938 -0.2859 0.3455
vn -0.0000 -0.0000 1.0000
vn 0.6533 0.6533 -0.3827
vn 0.9237 -0.3433 -0.1700
vn -0.2859 -0.8938 0.3455
vn -0.5483 0.0596 0.8342
vn -0.5133 0.7537 -0.4104
vn 0.2706 0.2706 -0.9239
vn 0.7537 -0.5133 -0.4104
vn 0.0596 -0.5483 0.8342
vn -0.0596 0.5483 0.8342
vn 0.5000 0.5000 0.7071
vn -0.2706 -0.2706 -0.9239
vn 0.5133 -0.7537 -0.4104
vn 0.5483 -0.0596 0.8342
vn 0.2859 0.8938 0.3455
vn -0.9237 0.3433 -0.1700
vn -0.6533 -0.6533 -0.3827
vn 0.3433 -0.9237 -0.1700
vn 0.8938 0.2859 0.3455
vn -0.9237 0.3433 0.1700
vn -0.5133 0.7537 0.4104
vn -0.3433 0.9237 -0.1700
vn -0.7537 0.5133 -0.4104
vn -0.5000 -0.5000 -0.7071
vn -0.5000 -0.5000 0.7071
vn -0.6042 -0.6994 0.3818
vn -0.7071 -0.7071 -0.0000
vn 0.3176 0.2224 0.9218
vn 0.2045 0.3344 0.9200
vn -0.0000 -0.0000 -1.0000
vn 0.5000 0.5000 -0.7071
vn -0.2224 -0.3176 -0.9218
vn -0.7155 -0.5856 0.3811
vn 0.5856 0.7155 -0.3811
vn 0.7071 0.7071 -0.0000
vt 0.500000 0.600000
vt 0.625000 0.600000
vt 0.625000 0.800000
vt 0.500000 0.800000
vt 0.750000 0.800000
vt 0.875000 0.800000
vt 0.500000 0.000000
vt 0.625000 0.000000
vt 0.625000 0.200000
vt 0.500000 0.200000
vt 0.625000 0.400000
vt 0.500000 0.400000
vt 0.750000 0.600000
vt 0.750000 1.000000
vt 0.625000 1.000000
vt 0.750000 0.000000
vt 0.750000 0.200000
vt 0.750000 0.400000
vt 0.875000 0.600000
vt 0.125000 0.000000
vt 0.000000 0.000000
vt 0.875000 0.000000
vt 0.875000 0.200000
vt 0.875000 0.400000
vt 1.000000 0.600000
vt 1.000000 0.800000
vt 1.000000 1.000000
vt 0.875000 1.000000
vt 1.000000 0.000000
vt 1.000000 0.200000
vt 1.000000 0.400000
vt 0.000000 0.600000
vt 0.125000 0.600000
vt 0.125000 0.800000
vt 0.000000 0.800000
vt 0.500000 1.000000
vt 0.125000 0.200000
vt 0.000000 0.200000
vt 0.125000 0.400000
vt 0.000000 0.400000
vt 0.250000 0.600000
vt 0.250000 0.800000
vt 0.250000 1.000000
vt 0.125000 1.000000
vt 0.250000 0.000000
vt 0.250000 0.200000
vt 0.250000 0.400000
vt 0.375000 0.600000
vt 0.375000 0.800000
vt 0.375000 0.000000
vt 0.375000 0.200000
vt 0.375000 0.400000
vt 0.375000 1.000000
vt 0.000000 1.000000
s 0
usemtl Material.001
f 25/51/15 30/52/15 31/53/15 26/54/15
f 36/55/16 41/56/16 71/56/16 69/55/16
f 27/57/17 32/58/17 33/59/17 28/60/17
f 28/60/18 33/59/18 34/61/18 29/62/18
f 29/62/19 34/61/19 30/52/19 25/51/19
f 30/52/20 35/63/20 36/55/20 31/53/20
f 31/53/21 36/55/21 37/64/21 32/65/21
f 32/58/22 37/66/22 38/67/22 33/59/22
f 33/59/23 38/67/23 39/68/23 34/61/23
f 34/61/24 39/68/24 35/63/24 30/52/24
f 35/63/25 40/69/25 41/56/25 36/55/25
f 52/70/26 47/71/26 74/71/26 76/70/26
f 37/66/27 42/72/27 43/73/27 38/67/27
f 38/67/28 43/73/28 44/74/28 39/68/28
f 39/68/29 44/74/29 40/69/29 35/63/29
f 40/69/30 45/75/30 46/76/30 41/56/30
f 41/56/31 46/76/31 47/77/31 42/78/31
f 42/72/32 47/79/32 48/80/32 43/73/32
f 43/73/33 48/80/33 49/81/33 44/74/33
f 44/74/34 49/81/34 45/75/34 40/69/34
f 45/82/35 50/83/35 51/84/35 46/85/35
f 27/86/36 26/54/36 65/54/36 67/86/36
f 47/71/37 52/70/37 53/87/37 48/88/37
f 48/88/38 53/87/38 54/89/38 49/90/38
f 49/90/39 54/89/39 50/83/39 45/82/39
f 50/83/40 55/91/40 56/92/40 51/84/40
f 51/84/41 56/92/41 57/93/41 52/94/41
f 52/70/42 57/95/42 58/96/42 53/87/42
f 53/87/43 58/96/43 59/97/43 54/89/43
f 54/89/44 59/97/44 55/91/44 50/83/44
f 55/91/45 60/98/45 61/99/45 56/92/45
f 51/84/46 52/94/46 76/94/46 75/84/46
f 57/95/47 62/100/47 63/101/47 58/96/47
f 58/96/48 63/101/48 64/102/48 59/97/48
f 59/97/49 64/102/49 60/98/49 55/91/49
f 60/98/50 25/51/50 26/54/50 61/99/50
f 61/99/51 26/54/51 27/86/51 62/103/51
f 62/100/52 27/57/52 28/60/52 63/101/52
f 63/101/53 28/60/53 29/62/53 64/102/53
f 64/102/54 29/62/54 25/51/54 60/98/54
f 65/54/55 66/53/55 68/65/55 67/86/55
f 69/55/56 71/56/56 72/78/56 70/64/56
f 73/85/57 75/84/57 76/94/57 74/104/57
f 77/92/58 79/99/58 80/103/58 78/93/58
f 31/53/59 32/65/59 68/65/59 66/53/59
f 41/56/60 42/78/60 72/78/60 71/56/60
f 32/58/61 27/57/61 67/57/61 68/58/61
f 57/93/62 56/92/62 77/92/62 78/93/62
f 42/72/63 37/66/63 70/66/63 72/72/63
f 56/92/64 61/99/64 79/99/64 77/92/64
f 47/77/65 46/76/65 73/76/65 74/77/65
f 61/99/66 62/103/66 80/103/66 79/99/66
f 62/100/67 57/95/67 78/95/67 80/100/67
f 46/85/68 51/84/68 75/84/68 73/85/68
f 26/54/69 31/53/69 66/53/69 65/54/69
f 37/64/70 36/55/70 69/55/70 70/64/70
o Cylinder.001
v -1.292190 3.761035 -0.400256
v -1.858238 4.327084 -0.400256
v -1.150678 3.902547 -0.346632
v -1.716726 4.468596 -0.346632
v -1.047084 4.006141 -0.200128
v -1.613132 4.572189 -0.200128
v -1.009166 4.044059 0.000000
v -1.575214 4.610107 0.000000
v -1.047084 4.006141 0.200128
v -1.613132 4.572189 0.200128
v -1.150678 3.902547 0.346632
v -1.716726 4.468596 0.346632
v -1.292190 3.761035 0.400256
v -1.858238 4.327084 0.400256
v -1.433702 3.619523 0.346632
v -1.999750 4.185571 0.346632
v -1.537296 3.515929 0.200128
v -2.103344 4.081977 0.200128
v -1.575214 3.478011 0.000000
v -2.141263 4.044059 0.000000
v -1.537296 3.515929 -0.200128
v -2.103344 4.081977 -0.200128
v -1.433702 3.619523 -0.346632
v -1.999750 4.185571 -0.346632
vn 0.1830 0.1830 -0.9659
vn 0.5000 0.5000 -0.7071
vn 0.6830 0.6830 -0.2588
vn 0.6830 0.6830 0.2588
vn 0.5000 0.5000 0.7071
vn 0.1830 0.1830 0.9659
vn -0.1830 -0.1830 0.9659
vn -0.5000 -0.5000 0.7071
vn -0.6830 -0.6830 0.2588
vn -0.6830 -0.6830 -0.2588
vn -0.7071 0.7071 -0.0000
vn -0.5000 -0.5000 -0.7071
vn -0.1830 -0.1830 -0.9659
vn 0.7071 -0.7071 -0.0000
vt 1.000000 0.500000
vt 1.000000 1.000000
vt 0.916667 1.000000
vt 0.916667 0.500000
vt 0.833333 1.000000
vt 0.833333 0.500000
vt 0.750000 1.000000
vt 0.750000 0.500000
vt 0.666667 1.000000
vt 0.666667 0.500000
vt 0.583333 1.000000
vt 0.583333 0.500000
vt 0.500000 1.000000
vt 0.500000 0.500000
vt 0.416667 1.000000
vt 0.416667 0.500000
vt 0.333333 1.000000
vt 0.333333 0.500000
vt 0.250000 1.000000
vt 0.250000 0.500000
vt 0.166667 1.000000
vt 0.166667 0.500000
vt 0.370000 0.457846
vt 0.250000 0.490000
vt 0.130000 0.457846
vt 0.042154 0.370000
vt 0.010000 0.250000
vt 0.042154 0.130000
vt 0.130000 0.042154
vt 0.250000 0.010000
vt 0.370000 0.042154
vt 0.457846 0.130000
vt 0.490000 0.250000
vt 0.457846 0.370000
vt 0.083333 1.000000
vt 0.083333 0.500000
vt 0.000000 1.000000
vt 0.000000 0.500000
vt 0.750000 0.490000
vt 0.870000 0.457846
vt 0.957846 0.370000
vt 0.990000 0.250000
vt 0.957846 0.130000
vt 0.870000 0.042154
vt 0.750000 0.010000
vt 0.630000 0.042154
vt 0.542154 0.130000
vt 0.510000 0.250000
vt 0.542154 0.370000
vt 0.630000 0.457846
s 0
usemtl Material.003
f 81/105/71 82/106/71 84/107/71 83/108/71
f 83/108/72 84/107/72 86/109/72 85/110/72
f 85/110/73 86/109/73 88/111/73 87/112/73
f 87/112/74 88/111/74 90/113/74 89/114/74
f 89/114/75 90/113/75 92/115/75 91/116/75
f 91/116/76 92/115/76 94/117/76 93/118/76
f 93/118/77 94/117/77 96/119/77 95/120/77
f 95/120/78 96/119/78 98/121/78 97/122/78
f 97/122/79 98/121/79 100/123/79 99/124/79
f 99/124/80 100/123/80 102/125/80 101/126/80
f 84/127/81 82/128/81 104/129/81 102/130/81 100/131/81 98/132/81 96/133/81 94/134/81 92/135/81 90/136/81 88/137/81 86/138/81
f 101/126/82 102/125/82 104/139/82 103/140/82
f 103/140/83 104/139/83 82/141/83 81/142/83
f 81/143/84 83/144/84 85/145/84 87/146/84 89/147/84 91/148/84 93/149/84 95/150/84 97/151/84 99/152/84 101/153/84 103/154/84
